<?xml version="1.0" encoding="utf-8" standalone="no"?>
<!DOCTYPE svg PUBLIC "-//W3C//DTD SVG 1.1//EN"
  "http://www.w3.org/Graphics/SVG/1.1/DTD/svg11.dtd">
<!-- Created with matplotlib (https://matplotlib.org/) -->
<svg height="451.44pt" version="1.1" viewBox="0 0 760.32 451.44" width="760.32pt" xmlns="http://www.w3.org/2000/svg" xmlns:xlink="http://www.w3.org/1999/xlink">
 <defs>
  <style type="text/css">
*{stroke-linecap:butt;stroke-linejoin:round;}
  </style>
 </defs>
 <g id="figure_1">
  <g id="patch_1">
   <path d="M 0 451.44 
L 760.32 451.44 
L 760.32 0 
L 0 0 
z
" style="fill:#ffffff;"/>
  </g>
  <g id="axes_1">
   <g id="patch_2">
    <path d="M 49.26 415.5675 
L 749.52 415.5675 
L 749.52 25.44 
L 49.26 25.44 
z
" style="fill:#ffffff;"/>
   </g>
   <g id="matplotlib.axis_1">
    <g id="xtick_1">
     <g id="line2d_1">
      <path clip-path="url(#p6a87ddad6b)" d="M 79.785492 415.5675 
L 79.785492 25.44 
" style="fill:none;stroke:#cccccc;stroke-linecap:round;stroke-width:0.8;"/>
     </g>
     <g id="line2d_2"/>
     <g id="text_1">
      <!-- 0 -->
      <defs>
       <path d="M 4.15625 35.296875 
Q 4.15625 48 6.765625 55.734375 
Q 9.375 63.484375 14.515625 67.671875 
Q 19.671875 71.875 27.484375 71.875 
Q 33.25 71.875 37.59375 69.546875 
Q 41.9375 67.234375 44.765625 62.859375 
Q 47.609375 58.5 49.21875 52.21875 
Q 50.828125 45.953125 50.828125 35.296875 
Q 50.828125 22.703125 48.234375 14.96875 
Q 45.65625 7.234375 40.5 3 
Q 35.359375 -1.21875 27.484375 -1.21875 
Q 17.140625 -1.21875 11.234375 6.203125 
Q 4.15625 15.140625 4.15625 35.296875 
z
M 13.1875 35.296875 
Q 13.1875 17.671875 17.3125 11.828125 
Q 21.4375 6 27.484375 6 
Q 33.546875 6 37.671875 11.859375 
Q 41.796875 17.71875 41.796875 35.296875 
Q 41.796875 52.984375 37.671875 58.78125 
Q 33.546875 64.59375 27.390625 64.59375 
Q 21.34375 64.59375 17.71875 59.46875 
Q 13.1875 52.9375 13.1875 35.296875 
z
" id="ArialMT-48"/>
      </defs>
      <g style="fill:#262626;" transform="translate(77.005023 426.225312)scale(0.1 -0.1)">
       <use xlink:href="#ArialMT-48"/>
      </g>
     </g>
    </g>
    <g id="xtick_2">
     <g id="line2d_3">
      <path clip-path="url(#p6a87ddad6b)" d="M 207.17887 415.5675 
L 207.17887 25.44 
" style="fill:none;stroke:#cccccc;stroke-linecap:round;stroke-width:0.8;"/>
     </g>
     <g id="line2d_4"/>
     <g id="text_2">
      <!-- 200000 -->
      <defs>
       <path d="M 50.34375 8.453125 
L 50.34375 0 
L 3.03125 0 
Q 2.9375 3.171875 4.046875 6.109375 
Q 5.859375 10.9375 9.828125 15.625 
Q 13.8125 20.3125 21.34375 26.46875 
Q 33.015625 36.03125 37.109375 41.625 
Q 41.21875 47.21875 41.21875 52.203125 
Q 41.21875 57.421875 37.46875 61 
Q 33.734375 64.59375 27.734375 64.59375 
Q 21.390625 64.59375 17.578125 60.78125 
Q 13.765625 56.984375 13.71875 50.25 
L 4.6875 51.171875 
Q 5.609375 61.28125 11.65625 66.578125 
Q 17.71875 71.875 27.9375 71.875 
Q 38.234375 71.875 44.234375 66.15625 
Q 50.25 60.453125 50.25 52 
Q 50.25 47.703125 48.484375 43.546875 
Q 46.734375 39.40625 42.65625 34.8125 
Q 38.578125 30.21875 29.109375 22.21875 
Q 21.1875 15.578125 18.9375 13.203125 
Q 16.703125 10.84375 15.234375 8.453125 
z
" id="ArialMT-50"/>
      </defs>
      <g style="fill:#262626;" transform="translate(190.496058 426.225312)scale(0.1 -0.1)">
       <use xlink:href="#ArialMT-50"/>
       <use x="55.615234" xlink:href="#ArialMT-48"/>
       <use x="111.230469" xlink:href="#ArialMT-48"/>
       <use x="166.845703" xlink:href="#ArialMT-48"/>
       <use x="222.460938" xlink:href="#ArialMT-48"/>
       <use x="278.076172" xlink:href="#ArialMT-48"/>
      </g>
     </g>
    </g>
    <g id="xtick_3">
     <g id="line2d_5">
      <path clip-path="url(#p6a87ddad6b)" d="M 334.572249 415.5675 
L 334.572249 25.44 
" style="fill:none;stroke:#cccccc;stroke-linecap:round;stroke-width:0.8;"/>
     </g>
     <g id="line2d_6"/>
     <g id="text_3">
      <!-- 400000 -->
      <defs>
       <path d="M 32.328125 0 
L 32.328125 17.140625 
L 1.265625 17.140625 
L 1.265625 25.203125 
L 33.9375 71.578125 
L 41.109375 71.578125 
L 41.109375 25.203125 
L 50.78125 25.203125 
L 50.78125 17.140625 
L 41.109375 17.140625 
L 41.109375 0 
z
M 32.328125 25.203125 
L 32.328125 57.46875 
L 9.90625 25.203125 
z
" id="ArialMT-52"/>
      </defs>
      <g style="fill:#262626;" transform="translate(317.889436 426.225312)scale(0.1 -0.1)">
       <use xlink:href="#ArialMT-52"/>
       <use x="55.615234" xlink:href="#ArialMT-48"/>
       <use x="111.230469" xlink:href="#ArialMT-48"/>
       <use x="166.845703" xlink:href="#ArialMT-48"/>
       <use x="222.460938" xlink:href="#ArialMT-48"/>
       <use x="278.076172" xlink:href="#ArialMT-48"/>
      </g>
     </g>
    </g>
    <g id="xtick_4">
     <g id="line2d_7">
      <path clip-path="url(#p6a87ddad6b)" d="M 461.965628 415.5675 
L 461.965628 25.44 
" style="fill:none;stroke:#cccccc;stroke-linecap:round;stroke-width:0.8;"/>
     </g>
     <g id="line2d_8"/>
     <g id="text_4">
      <!-- 600000 -->
      <defs>
       <path d="M 49.75 54.046875 
L 41.015625 53.375 
Q 39.84375 58.546875 37.703125 60.890625 
Q 34.125 64.65625 28.90625 64.65625 
Q 24.703125 64.65625 21.53125 62.3125 
Q 17.390625 59.28125 14.984375 53.46875 
Q 12.59375 47.65625 12.5 36.921875 
Q 15.671875 41.75 20.265625 44.09375 
Q 24.859375 46.4375 29.890625 46.4375 
Q 38.671875 46.4375 44.84375 39.96875 
Q 51.03125 33.5 51.03125 23.25 
Q 51.03125 16.5 48.125 10.71875 
Q 45.21875 4.9375 40.140625 1.859375 
Q 35.0625 -1.21875 28.609375 -1.21875 
Q 17.625 -1.21875 10.6875 6.859375 
Q 3.765625 14.9375 3.765625 33.5 
Q 3.765625 54.25 11.421875 63.671875 
Q 18.109375 71.875 29.4375 71.875 
Q 37.890625 71.875 43.28125 67.140625 
Q 48.6875 62.40625 49.75 54.046875 
z
M 13.875 23.1875 
Q 13.875 18.65625 15.796875 14.5 
Q 17.71875 10.359375 21.1875 8.171875 
Q 24.65625 6 28.46875 6 
Q 34.03125 6 38.03125 10.484375 
Q 42.046875 14.984375 42.046875 22.703125 
Q 42.046875 30.125 38.078125 34.390625 
Q 34.125 38.671875 28.125 38.671875 
Q 22.171875 38.671875 18.015625 34.390625 
Q 13.875 30.125 13.875 23.1875 
z
" id="ArialMT-54"/>
      </defs>
      <g style="fill:#262626;" transform="translate(445.282815 426.225312)scale(0.1 -0.1)">
       <use xlink:href="#ArialMT-54"/>
       <use x="55.615234" xlink:href="#ArialMT-48"/>
       <use x="111.230469" xlink:href="#ArialMT-48"/>
       <use x="166.845703" xlink:href="#ArialMT-48"/>
       <use x="222.460938" xlink:href="#ArialMT-48"/>
       <use x="278.076172" xlink:href="#ArialMT-48"/>
      </g>
     </g>
    </g>
    <g id="xtick_5">
     <g id="line2d_9">
      <path clip-path="url(#p6a87ddad6b)" d="M 589.359006 415.5675 
L 589.359006 25.44 
" style="fill:none;stroke:#cccccc;stroke-linecap:round;stroke-width:0.8;"/>
     </g>
     <g id="line2d_10"/>
     <g id="text_5">
      <!-- 800000 -->
      <defs>
       <path d="M 17.671875 38.8125 
Q 12.203125 40.828125 9.5625 44.53125 
Q 6.9375 48.25 6.9375 53.421875 
Q 6.9375 61.234375 12.546875 66.546875 
Q 18.171875 71.875 27.484375 71.875 
Q 36.859375 71.875 42.578125 66.421875 
Q 48.296875 60.984375 48.296875 53.171875 
Q 48.296875 48.1875 45.671875 44.5 
Q 43.0625 40.828125 37.75 38.8125 
Q 44.34375 36.671875 47.78125 31.875 
Q 51.21875 27.09375 51.21875 20.453125 
Q 51.21875 11.28125 44.71875 5.03125 
Q 38.234375 -1.21875 27.640625 -1.21875 
Q 17.046875 -1.21875 10.546875 5.046875 
Q 4.046875 11.328125 4.046875 20.703125 
Q 4.046875 27.6875 7.59375 32.390625 
Q 11.140625 37.109375 17.671875 38.8125 
z
M 15.921875 53.71875 
Q 15.921875 48.640625 19.1875 45.40625 
Q 22.46875 42.1875 27.6875 42.1875 
Q 32.765625 42.1875 36.015625 45.375 
Q 39.265625 48.578125 39.265625 53.21875 
Q 39.265625 58.0625 35.90625 61.359375 
Q 32.5625 64.65625 27.59375 64.65625 
Q 22.5625 64.65625 19.234375 61.421875 
Q 15.921875 58.203125 15.921875 53.71875 
z
M 13.09375 20.65625 
Q 13.09375 16.890625 14.875 13.375 
Q 16.65625 9.859375 20.171875 7.921875 
Q 23.6875 6 27.734375 6 
Q 34.03125 6 38.125 10.046875 
Q 42.234375 14.109375 42.234375 20.359375 
Q 42.234375 26.703125 38.015625 30.859375 
Q 33.796875 35.015625 27.4375 35.015625 
Q 21.234375 35.015625 17.15625 30.90625 
Q 13.09375 26.8125 13.09375 20.65625 
z
" id="ArialMT-56"/>
      </defs>
      <g style="fill:#262626;" transform="translate(572.676194 426.225312)scale(0.1 -0.1)">
       <use xlink:href="#ArialMT-56"/>
       <use x="55.615234" xlink:href="#ArialMT-48"/>
       <use x="111.230469" xlink:href="#ArialMT-48"/>
       <use x="166.845703" xlink:href="#ArialMT-48"/>
       <use x="222.460938" xlink:href="#ArialMT-48"/>
       <use x="278.076172" xlink:href="#ArialMT-48"/>
      </g>
     </g>
    </g>
    <g id="xtick_6">
     <g id="line2d_11">
      <path clip-path="url(#p6a87ddad6b)" d="M 716.752385 415.5675 
L 716.752385 25.44 
" style="fill:none;stroke:#cccccc;stroke-linecap:round;stroke-width:0.8;"/>
     </g>
     <g id="line2d_12"/>
     <g id="text_6">
      <!-- 1000000 -->
      <defs>
       <path d="M 37.25 0 
L 28.46875 0 
L 28.46875 56 
Q 25.296875 52.984375 20.140625 49.953125 
Q 14.984375 46.921875 10.890625 45.40625 
L 10.890625 53.90625 
Q 18.265625 57.375 23.78125 62.296875 
Q 29.296875 67.234375 31.59375 71.875 
L 37.25 71.875 
z
" id="ArialMT-49"/>
      </defs>
      <g style="fill:#262626;" transform="translate(697.289103 426.225312)scale(0.1 -0.1)">
       <use xlink:href="#ArialMT-49"/>
       <use x="55.615234" xlink:href="#ArialMT-48"/>
       <use x="111.230469" xlink:href="#ArialMT-48"/>
       <use x="166.845703" xlink:href="#ArialMT-48"/>
       <use x="222.460938" xlink:href="#ArialMT-48"/>
       <use x="278.076172" xlink:href="#ArialMT-48"/>
       <use x="333.691406" xlink:href="#ArialMT-48"/>
      </g>
     </g>
    </g>
    <g id="text_7">
     <!-- Timesteps -->
     <defs>
      <path d="M 25.921875 0 
L 25.921875 63.140625 
L 2.34375 63.140625 
L 2.34375 71.578125 
L 59.078125 71.578125 
L 59.078125 63.140625 
L 35.40625 63.140625 
L 35.40625 0 
z
" id="ArialMT-84"/>
      <path d="M 6.640625 61.46875 
L 6.640625 71.578125 
L 15.4375 71.578125 
L 15.4375 61.46875 
z
M 6.640625 0 
L 6.640625 51.859375 
L 15.4375 51.859375 
L 15.4375 0 
z
" id="ArialMT-105"/>
      <path d="M 6.59375 0 
L 6.59375 51.859375 
L 14.453125 51.859375 
L 14.453125 44.578125 
Q 16.890625 48.390625 20.9375 50.703125 
Q 25 53.03125 30.171875 53.03125 
Q 35.9375 53.03125 39.625 50.640625 
Q 43.3125 48.25 44.828125 43.953125 
Q 50.984375 53.03125 60.84375 53.03125 
Q 68.5625 53.03125 72.703125 48.75 
Q 76.859375 44.484375 76.859375 35.59375 
L 76.859375 0 
L 68.109375 0 
L 68.109375 32.671875 
Q 68.109375 37.9375 67.25 40.25 
Q 66.40625 42.578125 64.15625 43.984375 
Q 61.921875 45.40625 58.890625 45.40625 
Q 53.421875 45.40625 49.796875 41.765625 
Q 46.1875 38.140625 46.1875 30.125 
L 46.1875 0 
L 37.40625 0 
L 37.40625 33.6875 
Q 37.40625 39.546875 35.25 42.46875 
Q 33.109375 45.40625 28.21875 45.40625 
Q 24.515625 45.40625 21.359375 43.453125 
Q 18.21875 41.5 16.796875 37.734375 
Q 15.375 33.984375 15.375 26.90625 
L 15.375 0 
z
" id="ArialMT-109"/>
      <path d="M 42.09375 16.703125 
L 51.171875 15.578125 
Q 49.03125 7.625 43.21875 3.21875 
Q 37.40625 -1.171875 28.375 -1.171875 
Q 17 -1.171875 10.328125 5.828125 
Q 3.65625 12.84375 3.65625 25.484375 
Q 3.65625 38.578125 10.390625 45.796875 
Q 17.140625 53.03125 27.875 53.03125 
Q 38.28125 53.03125 44.875 45.953125 
Q 51.46875 38.875 51.46875 26.03125 
Q 51.46875 25.25 51.421875 23.6875 
L 12.75 23.6875 
Q 13.234375 15.140625 17.578125 10.59375 
Q 21.921875 6.0625 28.421875 6.0625 
Q 33.25 6.0625 36.671875 8.59375 
Q 40.09375 11.140625 42.09375 16.703125 
z
M 13.234375 30.90625 
L 42.1875 30.90625 
Q 41.609375 37.453125 38.875 40.71875 
Q 34.671875 45.796875 27.984375 45.796875 
Q 21.921875 45.796875 17.796875 41.75 
Q 13.671875 37.703125 13.234375 30.90625 
z
" id="ArialMT-101"/>
      <path d="M 3.078125 15.484375 
L 11.765625 16.84375 
Q 12.5 11.625 15.84375 8.84375 
Q 19.1875 6.0625 25.203125 6.0625 
Q 31.25 6.0625 34.171875 8.515625 
Q 37.109375 10.984375 37.109375 14.3125 
Q 37.109375 17.28125 34.515625 19 
Q 32.71875 20.171875 25.53125 21.96875 
Q 15.875 24.421875 12.140625 26.203125 
Q 8.40625 27.984375 6.46875 31.125 
Q 4.546875 34.28125 4.546875 38.09375 
Q 4.546875 41.546875 6.125 44.5 
Q 7.71875 47.46875 10.453125 49.421875 
Q 12.5 50.921875 16.03125 51.96875 
Q 19.578125 53.03125 23.640625 53.03125 
Q 29.734375 53.03125 34.34375 51.265625 
Q 38.96875 49.515625 41.15625 46.5 
Q 43.359375 43.5 44.1875 38.484375 
L 35.59375 37.3125 
Q 35.015625 41.3125 32.203125 43.546875 
Q 29.390625 45.796875 24.265625 45.796875 
Q 18.21875 45.796875 15.625 43.796875 
Q 13.03125 41.796875 13.03125 39.109375 
Q 13.03125 37.40625 14.109375 36.03125 
Q 15.1875 34.625 17.484375 33.6875 
Q 18.796875 33.203125 25.25 31.453125 
Q 34.578125 28.953125 38.25 27.359375 
Q 41.9375 25.78125 44.03125 22.75 
Q 46.140625 19.734375 46.140625 15.234375 
Q 46.140625 10.84375 43.578125 6.953125 
Q 41.015625 3.078125 36.171875 0.953125 
Q 31.34375 -1.171875 25.25 -1.171875 
Q 15.140625 -1.171875 9.84375 3.03125 
Q 4.546875 7.234375 3.078125 15.484375 
z
" id="ArialMT-115"/>
      <path d="M 25.78125 7.859375 
L 27.046875 0.09375 
Q 23.34375 -0.6875 20.40625 -0.6875 
Q 15.625 -0.6875 12.984375 0.828125 
Q 10.359375 2.34375 9.28125 4.8125 
Q 8.203125 7.28125 8.203125 15.1875 
L 8.203125 45.015625 
L 1.765625 45.015625 
L 1.765625 51.859375 
L 8.203125 51.859375 
L 8.203125 64.703125 
L 16.9375 69.96875 
L 16.9375 51.859375 
L 25.78125 51.859375 
L 25.78125 45.015625 
L 16.9375 45.015625 
L 16.9375 14.703125 
Q 16.9375 10.9375 17.40625 9.859375 
Q 17.875 8.796875 18.921875 8.15625 
Q 19.96875 7.515625 21.921875 7.515625 
Q 23.390625 7.515625 25.78125 7.859375 
z
" id="ArialMT-116"/>
      <path d="M 6.59375 -19.875 
L 6.59375 51.859375 
L 14.59375 51.859375 
L 14.59375 45.125 
Q 17.4375 49.078125 21 51.046875 
Q 24.5625 53.03125 29.640625 53.03125 
Q 36.28125 53.03125 41.359375 49.609375 
Q 46.4375 46.1875 49.015625 39.953125 
Q 51.609375 33.734375 51.609375 26.3125 
Q 51.609375 18.359375 48.75 11.984375 
Q 45.90625 5.609375 40.453125 2.21875 
Q 35.015625 -1.171875 29 -1.171875 
Q 24.609375 -1.171875 21.109375 0.6875 
Q 17.625 2.546875 15.375 5.375 
L 15.375 -19.875 
z
M 14.546875 25.640625 
Q 14.546875 15.625 18.59375 10.84375 
Q 22.65625 6.0625 28.421875 6.0625 
Q 34.28125 6.0625 38.453125 11.015625 
Q 42.625 15.96875 42.625 26.375 
Q 42.625 36.28125 38.546875 41.203125 
Q 34.46875 46.140625 28.8125 46.140625 
Q 23.1875 46.140625 18.859375 40.890625 
Q 14.546875 35.640625 14.546875 25.640625 
z
" id="ArialMT-112"/>
     </defs>
     <g style="fill:#262626;" transform="translate(376.332188 439.370625)scale(0.1 -0.1)">
      <use xlink:href="#ArialMT-84"/>
      <use x="61.037109" xlink:href="#ArialMT-105"/>
      <use x="83.253906" xlink:href="#ArialMT-109"/>
      <use x="166.554688" xlink:href="#ArialMT-101"/>
      <use x="222.169922" xlink:href="#ArialMT-115"/>
      <use x="272.169922" xlink:href="#ArialMT-116"/>
      <use x="299.953125" xlink:href="#ArialMT-101"/>
      <use x="355.568359" xlink:href="#ArialMT-112"/>
      <use x="411.183594" xlink:href="#ArialMT-115"/>
     </g>
    </g>
   </g>
   <g id="matplotlib.axis_2">
    <g id="ytick_1">
     <g id="line2d_13">
      <path clip-path="url(#p6a87ddad6b)" d="M 49.26 390.021893 
L 749.52 390.021893 
" style="fill:none;stroke:#cccccc;stroke-linecap:round;stroke-width:0.8;"/>
     </g>
     <g id="line2d_14"/>
     <g id="text_8">
      <!-- 0 -->
      <g style="fill:#262626;" transform="translate(40.199063 393.600799)scale(0.1 -0.1)">
       <use xlink:href="#ArialMT-48"/>
      </g>
     </g>
    </g>
    <g id="ytick_2">
     <g id="line2d_15">
      <path clip-path="url(#p6a87ddad6b)" d="M 49.26 327.124173 
L 749.52 327.124173 
" style="fill:none;stroke:#cccccc;stroke-linecap:round;stroke-width:0.8;"/>
     </g>
     <g id="line2d_16"/>
     <g id="text_9">
      <!-- 1000 -->
      <g style="fill:#262626;" transform="translate(23.51625 330.703079)scale(0.1 -0.1)">
       <use xlink:href="#ArialMT-49"/>
       <use x="55.615234" xlink:href="#ArialMT-48"/>
       <use x="111.230469" xlink:href="#ArialMT-48"/>
       <use x="166.845703" xlink:href="#ArialMT-48"/>
      </g>
     </g>
    </g>
    <g id="ytick_3">
     <g id="line2d_17">
      <path clip-path="url(#p6a87ddad6b)" d="M 49.26 264.226453 
L 749.52 264.226453 
" style="fill:none;stroke:#cccccc;stroke-linecap:round;stroke-width:0.8;"/>
     </g>
     <g id="line2d_18"/>
     <g id="text_10">
      <!-- 2000 -->
      <g style="fill:#262626;" transform="translate(23.51625 267.805359)scale(0.1 -0.1)">
       <use xlink:href="#ArialMT-50"/>
       <use x="55.615234" xlink:href="#ArialMT-48"/>
       <use x="111.230469" xlink:href="#ArialMT-48"/>
       <use x="166.845703" xlink:href="#ArialMT-48"/>
      </g>
     </g>
    </g>
    <g id="ytick_4">
     <g id="line2d_19">
      <path clip-path="url(#p6a87ddad6b)" d="M 49.26 201.328733 
L 749.52 201.328733 
" style="fill:none;stroke:#cccccc;stroke-linecap:round;stroke-width:0.8;"/>
     </g>
     <g id="line2d_20"/>
     <g id="text_11">
      <!-- 3000 -->
      <defs>
       <path d="M 4.203125 18.890625 
L 12.984375 20.0625 
Q 14.5 12.59375 18.140625 9.296875 
Q 21.78125 6 27 6 
Q 33.203125 6 37.46875 10.296875 
Q 41.75 14.59375 41.75 20.953125 
Q 41.75 27 37.796875 30.921875 
Q 33.84375 34.859375 27.734375 34.859375 
Q 25.25 34.859375 21.53125 33.890625 
L 22.515625 41.609375 
Q 23.390625 41.5 23.921875 41.5 
Q 29.546875 41.5 34.03125 44.421875 
Q 38.53125 47.359375 38.53125 53.46875 
Q 38.53125 58.296875 35.25 61.46875 
Q 31.984375 64.65625 26.8125 64.65625 
Q 21.6875 64.65625 18.265625 61.421875 
Q 14.84375 58.203125 13.875 51.765625 
L 5.078125 53.328125 
Q 6.6875 62.15625 12.390625 67.015625 
Q 18.109375 71.875 26.609375 71.875 
Q 32.46875 71.875 37.390625 69.359375 
Q 42.328125 66.84375 44.9375 62.5 
Q 47.5625 58.15625 47.5625 53.265625 
Q 47.5625 48.640625 45.0625 44.828125 
Q 42.578125 41.015625 37.703125 38.765625 
Q 44.046875 37.3125 47.5625 32.6875 
Q 51.078125 28.078125 51.078125 21.140625 
Q 51.078125 11.765625 44.234375 5.25 
Q 37.40625 -1.265625 26.953125 -1.265625 
Q 17.53125 -1.265625 11.296875 4.34375 
Q 5.078125 9.96875 4.203125 18.890625 
z
" id="ArialMT-51"/>
      </defs>
      <g style="fill:#262626;" transform="translate(23.51625 204.907639)scale(0.1 -0.1)">
       <use xlink:href="#ArialMT-51"/>
       <use x="55.615234" xlink:href="#ArialMT-48"/>
       <use x="111.230469" xlink:href="#ArialMT-48"/>
       <use x="166.845703" xlink:href="#ArialMT-48"/>
      </g>
     </g>
    </g>
    <g id="ytick_5">
     <g id="line2d_21">
      <path clip-path="url(#p6a87ddad6b)" d="M 49.26 138.431012 
L 749.52 138.431012 
" style="fill:none;stroke:#cccccc;stroke-linecap:round;stroke-width:0.8;"/>
     </g>
     <g id="line2d_22"/>
     <g id="text_12">
      <!-- 4000 -->
      <g style="fill:#262626;" transform="translate(23.51625 142.009919)scale(0.1 -0.1)">
       <use xlink:href="#ArialMT-52"/>
       <use x="55.615234" xlink:href="#ArialMT-48"/>
       <use x="111.230469" xlink:href="#ArialMT-48"/>
       <use x="166.845703" xlink:href="#ArialMT-48"/>
      </g>
     </g>
    </g>
    <g id="ytick_6">
     <g id="line2d_23">
      <path clip-path="url(#p6a87ddad6b)" d="M 49.26 75.533292 
L 749.52 75.533292 
" style="fill:none;stroke:#cccccc;stroke-linecap:round;stroke-width:0.8;"/>
     </g>
     <g id="line2d_24"/>
     <g id="text_13">
      <!-- 5000 -->
      <defs>
       <path d="M 4.15625 18.75 
L 13.375 19.53125 
Q 14.40625 12.796875 18.140625 9.390625 
Q 21.875 6 27.15625 6 
Q 33.5 6 37.890625 10.78125 
Q 42.28125 15.578125 42.28125 23.484375 
Q 42.28125 31 38.0625 35.34375 
Q 33.84375 39.703125 27 39.703125 
Q 22.75 39.703125 19.328125 37.765625 
Q 15.921875 35.84375 13.96875 32.765625 
L 5.71875 33.84375 
L 12.640625 70.609375 
L 48.25 70.609375 
L 48.25 62.203125 
L 19.671875 62.203125 
L 15.828125 42.96875 
Q 22.265625 47.46875 29.34375 47.46875 
Q 38.71875 47.46875 45.15625 40.96875 
Q 51.609375 34.46875 51.609375 24.265625 
Q 51.609375 14.546875 45.953125 7.46875 
Q 39.0625 -1.21875 27.15625 -1.21875 
Q 17.390625 -1.21875 11.203125 4.25 
Q 5.03125 9.71875 4.15625 18.75 
z
" id="ArialMT-53"/>
      </defs>
      <g style="fill:#262626;" transform="translate(23.51625 79.112199)scale(0.1 -0.1)">
       <use xlink:href="#ArialMT-53"/>
       <use x="55.615234" xlink:href="#ArialMT-48"/>
       <use x="111.230469" xlink:href="#ArialMT-48"/>
       <use x="166.845703" xlink:href="#ArialMT-48"/>
      </g>
     </g>
    </g>
    <g id="text_14">
     <!-- Reward -->
     <defs>
      <path d="M 7.859375 0 
L 7.859375 71.578125 
L 39.59375 71.578125 
Q 49.171875 71.578125 54.140625 69.640625 
Q 59.125 67.71875 62.109375 62.828125 
Q 65.09375 57.953125 65.09375 52.046875 
Q 65.09375 44.4375 60.15625 39.203125 
Q 55.21875 33.984375 44.921875 32.5625 
Q 48.6875 30.765625 50.640625 29 
Q 54.78125 25.203125 58.5 19.484375 
L 70.953125 0 
L 59.03125 0 
L 49.5625 14.890625 
Q 45.40625 21.34375 42.71875 24.75 
Q 40.046875 28.171875 37.921875 29.53125 
Q 35.796875 30.90625 33.59375 31.453125 
Q 31.984375 31.78125 28.328125 31.78125 
L 17.328125 31.78125 
L 17.328125 0 
z
M 17.328125 39.984375 
L 37.703125 39.984375 
Q 44.1875 39.984375 47.84375 41.328125 
Q 51.515625 42.671875 53.421875 45.625 
Q 55.328125 48.578125 55.328125 52.046875 
Q 55.328125 57.125 51.640625 60.390625 
Q 47.953125 63.671875 39.984375 63.671875 
L 17.328125 63.671875 
z
" id="ArialMT-82"/>
      <path d="M 16.15625 0 
L 0.296875 51.859375 
L 9.375 51.859375 
L 17.625 21.921875 
L 20.703125 10.796875 
Q 20.90625 11.625 23.390625 21.484375 
L 31.640625 51.859375 
L 40.671875 51.859375 
L 48.4375 21.78125 
L 51.03125 11.859375 
L 54 21.875 
L 62.890625 51.859375 
L 71.4375 51.859375 
L 55.21875 0 
L 46.09375 0 
L 37.84375 31.0625 
L 35.84375 39.890625 
L 25.34375 0 
z
" id="ArialMT-119"/>
      <path d="M 40.4375 6.390625 
Q 35.546875 2.25 31.03125 0.53125 
Q 26.515625 -1.171875 21.34375 -1.171875 
Q 12.796875 -1.171875 8.203125 3 
Q 3.609375 7.171875 3.609375 13.671875 
Q 3.609375 17.484375 5.34375 20.625 
Q 7.078125 23.78125 9.890625 25.6875 
Q 12.703125 27.59375 16.21875 28.5625 
Q 18.796875 29.25 24.03125 29.890625 
Q 34.671875 31.15625 39.703125 32.90625 
Q 39.75 34.71875 39.75 35.203125 
Q 39.75 40.578125 37.25 42.78125 
Q 33.890625 45.75 27.25 45.75 
Q 21.046875 45.75 18.09375 43.578125 
Q 15.140625 41.40625 13.71875 35.890625 
L 5.125 37.0625 
Q 6.296875 42.578125 8.984375 45.96875 
Q 11.671875 49.359375 16.75 51.1875 
Q 21.828125 53.03125 28.515625 53.03125 
Q 35.15625 53.03125 39.296875 51.46875 
Q 43.453125 49.90625 45.40625 47.53125 
Q 47.359375 45.171875 48.140625 41.546875 
Q 48.578125 39.3125 48.578125 33.453125 
L 48.578125 21.734375 
Q 48.578125 9.46875 49.140625 6.21875 
Q 49.703125 2.984375 51.375 0 
L 42.1875 0 
Q 40.828125 2.734375 40.4375 6.390625 
z
M 39.703125 26.03125 
Q 34.90625 24.078125 25.34375 22.703125 
Q 19.921875 21.921875 17.671875 20.9375 
Q 15.4375 19.96875 14.203125 18.09375 
Q 12.984375 16.21875 12.984375 13.921875 
Q 12.984375 10.40625 15.640625 8.0625 
Q 18.3125 5.71875 23.4375 5.71875 
Q 28.515625 5.71875 32.46875 7.9375 
Q 36.421875 10.15625 38.28125 14.015625 
Q 39.703125 17 39.703125 22.796875 
z
" id="ArialMT-97"/>
      <path d="M 6.5 0 
L 6.5 51.859375 
L 14.40625 51.859375 
L 14.40625 44 
Q 17.4375 49.515625 20 51.265625 
Q 22.5625 53.03125 25.640625 53.03125 
Q 30.078125 53.03125 34.671875 50.203125 
L 31.640625 42.046875 
Q 28.421875 43.953125 25.203125 43.953125 
Q 22.3125 43.953125 20.015625 42.21875 
Q 17.71875 40.484375 16.75 37.40625 
Q 15.28125 32.71875 15.28125 27.15625 
L 15.28125 0 
z
" id="ArialMT-114"/>
      <path d="M 40.234375 0 
L 40.234375 6.546875 
Q 35.296875 -1.171875 25.734375 -1.171875 
Q 19.53125 -1.171875 14.328125 2.25 
Q 9.125 5.671875 6.265625 11.796875 
Q 3.421875 17.921875 3.421875 25.875 
Q 3.421875 33.640625 6 39.96875 
Q 8.59375 46.296875 13.765625 49.65625 
Q 18.953125 53.03125 25.34375 53.03125 
Q 30.03125 53.03125 33.6875 51.046875 
Q 37.359375 49.078125 39.65625 45.90625 
L 39.65625 71.578125 
L 48.390625 71.578125 
L 48.390625 0 
z
M 12.453125 25.875 
Q 12.453125 15.921875 16.640625 10.984375 
Q 20.84375 6.0625 26.5625 6.0625 
Q 32.328125 6.0625 36.34375 10.765625 
Q 40.375 15.484375 40.375 25.140625 
Q 40.375 35.796875 36.265625 40.765625 
Q 32.171875 45.75 26.171875 45.75 
Q 20.3125 45.75 16.375 40.96875 
Q 12.453125 36.1875 12.453125 25.875 
z
" id="ArialMT-100"/>
     </defs>
     <g style="fill:#262626;" transform="translate(17.52875 237.731875)rotate(-90)scale(0.1 -0.1)">
      <use xlink:href="#ArialMT-82"/>
      <use x="72.216797" xlink:href="#ArialMT-101"/>
      <use x="127.832031" xlink:href="#ArialMT-119"/>
      <use x="200.048828" xlink:href="#ArialMT-97"/>
      <use x="255.664062" xlink:href="#ArialMT-114"/>
      <use x="288.964844" xlink:href="#ArialMT-100"/>
     </g>
    </g>
   </g>
   <g id="PolyCollection_1">
    <defs>
     <path d="M 81.09 -55.671784 
L 81.09 -55.661894 
L 82.335793 -54.465432 
L 83.581585 -55.105486 
L 84.827378 -55.140814 
L 86.07317 -55.286809 
L 87.318963 -56.271512 
L 88.564755 -56.855628 
L 89.810548 -56.826451 
L 91.056341 -56.992998 
L 92.302133 -57.43354 
L 93.547926 -58.117717 
L 94.793718 -58.730649 
L 96.039511 -59.065068 
L 97.285303 -59.340583 
L 98.531096 -59.717224 
L 99.776888 -60.082052 
L 101.022681 -60.252473 
L 102.268474 -60.402493 
L 103.514266 -60.537069 
L 104.760059 -60.649822 
L 106.005851 -60.862087 
L 107.251644 -61.091356 
L 108.497436 -61.398359 
L 109.743229 -61.695858 
L 110.989022 -62.026228 
L 112.234814 -62.221486 
L 113.480607 -62.349147 
L 114.726399 -62.579154 
L 115.972192 -62.930296 
L 117.217984 -63.293082 
L 118.463777 -63.77738 
L 119.709569 -64.307458 
L 120.955362 -64.839405 
L 122.201155 -65.35234 
L 123.446947 -66.004482 
L 124.69274 -66.801905 
L 125.938532 -67.617655 
L 127.184325 -68.424589 
L 128.430117 -69.149915 
L 129.67591 -70.148354 
L 130.921703 -71.404075 
L 132.167495 -72.675056 
L 133.413288 -74.571259 
L 134.65908 -76.207511 
L 135.904873 -77.731592 
L 137.150665 -79.562904 
L 138.396458 -82.054686 
L 139.64225 -85.099775 
L 140.888043 -87.455122 
L 142.133836 -89.737935 
L 143.379628 -92.929501 
L 144.625421 -96.634869 
L 145.871213 -100.403892 
L 147.117006 -104.395842 
L 148.362798 -108.779189 
L 149.608591 -112.241702 
L 150.854384 -115.407717 
L 152.100176 -117.917351 
L 153.345969 -119.747604 
L 154.591761 -122.641447 
L 155.837554 -125.099316 
L 157.083346 -127.646892 
L 158.329139 -131.510993 
L 159.574932 -135.093926 
L 160.820724 -138.577833 
L 162.066517 -142.00872 
L 163.312309 -144.081579 
L 164.558102 -145.364431 
L 165.803894 -146.482527 
L 167.049687 -149.462769 
L 168.295479 -150.62917 
L 169.541272 -151.970283 
L 170.787065 -155.255629 
L 172.032857 -158.545655 
L 173.27865 -161.462143 
L 174.524442 -164.321483 
L 175.770235 -166.839603 
L 177.016027 -168.657756 
L 178.26182 -169.456345 
L 179.507613 -171.019121 
L 180.753405 -174.307734 
L 181.999198 -177.894086 
L 183.24499 -181.649809 
L 184.490783 -184.782052 
L 185.736575 -186.766461 
L 186.982368 -188.135372 
L 188.22816 -191.398366 
L 189.473953 -196.920542 
L 190.719746 -200.499491 
L 191.965538 -200.767662 
L 193.211331 -202.395784 
L 194.457123 -205.884723 
L 195.702916 -208.558704 
L 196.948708 -212.649149 
L 198.194501 -214.265277 
L 199.440294 -216.009814 
L 200.686086 -219.410502 
L 201.931879 -220.944831 
L 203.177671 -222.252108 
L 204.423464 -224.408214 
L 205.669256 -225.917295 
L 206.915049 -226.236467 
L 208.160841 -227.494163 
L 209.406634 -231.857473 
L 210.652427 -236.290141 
L 211.898219 -237.228388 
L 213.144012 -239.180129 
L 214.389804 -239.021382 
L 215.635597 -242.385875 
L 216.881389 -248.858165 
L 218.127182 -252.440081 
L 219.372975 -255.603459 
L 220.618767 -255.323182 
L 221.86456 -257.332764 
L 223.110352 -258.793444 
L 224.356145 -261.177491 
L 225.601937 -263.762825 
L 226.84773 -264.60256 
L 228.093523 -267.204295 
L 229.339315 -269.249469 
L 230.585108 -272.366383 
L 231.8309 -275.085506 
L 233.076693 -278.074256 
L 234.322485 -282.70078 
L 235.568278 -287.24698 
L 236.81407 -290.614874 
L 238.059863 -293.678698 
L 239.305656 -296.934321 
L 240.551448 -299.22061 
L 241.797241 -299.278136 
L 243.043033 -297.216602 
L 244.288826 -296.870401 
L 245.534618 -298.631264 
L 246.780411 -299.769033 
L 248.026204 -303.843129 
L 249.271996 -304.647999 
L 250.517789 -303.769715 
L 251.763581 -302.848528 
L 253.009374 -303.822151 
L 254.255166 -307.449734 
L 255.500959 -308.675378 
L 256.746751 -309.481492 
L 257.992544 -310.341059 
L 259.238337 -312.34742 
L 260.484129 -316.637014 
L 261.729922 -320.354137 
L 262.975714 -319.984048 
L 264.221507 -317.475392 
L 265.467299 -316.630598 
L 266.713092 -316.481368 
L 267.958885 -316.415735 
L 269.204677 -318.010824 
L 270.45047 -319.902381 
L 271.696262 -321.700933 
L 272.942055 -323.885152 
L 274.187847 -323.493242 
L 275.43364 -322.731765 
L 276.679432 -323.271044 
L 277.925225 -325.31105 
L 279.171018 -328.85248 
L 280.41681 -330.7342 
L 281.662603 -331.902745 
L 282.908395 -331.504478 
L 284.154188 -330.236536 
L 285.39998 -330.300485 
L 286.645773 -330.391705 
L 287.891566 -331.397396 
L 289.137358 -333.749546 
L 290.383151 -335.470057 
L 291.628943 -335.552276 
L 292.874736 -335.276982 
L 294.120528 -335.934902 
L 295.366321 -336.400803 
L 296.612114 -336.595928 
L 297.857906 -337.238414 
L 299.103699 -339.401328 
L 300.349491 -340.976996 
L 301.595284 -342.916825 
L 302.841076 -341.779459 
L 304.086869 -339.799072 
L 305.332661 -341.93779 
L 306.578454 -343.597713 
L 307.824247 -344.038311 
L 309.070039 -343.835767 
L 310.315832 -342.91233 
L 311.561624 -341.517108 
L 312.807417 -341.976332 
L 314.053209 -342.726275 
L 315.299002 -343.642969 
L 316.544795 -344.632845 
L 317.790587 -345.357834 
L 319.03638 -346.321638 
L 320.282172 -348.196621 
L 321.527965 -349.907781 
L 322.773757 -349.432052 
L 324.01955 -351.330392 
L 325.265342 -354.400285 
L 326.511135 -355.248985 
L 327.756928 -353.125623 
L 329.00272 -353.698495 
L 330.248513 -354.124729 
L 331.494305 -352.620816 
L 332.740098 -352.161919 
L 333.98589 -353.30672 
L 335.231683 -353.233167 
L 336.477476 -354.302599 
L 337.723268 -357.16315 
L 338.969061 -360.551018 
L 340.214853 -361.790695 
L 341.460646 -361.105999 
L 342.706438 -360.286424 
L 343.952231 -359.70118 
L 345.198023 -361.462884 
L 346.443816 -363.69233 
L 347.689609 -362.18077 
L 348.935401 -359.164309 
L 350.181194 -357.020136 
L 351.426986 -357.883047 
L 352.672779 -359.519412 
L 353.918571 -362.083075 
L 355.164364 -365.877208 
L 356.410157 -366.761817 
L 357.655949 -363.648819 
L 358.901742 -363.678372 
L 360.147534 -363.59444 
L 361.393327 -364.449506 
L 362.639119 -363.694707 
L 363.884912 -362.381598 
L 365.130705 -362.280572 
L 366.376497 -362.317052 
L 367.62229 -362.862385 
L 368.868082 -364.245336 
L 370.113875 -365.960403 
L 371.359667 -367.130524 
L 372.60546 -367.159132 
L 373.851252 -368.002131 
L 375.097045 -370.669523 
L 376.342838 -372.56783 
L 377.58863 -373.193496 
L 378.834423 -372.870775 
L 380.080215 -371.181175 
L 381.326008 -369.814826 
L 382.5718 -370.332101 
L 383.817593 -370.510643 
L 385.063386 -371.204237 
L 386.309178 -372.349935 
L 387.554971 -373.951066 
L 388.800763 -372.726674 
L 390.046556 -368.950421 
L 391.292348 -366.918644 
L 392.538141 -367.008575 
L 393.783933 -368.322824 
L 395.029726 -369.13868 
L 396.275519 -369.451209 
L 397.521311 -369.745125 
L 398.767104 -370.60934 
L 400.012896 -372.938789 
L 401.258689 -375.540179 
L 402.504481 -376.49307 
L 403.750274 -376.25058 
L 404.996067 -375.672532 
L 406.241859 -375.278623 
L 407.487652 -375.33158 
L 408.733444 -375.938255 
L 409.979237 -377.030104 
L 411.225029 -377.958427 
L 412.470822 -377.518926 
L 413.716614 -375.623572 
L 414.962407 -376.740432 
L 416.2082 -377.037603 
L 417.453992 -376.047627 
L 418.699785 -376.16549 
L 419.945577 -377.344755 
L 421.19137 -376.445258 
L 422.437162 -375.03762 
L 423.682955 -374.76889 
L 424.928748 -375.052312 
L 426.17454 -373.85708 
L 427.420333 -372.729868 
L 428.666125 -374.247927 
L 429.911918 -377.807814 
L 431.15771 -380.071304 
L 432.403503 -379.376019 
L 433.649295 -378.160803 
L 434.895088 -377.71168 
L 436.140881 -379.933194 
L 437.386673 -380.681608 
L 438.632466 -377.052281 
L 439.878258 -376.303197 
L 441.124051 -376.813729 
L 442.369843 -376.895703 
L 443.615636 -375.287969 
L 444.861429 -377.063786 
L 446.107221 -379.654338 
L 447.353014 -380.2046 
L 448.598806 -377.146113 
L 449.844599 -376.467435 
L 451.090391 -379.122574 
L 452.336184 -379.893045 
L 453.581977 -380.087791 
L 454.827769 -381.593526 
L 456.073562 -382.641058 
L 457.319354 -382.047156 
L 458.565147 -381.701744 
L 459.810939 -382.743195 
L 461.056732 -382.448389 
L 462.302524 -382.000535 
L 463.548317 -381.478 
L 464.79411 -381.155737 
L 466.039902 -381.194652 
L 467.285695 -381.158024 
L 468.531487 -381.305725 
L 469.77728 -379.968261 
L 471.023072 -377.921913 
L 472.268865 -380.233698 
L 473.514658 -382.280968 
L 474.76045 -383.251451 
L 476.006243 -382.330365 
L 477.252035 -380.947733 
L 478.497828 -382.056355 
L 479.74362 -384.032467 
L 480.989413 -385.21589 
L 482.235205 -385.749342 
L 483.480998 -385.643871 
L 484.726791 -385.213286 
L 485.972583 -384.703567 
L 487.218376 -384.011199 
L 488.464168 -384.175584 
L 489.709961 -384.833306 
L 490.955753 -385.828326 
L 492.201546 -386.593905 
L 493.447339 -387.426717 
L 494.693131 -388.015662 
L 495.938924 -386.089169 
L 497.184716 -385.2044 
L 498.430509 -384.271695 
L 499.676301 -386.712699 
L 500.922094 -388.563421 
L 502.167886 -390.77642 
L 503.413679 -392.598002 
L 504.659472 -393.873128 
L 505.905264 -393.956213 
L 507.151057 -392.484067 
L 508.396849 -390.691503 
L 509.642642 -387.81388 
L 510.888434 -385.782788 
L 512.134227 -387.526578 
L 513.38002 -390.751241 
L 514.625812 -391.97712 
L 515.871605 -391.792154 
L 517.117397 -392.08658 
L 518.36319 -392.737982 
L 519.608982 -391.618803 
L 520.854775 -389.746926 
L 522.100568 -388.302617 
L 523.34636 -389.89101 
L 524.592153 -390.391717 
L 525.837945 -391.508457 
L 527.083738 -390.042097 
L 528.32953 -390.036543 
L 529.575323 -389.716504 
L 530.821115 -388.205651 
L 532.066908 -388.102654 
L 533.312701 -389.015421 
L 534.558493 -390.922653 
L 535.804286 -390.689591 
L 537.050078 -388.925607 
L 538.295871 -388.743035 
L 539.541663 -389.963372 
L 540.787456 -390.577027 
L 542.033249 -390.360578 
L 543.279041 -390.222976 
L 544.524834 -391.085501 
L 545.770626 -392.374532 
L 547.016419 -392.581301 
L 548.262211 -391.528009 
L 549.508004 -392.513894 
L 550.753796 -392.995801 
L 551.999589 -392.321923 
L 553.245382 -393.865316 
L 554.491174 -393.687137 
L 555.736967 -392.833568 
L 556.982759 -393.08899 
L 558.228552 -392.726968 
L 559.474344 -391.700295 
L 560.720137 -389.170203 
L 561.96593 -390.099358 
L 563.211722 -391.17145 
L 564.457515 -392.063331 
L 565.703307 -394.656914 
L 566.9491 -396.40888 
L 568.194892 -395.364118 
L 569.440685 -394.148349 
L 570.686477 -394.17058 
L 571.93227 -393.966357 
L 573.178063 -393.971038 
L 574.423855 -392.694707 
L 575.669648 -393.189291 
L 576.91544 -393.184726 
L 578.161233 -394.364831 
L 579.407025 -396.540239 
L 580.652818 -395.824572 
L 581.898611 -393.822696 
L 583.144403 -394.645041 
L 584.390196 -395.432449 
L 585.635988 -398.080987 
L 586.881781 -396.978261 
L 588.127573 -395.756542 
L 589.373366 -395.306796 
L 590.619159 -395.825996 
L 591.864951 -395.253095 
L 593.110744 -395.033199 
L 594.356536 -395.424989 
L 595.602329 -395.368886 
L 596.848121 -395.296752 
L 598.093914 -395.175117 
L 599.339706 -396.51431 
L 600.585499 -398.33668 
L 601.831292 -401.578356 
L 603.077084 -402.030595 
L 604.322877 -399.014968 
L 605.568669 -397.990018 
L 606.814462 -400.395762 
L 608.060254 -399.108923 
L 609.306047 -398.244517 
L 610.55184 -397.707138 
L 611.797632 -396.784864 
L 613.043425 -397.213241 
L 614.289217 -398.206656 
L 615.53501 -397.523572 
L 616.780802 -396.532622 
L 618.026595 -396.346416 
L 619.272387 -396.656264 
L 620.51818 -396.73956 
L 621.763973 -396.783972 
L 623.009765 -397.090827 
L 624.255558 -396.916653 
L 625.50135 -395.687153 
L 626.747143 -394.19111 
L 627.992935 -394.065144 
L 629.238728 -395.077065 
L 630.484521 -396.462074 
L 631.730313 -398.534387 
L 632.976106 -398.315478 
L 634.221898 -397.417385 
L 635.467691 -392.694292 
L 636.713483 -393.364147 
L 637.959276 -395.228379 
L 639.205068 -397.047884 
L 640.450861 -398.266441 
L 641.696654 -399.847547 
L 642.942446 -400.77976 
L 644.188239 -400.980444 
L 645.434031 -399.295745 
L 646.679824 -396.829316 
L 647.925616 -395.783231 
L 649.171409 -394.923434 
L 650.417202 -394.372368 
L 651.662994 -394.748317 
L 652.908787 -394.821211 
L 654.154579 -395.774158 
L 655.400372 -396.561491 
L 656.646164 -398.225872 
L 657.891957 -399.695878 
L 659.13775 -399.821505 
L 660.383542 -399.499387 
L 661.629335 -399.286196 
L 662.875127 -400.272903 
L 664.12092 -398.041623 
L 665.366712 -394.13022 
L 666.612505 -391.884759 
L 667.858297 -395.839102 
L 669.10409 -399.274729 
L 670.349883 -398.43184 
L 671.595675 -397.931272 
L 672.841468 -397.929779 
L 674.08726 -398.087717 
L 675.333053 -397.975097 
L 676.578845 -397.890977 
L 677.824638 -398.523594 
L 679.070431 -399.347534 
L 680.316223 -399.933367 
L 681.562016 -400.886103 
L 682.807808 -401.886039 
L 684.053601 -402.150278 
L 685.299393 -401.204162 
L 686.545186 -400.640852 
L 687.790978 -402.461428 
L 689.036771 -401.056507 
L 690.282564 -397.051552 
L 691.528356 -396.251631 
L 692.774149 -398.785758 
L 694.019941 -400.380396 
L 695.265734 -400.116451 
L 696.511526 -398.577599 
L 697.757319 -396.776482 
L 699.003112 -394.96751 
L 700.248904 -393.690448 
L 701.494697 -393.830951 
L 702.740489 -395.927463 
L 703.986282 -397.930568 
L 705.232074 -399.27734 
L 706.477867 -400.048707 
L 707.723659 -399.757929 
L 708.969452 -400.403519 
L 710.215245 -402.21632 
L 711.461037 -402.876638 
L 712.70683 -401.261274 
L 713.952622 -402.272651 
L 715.198415 -401.551031 
L 716.444207 -400.658186 
L 717.69 -396.281887 
L 717.69 -396.566264 
L 717.69 -396.566264 
L 716.444207 -400.789129 
L 715.198415 -401.904888 
L 713.952622 -402.639071 
L 712.70683 -401.65929 
L 711.461037 -403.320903 
L 710.215245 -402.728489 
L 708.969452 -400.930826 
L 707.723659 -400.344315 
L 706.477867 -400.679874 
L 705.232074 -399.846009 
L 703.986282 -398.519406 
L 702.740489 -396.560345 
L 701.494697 -394.434349 
L 700.248904 -394.27692 
L 699.003112 -395.585869 
L 697.757319 -397.471695 
L 696.511526 -399.154743 
L 695.265734 -400.602687 
L 694.019941 -400.72206 
L 692.774149 -398.947653 
L 691.528356 -396.320191 
L 690.282564 -397.33414 
L 689.036771 -401.389387 
L 687.790978 -402.627575 
L 686.545186 -400.684786 
L 685.299393 -401.307511 
L 684.053601 -402.404871 
L 682.807808 -402.338153 
L 681.562016 -401.436524 
L 680.316223 -400.492424 
L 679.070431 -399.834377 
L 677.824638 -398.884549 
L 676.578845 -398.242314 
L 675.333053 -398.514372 
L 674.08726 -398.72795 
L 672.841468 -398.478116 
L 671.595675 -398.438517 
L 670.349883 -398.933748 
L 669.10409 -399.637648 
L 667.858297 -396.239926 
L 666.612505 -392.420575 
L 665.366712 -394.656491 
L 664.12092 -398.458552 
L 662.875127 -400.573428 
L 661.629335 -399.557544 
L 660.383542 -399.792014 
L 659.13775 -400.098901 
L 657.891957 -400.191996 
L 656.646164 -398.738891 
L 655.400372 -397.11799 
L 654.154579 -396.27623 
L 652.908787 -395.345855 
L 651.662994 -395.397377 
L 650.417202 -395.022976 
L 649.171409 -395.464834 
L 647.925616 -396.2668 
L 646.679824 -397.334436 
L 645.434031 -399.743695 
L 644.188239 -401.339217 
L 642.942446 -401.062621 
L 641.696654 -400.072716 
L 640.450861 -398.550949 
L 639.205068 -397.482163 
L 637.959276 -395.670801 
L 636.713483 -393.840421 
L 635.467691 -393.069014 
L 634.221898 -397.634321 
L 632.976106 -398.533742 
L 631.730313 -398.663163 
L 630.484521 -396.698166 
L 629.238728 -395.345626 
L 627.992935 -394.477607 
L 626.747143 -394.608134 
L 625.50135 -396.03457 
L 624.255558 -397.316501 
L 623.009765 -397.62647 
L 621.763973 -397.333016 
L 620.51818 -397.119392 
L 619.272387 -396.905336 
L 618.026595 -396.542154 
L 616.780802 -396.721202 
L 615.53501 -397.675229 
L 614.289217 -398.368529 
L 613.043425 -397.445702 
L 611.797632 -397.149386 
L 610.55184 -397.993996 
L 609.306047 -398.776638 
L 608.060254 -399.594335 
L 606.814462 -400.579253 
L 605.568669 -398.174124 
L 604.322877 -399.241468 
L 603.077084 -402.211535 
L 601.831292 -401.939265 
L 600.585499 -398.665035 
L 599.339706 -396.90379 
L 598.093914 -395.484005 
L 596.848121 -395.639515 
L 595.602329 -395.731317 
L 594.356536 -395.700999 
L 593.110744 -395.249444 
L 591.864951 -395.42661 
L 590.619159 -395.942138 
L 589.373366 -395.446245 
L 588.127573 -395.893856 
L 586.881781 -397.194388 
L 585.635988 -398.301694 
L 584.390196 -395.798974 
L 583.144403 -394.984431 
L 581.898611 -394.086753 
L 580.652818 -396.096837 
L 579.407025 -396.855713 
L 578.161233 -394.492222 
L 576.91544 -393.333369 
L 575.669648 -393.622769 
L 574.423855 -393.252256 
L 573.178063 -394.436292 
L 571.93227 -394.317724 
L 570.686477 -394.518522 
L 569.440685 -394.546967 
L 568.194892 -395.809586 
L 566.9491 -396.878644 
L 565.703307 -395.100216 
L 564.457515 -392.424893 
L 563.211722 -391.591651 
L 561.96593 -390.601395 
L 560.720137 -389.670888 
L 559.474344 -392.074303 
L 558.228552 -392.942719 
L 556.982759 -393.295571 
L 555.736967 -393.084933 
L 554.491174 -393.950032 
L 553.245382 -394.207074 
L 551.999589 -392.68501 
L 550.753796 -393.29323 
L 549.508004 -392.880258 
L 548.262211 -391.838621 
L 547.016419 -393.05694 
L 545.770626 -392.899521 
L 544.524834 -391.534303 
L 543.279041 -390.364072 
L 542.033249 -390.428185 
L 540.787456 -390.806883 
L 539.541663 -390.206955 
L 538.295871 -388.924085 
L 537.050078 -389.156758 
L 535.804286 -391.099076 
L 534.558493 -391.392857 
L 533.312701 -389.436269 
L 532.066908 -388.440704 
L 530.821115 -388.602789 
L 529.575323 -390.098248 
L 528.32953 -390.375793 
L 527.083738 -390.321309 
L 525.837945 -391.693893 
L 524.592153 -390.573486 
L 523.34636 -390.00877 
L 522.100568 -388.482927 
L 520.854775 -390.061561 
L 519.608982 -391.937003 
L 518.36319 -392.897171 
L 517.117397 -392.114802 
L 515.871605 -391.922433 
L 514.625812 -392.171724 
L 513.38002 -391.057148 
L 512.134227 -387.998432 
L 510.888434 -386.349002 
L 509.642642 -388.310913 
L 508.396849 -391.088032 
L 507.151057 -392.813084 
L 505.905264 -394.258223 
L 504.659472 -394.225841 
L 503.413679 -393.026777 
L 502.167886 -391.309044 
L 500.922094 -389.014444 
L 499.676301 -387.128362 
L 498.430509 -384.900793 
L 497.184716 -386.001054 
L 495.938924 -386.863236 
L 494.693131 -388.530601 
L 493.447339 -387.655088 
L 492.201546 -386.867988 
L 490.955753 -386.158716 
L 489.709961 -385.231153 
L 488.464168 -384.794065 
L 487.218376 -384.631173 
L 485.972583 -385.305105 
L 484.726791 -385.743625 
L 483.480998 -386.138472 
L 482.235205 -386.386687 
L 480.989413 -385.976597 
L 479.74362 -384.708157 
L 478.497828 -382.648348 
L 477.252035 -381.666025 
L 476.006243 -383.030472 
L 474.76045 -383.715217 
L 473.514658 -382.81021 
L 472.268865 -380.860456 
L 471.023072 -378.634427 
L 469.77728 -380.751118 
L 468.531487 -381.981544 
L 467.285695 -381.646626 
L 466.039902 -381.716345 
L 464.79411 -381.601797 
L 463.548317 -381.811858 
L 462.302524 -382.335546 
L 461.056732 -383.01441 
L 459.810939 -383.463783 
L 458.565147 -382.294009 
L 457.319354 -382.512015 
L 456.073562 -383.014434 
L 454.827769 -381.842712 
L 453.581977 -380.348768 
L 452.336184 -380.349307 
L 451.090391 -379.740562 
L 449.844599 -377.129481 
L 448.598806 -377.768164 
L 447.353014 -380.683969 
L 446.107221 -380.019735 
L 444.861429 -377.404302 
L 443.615636 -375.688897 
L 442.369843 -377.443563 
L 441.124051 -377.23858 
L 439.878258 -376.666264 
L 438.632466 -377.477559 
L 437.386673 -381.122814 
L 436.140881 -380.322866 
L 434.895088 -378.38156 
L 433.649295 -378.794766 
L 432.403503 -379.814843 
L 431.15771 -380.428637 
L 429.911918 -378.267878 
L 428.666125 -374.81388 
L 427.420333 -373.343242 
L 426.17454 -374.475408 
L 424.928748 -375.337164 
L 423.682955 -374.832555 
L 422.437162 -375.125153 
L 421.19137 -376.693321 
L 419.945577 -377.925068 
L 418.699785 -376.774181 
L 417.453992 -376.600172 
L 416.2082 -377.53216 
L 414.962407 -377.1653 
L 413.716614 -375.936889 
L 412.470822 -377.983488 
L 411.225029 -378.502296 
L 409.979237 -377.521714 
L 408.733444 -376.594715 
L 407.487652 -375.905941 
L 406.241859 -375.713622 
L 404.996067 -376.048809 
L 403.750274 -376.546704 
L 402.504481 -376.77832 
L 401.258689 -375.932657 
L 400.012896 -373.547599 
L 398.767104 -371.421598 
L 397.521311 -370.686754 
L 396.275519 -370.346009 
L 395.029726 -369.910689 
L 393.783933 -368.964663 
L 392.538141 -367.302837 
L 391.292348 -367.049878 
L 390.046556 -369.271592 
L 388.800763 -373.25182 
L 387.554971 -374.432223 
L 386.309178 -372.820166 
L 385.063386 -371.772905 
L 383.817593 -371.140374 
L 382.5718 -371.149904 
L 381.326008 -370.490982 
L 380.080215 -371.623648 
L 378.834423 -373.136261 
L 377.58863 -373.449506 
L 376.342838 -373.042848 
L 375.097045 -371.262344 
L 373.851252 -368.655418 
L 372.60546 -367.850399 
L 371.359667 -367.809369 
L 370.113875 -366.588686 
L 368.868082 -364.814681 
L 367.62229 -363.417383 
L 366.376497 -363.013271 
L 365.130705 -363.195176 
L 363.884912 -363.417367 
L 362.639119 -364.649607 
L 361.393327 -365.432562 
L 360.147534 -364.654921 
L 358.901742 -364.595476 
L 357.655949 -364.363842 
L 356.410157 -367.375925 
L 355.164364 -366.394779 
L 353.918571 -362.466846 
L 352.672779 -359.789312 
L 351.426986 -358.022991 
L 350.181194 -357.148205 
L 348.935401 -359.363879 
L 347.689609 -362.584775 
L 346.443816 -364.207087 
L 345.198023 -361.988207 
L 343.952231 -360.247835 
L 342.706438 -360.847211 
L 341.460646 -361.584453 
L 340.214853 -362.160715 
L 338.969061 -360.933853 
L 337.723268 -357.604396 
L 336.477476 -354.842963 
L 335.231683 -353.796753 
L 333.98589 -353.971091 
L 332.740098 -352.78928 
L 331.494305 -353.017777 
L 330.248513 -354.270795 
L 329.00272 -353.986463 
L 327.756928 -353.660642 
L 326.511135 -356.043229 
L 325.265342 -355.294305 
L 324.01955 -352.315516 
L 322.773757 -350.339749 
L 321.527965 -350.567301 
L 320.282172 -348.687507 
L 319.03638 -346.955074 
L 317.790587 -346.175077 
L 316.544795 -345.524087 
L 315.299002 -344.489268 
L 314.053209 -343.54742 
L 312.807417 -342.819447 
L 311.561624 -342.321134 
L 310.315832 -343.700804 
L 309.070039 -344.570355 
L 307.824247 -344.722432 
L 306.578454 -344.363633 
L 305.332661 -342.65558 
L 304.086869 -340.444658 
L 302.841076 -342.792594 
L 301.595284 -343.905318 
L 300.349491 -341.800568 
L 299.103699 -339.969652 
L 297.857906 -337.651191 
L 296.612114 -336.877845 
L 295.366321 -336.70835 
L 294.120528 -336.220434 
L 292.874736 -335.632689 
L 291.628943 -336.094203 
L 290.383151 -336.107571 
L 289.137358 -334.568141 
L 287.891566 -332.34177 
L 286.645773 -331.205204 
L 285.39998 -331.077994 
L 284.154188 -331.142048 
L 282.908395 -332.385461 
L 281.662603 -332.796289 
L 280.41681 -331.850474 
L 279.171018 -330.032307 
L 277.925225 -326.365254 
L 276.679432 -324.243468 
L 275.43364 -323.734216 
L 274.187847 -324.215268 
L 272.942055 -324.435117 
L 271.696262 -322.180549 
L 270.45047 -320.370403 
L 269.204677 -318.564713 
L 267.958885 -317.211381 
L 266.713092 -317.331587 
L 265.467299 -317.297497 
L 264.221507 -318.076129 
L 262.975714 -320.727015 
L 261.729922 -321.264282 
L 260.484129 -317.606783 
L 259.238337 -313.363718 
L 257.992544 -311.355686 
L 256.746751 -310.501819 
L 255.500959 -309.729919 
L 254.255166 -308.475054 
L 253.009374 -304.754324 
L 251.763581 -303.665643 
L 250.517789 -304.342738 
L 249.271996 -305.476374 
L 248.026204 -304.658755 
L 246.780411 -300.511095 
L 245.534618 -299.772718 
L 244.288826 -298.308944 
L 243.043033 -298.595899 
L 241.797241 -300.572697 
L 240.551448 -300.508525 
L 239.305656 -298.254937 
L 238.059863 -294.959965 
L 236.81407 -291.861647 
L 235.568278 -288.512704 
L 234.322485 -284.129241 
L 233.076693 -279.509081 
L 231.8309 -276.309031 
L 230.585108 -273.605869 
L 229.339315 -270.736836 
L 228.093523 -269.001559 
L 226.84773 -266.682961 
L 225.601937 -265.962497 
L 224.356145 -263.397168 
L 223.110352 -260.71542 
L 221.86456 -259.263845 
L 220.618767 -257.243172 
L 219.372975 -257.630987 
L 218.127182 -254.620905 
L 216.881389 -251.285614 
L 215.635597 -244.887231 
L 214.389804 -241.330947 
L 213.144012 -241.518728 
L 211.898219 -239.382357 
L 210.652427 -238.389401 
L 209.406634 -233.911478 
L 208.160841 -229.406382 
L 206.915049 -228.201662 
L 205.669256 -228.012173 
L 204.423464 -226.608681 
L 203.177671 -224.57714 
L 201.931879 -223.214091 
L 200.686086 -221.542409 
L 199.440294 -218.150402 
L 198.194501 -216.341416 
L 196.948708 -214.722671 
L 195.702916 -210.527746 
L 194.457123 -207.661536 
L 193.211331 -204.089128 
L 191.965538 -202.535624 
L 190.719746 -202.169462 
L 189.473953 -198.661589 
L 188.22816 -192.992745 
L 186.982368 -189.550765 
L 185.736575 -188.170798 
L 184.490783 -185.979005 
L 183.24499 -182.724755 
L 181.999198 -178.802054 
L 180.753405 -175.099545 
L 179.507613 -171.846289 
L 178.26182 -170.304865 
L 177.016027 -169.548311 
L 175.770235 -167.781032 
L 174.524442 -165.196805 
L 173.27865 -162.20628 
L 172.032857 -159.228798 
L 170.787065 -155.861582 
L 169.541272 -152.532829 
L 168.295479 -151.156374 
L 167.049687 -149.986323 
L 165.803894 -146.858911 
L 164.558102 -145.772403 
L 163.312309 -144.446076 
L 162.066517 -142.366073 
L 160.820724 -138.886736 
L 159.574932 -135.265926 
L 158.329139 -131.650793 
L 157.083346 -127.811709 
L 155.837554 -125.314051 
L 154.591761 -122.823657 
L 153.345969 -119.879259 
L 152.100176 -118.072903 
L 150.854384 -115.526687 
L 149.608591 -112.306539 
L 148.362798 -108.840314 
L 147.117006 -104.502505 
L 145.871213 -100.55754 
L 144.625421 -96.766792 
L 143.379628 -93.03303 
L 142.133836 -89.805202 
L 140.888043 -87.52654 
L 139.64225 -85.197147 
L 138.396458 -82.121741 
L 137.150665 -79.601522 
L 135.904873 -77.775815 
L 134.65908 -76.308649 
L 133.413288 -74.661281 
L 132.167495 -72.742513 
L 130.921703 -71.479761 
L 129.67591 -70.234305 
L 128.430117 -69.248695 
L 127.184325 -68.524527 
L 125.938532 -67.720091 
L 124.69274 -66.888812 
L 123.446947 -66.05982 
L 122.201155 -65.38708 
L 120.955362 -64.873789 
L 119.709569 -64.344918 
L 118.463777 -63.809643 
L 117.217984 -63.31915 
L 115.972192 -62.956895 
L 114.726399 -62.595087 
L 113.480607 -62.354768 
L 112.234814 -62.229919 
L 110.989022 -62.032297 
L 109.743229 -61.705341 
L 108.497436 -61.407977 
L 107.251644 -61.112053 
L 106.005851 -60.874993 
L 104.760059 -60.666777 
L 103.514266 -60.546016 
L 102.268474 -60.430116 
L 101.022681 -60.27401 
L 99.776888 -60.094245 
L 98.531096 -59.725662 
L 97.285303 -59.355075 
L 96.039511 -59.09998 
L 94.793718 -58.765352 
L 93.547926 -58.148112 
L 92.302133 -57.475693 
L 91.056341 -57.035655 
L 89.810548 -56.844748 
L 88.564755 -56.897369 
L 87.318963 -56.298968 
L 86.07317 -55.327035 
L 84.827378 -55.202486 
L 83.581585 -55.177989 
L 82.335793 -54.544949 
L 81.09 -55.671784 
z
" id="m8f523a9102" style="stroke:#007aff;stroke-opacity:0.4;"/>
    </defs>
    <g clip-path="url(#p6a87ddad6b)">
     <use style="fill:#007aff;fill-opacity:0.4;stroke:#007aff;stroke-opacity:0.4;" x="0" xlink:href="#m8f523a9102" y="451.44"/>
    </g>
   </g>
   <g id="PolyCollection_2">
    <defs>
     <path d="M 81.09 -55.778738 
L 81.09 -55.55494 
L 82.335793 -53.605568 
L 83.581585 -54.321453 
L 84.827378 -54.473918 
L 86.07317 -54.851819 
L 87.318963 -55.97461 
L 88.564755 -56.404255 
L 89.810548 -56.628589 
L 91.056341 -56.531723 
L 92.302133 -56.977715 
L 93.547926 -57.789036 
L 94.793718 -58.355388 
L 96.039511 -58.687533 
L 97.285303 -59.183872 
L 98.531096 -59.625973 
L 99.776888 -59.950198 
L 101.022681 -60.019577 
L 102.268474 -60.103788 
L 103.514266 -60.440314 
L 104.760059 -60.466472 
L 106.005851 -60.722526 
L 107.251644 -60.867545 
L 108.497436 -61.294357 
L 109.743229 -61.593311 
L 110.989022 -61.960607 
L 112.234814 -62.130304 
L 113.480607 -62.288366 
L 114.726399 -62.406862 
L 115.972192 -62.642659 
L 117.217984 -63.011184 
L 118.463777 -63.428504 
L 119.709569 -63.902383 
L 120.955362 -64.467595 
L 122.201155 -64.976673 
L 123.446947 -65.406073 
L 124.69274 -65.862124 
L 125.938532 -66.509946 
L 127.184325 -67.343883 
L 128.430117 -68.081734 
L 129.67591 -69.218906 
L 130.921703 -70.585621 
L 132.167495 -71.945602 
L 133.413288 -73.597789 
L 134.65908 -75.113842 
L 135.904873 -77.253381 
L 137.150665 -79.145306 
L 138.396458 -81.329579 
L 139.64225 -84.046819 
L 140.888043 -86.682822 
L 142.133836 -89.01053 
L 143.379628 -91.809967 
L 144.625421 -95.20829 
L 145.871213 -98.742388 
L 147.117006 -103.24242 
L 148.362798 -108.118205 
L 149.608591 -111.540572 
L 150.854384 -114.121215 
L 152.100176 -116.235254 
L 153.345969 -118.323923 
L 154.591761 -120.671083 
L 155.837554 -122.777237 
L 157.083346 -125.864607 
L 158.329139 -129.999232 
L 159.574932 -133.233965 
L 160.820724 -135.237453 
L 162.066517 -138.144415 
L 163.312309 -140.140016 
L 164.558102 -140.952742 
L 165.803894 -142.412416 
L 167.049687 -143.801212 
L 168.295479 -144.928136 
L 169.541272 -145.887079 
L 170.787065 -148.703024 
L 172.032857 -151.158351 
L 173.27865 -153.415263 
L 174.524442 -154.856002 
L 175.770235 -156.659264 
L 177.016027 -159.027547 
L 178.26182 -160.280705 
L 179.507613 -162.074368 
L 180.753405 -165.745323 
L 181.999198 -168.075586 
L 183.24499 -170.025651 
L 184.490783 -171.83856 
L 185.736575 -171.580363 
L 186.982368 -172.829733 
L 188.22816 -174.157218 
L 189.473953 -178.093368 
L 190.719746 -182.440904 
L 191.965538 -181.649436 
L 193.211331 -184.084451 
L 194.457123 -186.670783 
L 195.702916 -187.266063 
L 196.948708 -190.22669 
L 198.194501 -191.814518 
L 199.440294 -192.862122 
L 200.686086 -196.356685 
L 201.931879 -196.405717 
L 203.177671 -197.109888 
L 204.423464 -200.613011 
L 205.669256 -203.263886 
L 206.915049 -204.985417 
L 208.160841 -206.815983 
L 209.406634 -209.646064 
L 210.652427 -213.589349 
L 211.898219 -213.936003 
L 213.144012 -213.891206 
L 214.389804 -214.04642 
L 215.635597 -215.336948 
L 216.881389 -222.608442 
L 218.127182 -228.857291 
L 219.372975 -233.67836 
L 220.618767 -234.560965 
L 221.86456 -236.450618 
L 223.110352 -238.009761 
L 224.356145 -237.174555 
L 225.601937 -239.97622 
L 226.84773 -242.105715 
L 228.093523 -247.769205 
L 229.339315 -253.165515 
L 230.585108 -258.962945 
L 231.8309 -261.854662 
L 233.076693 -262.558479 
L 234.322485 -267.253822 
L 235.568278 -273.559809 
L 236.81407 -277.132638 
L 238.059863 -279.823451 
L 239.305656 -282.653561 
L 240.551448 -285.293468 
L 241.797241 -285.279125 
L 243.043033 -282.301282 
L 244.288826 -281.314418 
L 245.534618 -286.28791 
L 246.780411 -291.744589 
L 248.026204 -295.023188 
L 249.271996 -295.690189 
L 250.517789 -297.573213 
L 251.763581 -294.012487 
L 253.009374 -293.741911 
L 254.255166 -296.36222 
L 255.500959 -297.271884 
L 256.746751 -298.447964 
L 257.992544 -299.369178 
L 259.238337 -301.357465 
L 260.484129 -306.150208 
L 261.729922 -310.512096 
L 262.975714 -311.949819 
L 264.221507 -310.97919 
L 265.467299 -309.41895 
L 266.713092 -307.287338 
L 267.958885 -307.811845 
L 269.204677 -312.021236 
L 270.45047 -314.841328 
L 271.696262 -316.514506 
L 272.942055 -317.937995 
L 274.187847 -315.685463 
L 275.43364 -311.891554 
L 276.679432 -312.755541 
L 277.925225 -313.911188 
L 279.171018 -316.094168 
L 280.41681 -318.663135 
L 281.662603 -322.240214 
L 282.908395 -321.977779 
L 284.154188 -320.444595 
L 285.39998 -321.892728 
L 286.645773 -321.594765 
L 287.891566 -321.18521 
L 289.137358 -324.897494 
L 290.383151 -328.576167 
L 291.628943 -329.692032 
L 292.874736 -331.43048 
L 294.120528 -332.84724 
L 295.366321 -333.075076 
L 296.612114 -333.547363 
L 297.857906 -332.77476 
L 299.103699 -333.255636 
L 300.349491 -332.071121 
L 301.595284 -332.22754 
L 302.841076 -330.823716 
L 304.086869 -332.817894 
L 305.332661 -334.175822 
L 306.578454 -335.31527 
L 307.824247 -336.640427 
L 309.070039 -335.892146 
L 310.315832 -334.386011 
L 311.561624 -332.822611 
L 312.807417 -332.859128 
L 314.053209 -333.846647 
L 315.299002 -334.491336 
L 316.544795 -334.995211 
L 317.790587 -336.520407 
L 319.03638 -339.471844 
L 320.282172 -342.888326 
L 321.527965 -342.775922 
L 322.773757 -339.616481 
L 324.01955 -340.67755 
L 325.265342 -344.73261 
L 326.511135 -346.660264 
L 327.756928 -347.340086 
L 329.00272 -350.584493 
L 330.248513 -352.545217 
L 331.494305 -348.328199 
L 332.740098 -345.377822 
L 333.98589 -346.122411 
L 335.231683 -347.13872 
L 336.477476 -348.459261 
L 337.723268 -352.391638 
L 338.969061 -356.411155 
L 340.214853 -357.789402 
L 341.460646 -355.932142 
L 342.706438 -354.222235 
L 343.952231 -353.789806 
L 345.198023 -355.782197 
L 346.443816 -358.125899 
L 347.689609 -357.811983 
L 348.935401 -357.006222 
L 350.181194 -355.635228 
L 351.426986 -356.369736 
L 352.672779 -356.600791 
L 353.918571 -357.933093 
L 355.164364 -360.28034 
L 356.410157 -360.121029 
L 357.655949 -355.916772 
L 358.901742 -353.761076 
L 360.147534 -352.126715 
L 361.393327 -353.819025 
L 362.639119 -353.368688 
L 363.884912 -351.181089 
L 365.130705 -352.390316 
L 366.376497 -354.788348 
L 367.62229 -356.860801 
L 368.868082 -358.088603 
L 370.113875 -359.166334 
L 371.359667 -359.78969 
L 372.60546 -359.683971 
L 373.851252 -360.937668 
L 375.097045 -364.258927 
L 376.342838 -367.431123 
L 377.58863 -370.425077 
L 378.834423 -369.999887 
L 380.080215 -366.396392 
L 381.326008 -362.503079 
L 382.5718 -361.488612 
L 383.817593 -363.700919 
L 385.063386 -365.054832 
L 386.309178 -367.265 
L 387.554971 -368.747981 
L 388.800763 -367.047894 
L 390.046556 -365.477371 
L 391.292348 -365.499516 
L 392.538141 -363.826513 
L 393.783933 -361.382166 
L 395.029726 -360.790393 
L 396.275519 -359.7751 
L 397.521311 -359.562623 
L 398.767104 -361.825821 
L 400.012896 -366.355297 
L 401.258689 -371.296042 
L 402.504481 -373.408453 
L 403.750274 -373.048386 
L 404.996067 -371.60358 
L 406.241859 -370.57467 
L 407.487652 -369.120606 
L 408.733444 -368.839478 
L 409.979237 -371.713981 
L 411.225029 -372.077178 
L 412.470822 -372.495279 
L 413.716614 -372.235454 
L 414.962407 -372.146033 
L 416.2082 -371.689602 
L 417.453992 -370.07256 
L 418.699785 -369.583286 
L 419.945577 -371.069418 
L 421.19137 -373.762783 
L 422.437162 -374.091064 
L 423.682955 -374.080434 
L 424.928748 -371.97201 
L 426.17454 -367.17066 
L 427.420333 -366.097017 
L 428.666125 -368.127878 
L 429.911918 -372.832811 
L 431.15771 -376.207207 
L 432.403503 -374.630701 
L 433.649295 -371.305314 
L 434.895088 -370.467798 
L 436.140881 -375.719398 
L 437.386673 -375.910526 
L 438.632466 -372.453449 
L 439.878258 -372.377094 
L 441.124051 -372.21951 
L 442.369843 -370.971304 
L 443.615636 -370.952459 
L 444.861429 -373.381543 
L 446.107221 -375.703044 
L 447.353014 -375.020841 
L 448.598806 -370.419424 
L 449.844599 -369.308262 
L 451.090391 -372.439832 
L 452.336184 -374.959164 
L 453.581977 -377.265663 
L 454.827769 -378.898909 
L 456.073562 -378.603475 
L 457.319354 -377.020305 
L 458.565147 -375.297168 
L 459.810939 -374.950962 
L 461.056732 -376.327607 
L 462.302524 -378.377819 
L 463.548317 -377.867755 
L 464.79411 -376.332169 
L 466.039902 -375.553224 
L 467.285695 -375.874434 
L 468.531487 -373.997618 
L 469.77728 -371.502663 
L 471.023072 -370.21699 
L 472.268865 -373.456122 
L 473.514658 -376.557898 
L 474.76045 -378.23643 
L 476.006243 -374.759601 
L 477.252035 -373.18033 
L 478.497828 -375.65471 
L 479.74362 -376.725754 
L 480.989413 -376.989829 
L 482.235205 -378.857287 
L 483.480998 -380.2954 
L 484.726791 -379.478357 
L 485.972583 -378.198719 
L 487.218376 -377.30698 
L 488.464168 -377.487511 
L 489.709961 -380.531098 
L 490.955753 -382.255587 
L 492.201546 -383.630055 
L 493.447339 -384.957181 
L 494.693131 -382.447262 
L 495.938924 -377.71864 
L 497.184716 -376.589625 
L 498.430509 -377.468812 
L 499.676301 -382.217845 
L 500.922094 -383.686188 
L 502.167886 -385.016784 
L 503.413679 -387.961355 
L 504.659472 -390.058981 
L 505.905264 -390.69036 
L 507.151057 -388.926181 
L 508.396849 -386.403547 
L 509.642642 -382.439112 
L 510.888434 -379.659913 
L 512.134227 -382.424087 
L 513.38002 -387.443249 
L 514.625812 -389.872733 
L 515.871605 -390.383358 
L 517.117397 -391.781396 
L 518.36319 -391.01656 
L 519.608982 -388.177878 
L 520.854775 -386.344546 
L 522.100568 -386.352803 
L 523.34636 -388.617581 
L 524.592153 -388.42611 
L 525.837945 -389.503198 
L 527.083738 -387.02277 
L 528.32953 -386.368 
L 529.575323 -385.588438 
L 530.821115 -383.911116 
L 532.066908 -384.447085 
L 533.312701 -384.464499 
L 534.558493 -385.837999 
L 535.804286 -386.261546 
L 537.050078 -386.426004 
L 538.295871 -386.78521 
L 539.541663 -387.329328 
L 540.787456 -388.091431 
L 542.033249 -389.629498 
L 543.279041 -388.697209 
L 544.524834 -386.23228 
L 545.770626 -386.697463 
L 547.016419 -387.437888 
L 548.262211 -388.169136 
L 549.508004 -388.552147 
L 550.753796 -389.779487 
L 551.999589 -388.39561 
L 553.245382 -390.169651 
L 554.491174 -390.844271 
L 555.736967 -390.115375 
L 556.982759 -390.855085 
L 558.228552 -390.393904 
L 559.474344 -387.655882 
L 560.720137 -383.755946 
L 561.96593 -384.670473 
L 563.211722 -386.627519 
L 564.457515 -388.153509 
L 565.703307 -389.863186 
L 566.9491 -391.328985 
L 568.194892 -390.546958 
L 569.440685 -389.837813 
L 570.686477 -390.408033 
L 571.93227 -390.166781 
L 573.178063 -388.939921 
L 574.423855 -386.665534 
L 575.669648 -388.501785 
L 576.91544 -391.577343 
L 578.161233 -392.987268 
L 579.407025 -393.128797 
L 580.652818 -392.880381 
L 581.898611 -390.967258 
L 583.144403 -390.974972 
L 584.390196 -391.468954 
L 585.635988 -395.694329 
L 586.881781 -394.641125 
L 588.127573 -394.271667 
L 589.373366 -393.798834 
L 590.619159 -394.570071 
L 591.864951 -393.376762 
L 593.110744 -392.694786 
L 594.356536 -392.440291 
L 595.602329 -391.449655 
L 596.848121 -391.590218 
L 598.093914 -391.834889 
L 599.339706 -392.302587 
L 600.585499 -394.785946 
L 601.831292 -397.675593 
L 603.077084 -400.07396 
L 604.322877 -396.565664 
L 605.568669 -395.999151 
L 606.814462 -398.411546 
L 608.060254 -393.859815 
L 609.306047 -392.490323 
L 610.55184 -394.60514 
L 611.797632 -392.843028 
L 613.043425 -394.699466 
L 614.289217 -396.456205 
L 615.53501 -395.883596 
L 616.780802 -394.493372 
L 618.026595 -394.229765 
L 619.272387 -393.962863 
L 620.51818 -392.632163 
L 621.763973 -390.846772 
L 623.009765 -391.298539 
L 624.255558 -392.592814 
L 625.50135 -391.930292 
L 626.747143 -389.681538 
L 627.992935 -389.604894 
L 629.238728 -392.172917 
L 630.484521 -393.909037 
L 631.730313 -397.141848 
L 632.976106 -395.955238 
L 634.221898 -395.0715 
L 635.467691 -388.642156 
L 636.713483 -388.213859 
L 637.959276 -390.444153 
L 639.205068 -392.351719 
L 640.450861 -395.189849 
L 641.696654 -397.41264 
L 642.942446 -397.720988 
L 644.188239 -397.100773 
L 645.434031 -394.451749 
L 646.679824 -391.367103 
L 647.925616 -390.554056 
L 649.171409 -389.068892 
L 650.417202 -387.336883 
L 651.662994 -387.729563 
L 652.908787 -389.147864 
L 654.154579 -390.344892 
L 655.400372 -390.543683 
L 656.646164 -392.678225 
L 657.891957 -394.331001 
L 659.13775 -396.821827 
L 660.383542 -396.335008 
L 661.629335 -396.351917 
L 662.875127 -397.023108 
L 664.12092 -393.533072 
L 665.366712 -388.439275 
L 666.612505 -386.090596 
L 667.858297 -391.504711 
L 669.10409 -395.350221 
L 670.349883 -393.00435 
L 671.595675 -392.446082 
L 672.841468 -392.000223 
L 674.08726 -391.164421 
L 675.333053 -392.14353 
L 676.578845 -394.091724 
L 677.824638 -394.620333 
L 679.070431 -394.08296 
L 680.316223 -393.887888 
L 681.562016 -394.934006 
L 682.807808 -396.997013 
L 684.053601 -399.397185 
L 685.299393 -400.086574 
L 686.545186 -400.165766 
L 687.790978 -400.664761 
L 689.036771 -397.456848 
L 690.282564 -393.995727 
L 691.528356 -395.510239 
L 692.774149 -397.035071 
L 694.019941 -396.68575 
L 695.265734 -394.858436 
L 696.511526 -392.336529 
L 697.757319 -389.258661 
L 699.003112 -388.280761 
L 700.248904 -387.348503 
L 701.494697 -387.305976 
L 702.740489 -389.08366 
L 703.986282 -391.563047 
L 705.232074 -393.127922 
L 706.477867 -393.223451 
L 707.723659 -393.416913 
L 708.969452 -394.701371 
L 710.215245 -396.677877 
L 711.461037 -398.072481 
L 712.70683 -396.957245 
L 713.952622 -398.310285 
L 715.198415 -397.724535 
L 716.444207 -399.242209 
L 717.69 -393.206721 
L 717.69 -399.64143 
L 717.69 -399.64143 
L 716.444207 -402.205106 
L 715.198415 -405.731384 
L 713.952622 -406.601437 
L 712.70683 -405.963319 
L 711.461037 -408.12506 
L 710.215245 -408.266932 
L 708.969452 -406.632974 
L 707.723659 -406.685331 
L 706.477867 -407.50513 
L 705.232074 -405.995427 
L 703.986282 -404.886927 
L 702.740489 -403.404149 
L 701.494697 -400.959324 
L 700.248904 -400.618865 
L 699.003112 -402.272618 
L 697.757319 -404.989516 
L 696.511526 -405.395813 
L 695.265734 -405.860702 
L 694.019941 -404.416706 
L 692.774149 -400.69834 
L 691.528356 -397.061583 
L 690.282564 -400.389965 
L 689.036771 -404.989046 
L 687.790978 -404.424241 
L 686.545186 -401.159872 
L 685.299393 -402.425099 
L 684.053601 -405.157963 
L 682.807808 -407.227179 
L 681.562016 -407.388621 
L 680.316223 -406.537903 
L 679.070431 -405.098951 
L 677.824638 -402.78781 
L 676.578845 -402.041568 
L 675.333053 -404.345939 
L 674.08726 -405.651247 
L 672.841468 -404.407672 
L 671.595675 -403.923707 
L 670.349883 -404.361237 
L 669.10409 -403.562156 
L 667.858297 -400.574317 
L 666.612505 -398.214738 
L 665.366712 -400.347435 
L 664.12092 -402.967102 
L 662.875127 -403.823223 
L 661.629335 -402.491822 
L 660.383542 -402.956393 
L 659.13775 -403.098579 
L 657.891957 -405.556873 
L 656.646164 -404.286538 
L 655.400372 -403.135798 
L 654.154579 -401.705496 
L 652.908787 -401.019203 
L 651.662994 -402.41613 
L 650.417202 -402.058462 
L 649.171409 -401.319376 
L 647.925616 -401.495975 
L 646.679824 -402.79665 
L 645.434031 -404.587691 
L 644.188239 -405.218888 
L 642.942446 -404.121393 
L 641.696654 -402.507624 
L 640.450861 -401.627541 
L 639.205068 -402.178328 
L 637.959276 -400.455028 
L 636.713483 -398.990709 
L 635.467691 -397.12115 
L 634.221898 -399.980205 
L 632.976106 -400.893982 
L 631.730313 -400.055702 
L 630.484521 -399.251203 
L 629.238728 -398.249774 
L 627.992935 -398.937856 
L 626.747143 -399.117706 
L 625.50135 -399.791431 
L 624.255558 -401.64034 
L 623.009765 -403.418757 
L 621.763973 -403.270216 
L 620.51818 -401.226789 
L 619.272387 -399.598737 
L 618.026595 -398.658805 
L 616.780802 -398.760452 
L 615.53501 -399.315205 
L 614.289217 -400.118979 
L 613.043425 -399.959477 
L 611.797632 -401.091222 
L 610.55184 -401.095995 
L 609.306047 -404.530832 
L 608.060254 -404.843443 
L 606.814462 -402.56347 
L 605.568669 -400.164991 
L 604.322877 -401.690772 
L 603.077084 -404.16817 
L 601.831292 -405.842028 
L 600.585499 -402.215769 
L 599.339706 -401.115513 
L 598.093914 -398.824233 
L 596.848121 -399.346049 
L 595.602329 -399.650548 
L 594.356536 -398.685697 
L 593.110744 -397.587857 
L 591.864951 -397.302943 
L 590.619159 -397.198062 
L 589.373366 -396.954207 
L 588.127573 -397.378732 
L 586.881781 -399.531524 
L 585.635988 -400.688352 
L 584.390196 -399.762469 
L 583.144403 -398.6545 
L 581.898611 -396.942191 
L 580.652818 -399.041028 
L 579.407025 -400.267156 
L 578.161233 -395.869785 
L 576.91544 -394.940751 
L 575.669648 -398.310275 
L 574.423855 -399.281428 
L 573.178063 -399.467409 
L 571.93227 -398.1173 
L 570.686477 -398.28107 
L 569.440685 -398.857503 
L 568.194892 -400.626747 
L 566.9491 -401.95854 
L 565.703307 -399.893944 
L 564.457515 -396.334715 
L 563.211722 -396.135581 
L 561.96593 -396.03028 
L 560.720137 -395.085145 
L 559.474344 -396.118716 
L 558.228552 -395.275784 
L 556.982759 -395.529476 
L 555.736967 -395.803126 
L 554.491174 -396.792899 
L 553.245382 -397.902739 
L 551.999589 -396.611324 
L 550.753796 -396.509544 
L 549.508004 -396.842005 
L 548.262211 -395.197494 
L 547.016419 -398.200353 
L 545.770626 -398.57659 
L 544.524834 -396.387524 
L 543.279041 -391.889838 
L 542.033249 -391.159265 
L 540.787456 -393.292479 
L 539.541663 -392.840999 
L 538.295871 -390.88191 
L 537.050078 -391.656361 
L 535.804286 -395.527121 
L 534.558493 -396.47751 
L 533.312701 -393.987191 
L 532.066908 -392.096274 
L 530.821115 -392.897324 
L 529.575323 -394.226314 
L 528.32953 -394.044335 
L 527.083738 -393.340636 
L 525.837945 -393.699152 
L 524.592153 -392.539093 
L 523.34636 -391.282199 
L 522.100568 -390.432741 
L 520.854775 -393.463941 
L 519.608982 -395.377928 
L 518.36319 -394.618593 
L 517.117397 -392.419985 
L 515.871605 -393.33123 
L 514.625812 -394.276112 
L 513.38002 -394.365139 
L 512.134227 -393.100922 
L 510.888434 -392.471876 
L 509.642642 -393.685682 
L 508.396849 -395.375988 
L 507.151057 -396.37097 
L 505.905264 -397.524076 
L 504.659472 -398.039988 
L 503.413679 -397.663425 
L 502.167886 -397.068681 
L 500.922094 -393.891677 
L 499.676301 -391.623216 
L 498.430509 -391.703676 
L 497.184716 -394.615829 
L 495.938924 -395.233765 
L 494.693131 -394.099001 
L 493.447339 -390.124625 
L 492.201546 -389.831838 
L 490.955753 -389.731454 
L 489.709961 -389.533362 
L 488.464168 -391.482138 
L 487.218376 -391.335392 
L 485.972583 -391.809953 
L 484.726791 -391.478553 
L 483.480998 -391.486943 
L 482.235205 -393.278742 
L 480.989413 -394.202658 
L 479.74362 -392.01487 
L 478.497828 -389.049993 
L 477.252035 -389.433428 
L 476.006243 -390.601236 
L 474.76045 -388.730238 
L 473.514658 -388.533279 
L 472.268865 -387.638033 
L 471.023072 -386.33935 
L 469.77728 -389.216716 
L 468.531487 -389.28965 
L 467.285695 -386.930216 
L 466.039902 -387.357773 
L 464.79411 -386.425364 
L 463.548317 -385.422102 
L 462.302524 -385.958262 
L 461.056732 -389.135192 
L 459.810939 -391.256016 
L 458.565147 -388.698585 
L 457.319354 -387.538866 
L 456.073562 -387.052017 
L 454.827769 -384.537329 
L 453.581977 -383.170895 
L 452.336184 -385.283188 
L 451.090391 -386.423303 
L 449.844599 -384.288655 
L 448.598806 -384.494853 
L 447.353014 -385.867727 
L 446.107221 -383.971029 
L 444.861429 -381.086544 
L 443.615636 -380.024407 
L 442.369843 -383.367961 
L 441.124051 -381.832799 
L 439.878258 -380.592366 
L 438.632466 -382.076391 
L 437.386673 -385.893896 
L 436.140881 -384.536662 
L 434.895088 -385.625442 
L 433.649295 -385.650254 
L 432.403503 -384.560161 
L 431.15771 -384.292734 
L 429.911918 -383.242882 
L 428.666125 -380.93393 
L 427.420333 -379.976093 
L 426.17454 -381.161828 
L 424.928748 -378.417467 
L 423.682955 -375.521011 
L 422.437162 -376.07171 
L 421.19137 -379.375797 
L 419.945577 -384.200405 
L 418.699785 -383.356385 
L 417.453992 -382.57524 
L 416.2082 -382.880162 
L 414.962407 -381.759698 
L 413.716614 -379.325007 
L 412.470822 -383.007135 
L 411.225029 -384.383545 
L 409.979237 -382.837837 
L 408.733444 -383.693492 
L 407.487652 -382.116915 
L 406.241859 -380.417575 
L 404.996067 -380.11776 
L 403.750274 -379.748898 
L 402.504481 -379.862937 
L 401.258689 -380.176794 
L 400.012896 -380.131091 
L 398.767104 -380.205117 
L 397.521311 -380.869257 
L 396.275519 -380.022117 
L 395.029726 -378.258976 
L 393.783933 -375.905321 
L 392.538141 -370.4849 
L 391.292348 -368.469006 
L 390.046556 -372.744642 
L 388.800763 -378.930601 
L 387.554971 -379.635308 
L 386.309178 -377.905101 
L 385.063386 -377.92231 
L 383.817593 -377.950097 
L 382.5718 -379.993393 
L 381.326008 -377.802729 
L 380.080215 -376.408431 
L 378.834423 -376.007149 
L 377.58863 -376.217925 
L 376.342838 -378.179555 
L 375.097045 -377.67294 
L 373.851252 -375.71988 
L 372.60546 -375.32556 
L 371.359667 -375.150202 
L 370.113875 -373.382754 
L 368.868082 -370.971414 
L 367.62229 -369.418966 
L 366.376497 -370.541975 
L 365.130705 -373.085433 
L 363.884912 -374.617876 
L 362.639119 -374.975626 
L 361.393327 -376.063043 
L 360.147534 -376.122646 
L 358.901742 -374.512773 
L 357.655949 -372.095889 
L 356.410157 -374.016712 
L 355.164364 -371.991647 
L 353.918571 -366.616828 
L 352.672779 -362.707933 
L 351.426986 -359.536303 
L 350.181194 -358.533113 
L 348.935401 -361.521966 
L 347.689609 -366.953562 
L 346.443816 -369.773518 
L 345.198023 -367.668893 
L 343.952231 -366.159209 
L 342.706438 -366.9114 
L 341.460646 -366.758309 
L 340.214853 -366.162008 
L 338.969061 -365.073716 
L 337.723268 -362.375909 
L 336.477476 -360.686301 
L 335.231683 -359.8912 
L 333.98589 -361.1554 
L 332.740098 -359.573378 
L 331.494305 -357.310394 
L 330.248513 -355.850308 
L 329.00272 -357.100465 
L 327.756928 -359.446179 
L 326.511135 -364.63195 
L 325.265342 -364.96198 
L 324.01955 -362.968358 
L 322.773757 -360.15532 
L 321.527965 -357.69916 
L 320.282172 -353.995801 
L 319.03638 -353.804867 
L 317.790587 -355.012504 
L 316.544795 -355.161721 
L 315.299002 -353.640901 
L 314.053209 -352.427048 
L 312.807417 -351.936651 
L 311.561624 -351.015631 
L 310.315832 -352.227123 
L 309.070039 -352.513976 
L 307.824247 -352.120315 
L 306.578454 -352.646076 
L 305.332661 -350.417549 
L 304.086869 -347.425837 
L 302.841076 -353.748337 
L 301.595284 -354.594603 
L 300.349491 -350.706443 
L 299.103699 -346.115344 
L 297.857906 -342.114845 
L 296.612114 -339.92641 
L 295.366321 -340.034077 
L 294.120528 -339.308096 
L 292.874736 -339.479191 
L 291.628943 -341.954447 
L 290.383151 -343.001462 
L 289.137358 -343.420193 
L 287.891566 -342.553957 
L 286.645773 -340.002144 
L 285.39998 -339.485752 
L 284.154188 -340.93399 
L 282.908395 -341.91216 
L 281.662603 -342.45882 
L 280.41681 -343.921539 
L 279.171018 -342.790619 
L 277.925225 -337.765116 
L 276.679432 -334.758971 
L 275.43364 -334.574427 
L 274.187847 -332.023047 
L 272.942055 -330.382273 
L 271.696262 -327.366976 
L 270.45047 -325.431456 
L 269.204677 -324.554301 
L 267.958885 -325.815271 
L 266.713092 -326.525617 
L 265.467299 -324.509144 
L 264.221507 -324.572332 
L 262.975714 -328.761243 
L 261.729922 -331.106323 
L 260.484129 -328.09359 
L 259.238337 -324.353673 
L 257.992544 -322.327568 
L 256.746751 -321.535347 
L 255.500959 -321.133413 
L 254.255166 -319.562568 
L 253.009374 -314.834564 
L 251.763581 -312.501685 
L 250.517789 -310.539239 
L 249.271996 -314.434184 
L 248.026204 -313.478696 
L 246.780411 -308.535539 
L 245.534618 -312.116071 
L 244.288826 -313.864928 
L 243.043033 -313.511219 
L 241.797241 -314.571707 
L 240.551448 -314.435666 
L 239.305656 -312.535697 
L 238.059863 -308.815212 
L 236.81407 -305.343884 
L 235.568278 -302.199875 
L 234.322485 -299.576199 
L 233.076693 -295.024859 
L 231.8309 -289.539875 
L 230.585108 -287.009308 
L 229.339315 -286.82079 
L 228.093523 -288.436649 
L 226.84773 -289.179806 
L 225.601937 -289.749102 
L 224.356145 -287.400104 
L 223.110352 -281.499104 
L 221.86456 -280.145991 
L 220.618767 -278.005389 
L 219.372975 -279.556086 
L 218.127182 -278.203696 
L 216.881389 -277.535336 
L 215.635597 -271.936158 
L 214.389804 -266.305909 
L 213.144012 -266.807651 
L 211.898219 -262.674742 
L 210.652427 -261.090193 
L 209.406634 -256.122887 
L 208.160841 -250.084562 
L 206.915049 -249.452712 
L 205.669256 -250.665582 
L 204.423464 -250.403884 
L 203.177671 -249.719359 
L 201.931879 -247.753206 
L 200.686086 -244.596226 
L 199.440294 -241.298094 
L 198.194501 -238.792175 
L 196.948708 -237.14513 
L 195.702916 -231.820387 
L 194.457123 -226.875476 
L 193.211331 -222.400462 
L 191.965538 -221.65385 
L 190.719746 -220.22805 
L 189.473953 -217.488763 
L 188.22816 -210.233893 
L 186.982368 -204.856404 
L 185.736575 -203.356896 
L 184.490783 -198.922497 
L 183.24499 -194.348913 
L 181.999198 -188.620554 
L 180.753405 -183.661956 
L 179.507613 -180.791041 
L 178.26182 -179.480505 
L 177.016027 -179.17852 
L 175.770235 -177.961372 
L 174.524442 -174.662287 
L 173.27865 -170.25316 
L 172.032857 -166.616102 
L 170.787065 -162.414188 
L 169.541272 -158.616033 
L 168.295479 -156.857408 
L 167.049687 -155.64788 
L 165.803894 -150.929022 
L 164.558102 -150.184091 
L 163.312309 -148.387639 
L 162.066517 -146.230378 
L 160.820724 -142.227116 
L 159.574932 -137.125887 
L 158.329139 -133.162553 
L 157.083346 -129.593993 
L 155.837554 -127.636131 
L 154.591761 -124.794021 
L 153.345969 -121.302939 
L 152.100176 -119.755 
L 150.854384 -116.81319 
L 149.608591 -113.00767 
L 148.362798 -109.501298 
L 147.117006 -105.655927 
L 145.871213 -102.219045 
L 144.625421 -98.193372 
L 143.379628 -94.152564 
L 142.133836 -90.532607 
L 140.888043 -88.298839 
L 139.64225 -86.250103 
L 138.396458 -82.846848 
L 137.150665 -80.01912 
L 135.904873 -78.254026 
L 134.65908 -77.402318 
L 133.413288 -75.634751 
L 132.167495 -73.471967 
L 130.921703 -72.298215 
L 129.67591 -71.163753 
L 128.430117 -70.316876 
L 127.184325 -69.605233 
L 125.938532 -68.8278 
L 124.69274 -67.828593 
L 123.446947 -66.65823 
L 122.201155 -65.762747 
L 120.955362 -65.245599 
L 119.709569 -64.749993 
L 118.463777 -64.15852 
L 117.217984 -63.601048 
L 115.972192 -63.244532 
L 114.726399 -62.767379 
L 113.480607 -62.415549 
L 112.234814 -62.321101 
L 110.989022 -62.097917 
L 109.743229 -61.807887 
L 108.497436 -61.511979 
L 107.251644 -61.335864 
L 106.005851 -61.014554 
L 104.760059 -60.850128 
L 103.514266 -60.642771 
L 102.268474 -60.728821 
L 101.022681 -60.506906 
L 99.776888 -60.226098 
L 98.531096 -59.816913 
L 97.285303 -59.511786 
L 96.039511 -59.477515 
L 94.793718 -59.140612 
L 93.547926 -58.476794 
L 92.302133 -57.931518 
L 91.056341 -57.496929 
L 89.810548 -57.04261 
L 88.564755 -57.348742 
L 87.318963 -56.59587 
L 86.07317 -55.762026 
L 84.827378 -55.869382 
L 83.581585 -55.962022 
L 82.335793 -55.404813 
L 81.09 -55.778738 
z
" id="m734495e0f4" style="stroke:#007aff;stroke-opacity:0.2;"/>
    </defs>
    <g clip-path="url(#p6a87ddad6b)">
     <use style="fill:#007aff;fill-opacity:0.2;stroke:#007aff;stroke-opacity:0.2;" x="0" xlink:href="#m734495e0f4" y="451.44"/>
    </g>
   </g>
   <g id="line2d_25">
    <path clip-path="url(#p6a87ddad6b)" d="M 81.09 395.773161 
L 82.335793 396.93481 
L 83.581585 396.298263 
L 86.07317 396.133078 
L 87.318963 395.15476 
L 88.564755 394.563501 
L 89.810548 394.6044 
L 91.056341 394.425674 
L 92.302133 393.985383 
L 94.793718 392.692 
L 99.776888 391.351852 
L 103.514266 390.898458 
L 106.005851 390.57146 
L 108.497436 390.036832 
L 112.234814 389.214298 
L 114.726399 388.852879 
L 117.217984 388.133884 
L 122.201155 386.07029 
L 123.446947 385.407849 
L 129.67591 381.24867 
L 132.167495 378.731216 
L 133.413288 376.82373 
L 137.150665 371.857787 
L 138.396458 369.351786 
L 139.64225 366.291539 
L 142.133836 361.668431 
L 143.379628 358.458735 
L 147.117006 346.990826 
L 148.362798 342.630249 
L 150.854384 335.972798 
L 152.100176 333.444873 
L 153.345969 331.626569 
L 154.591761 328.707448 
L 157.083346 323.7107 
L 159.574932 316.260074 
L 162.066517 309.252604 
L 163.312309 307.176173 
L 164.558102 305.871583 
L 165.803894 304.769281 
L 167.049687 301.715454 
L 168.295479 300.547228 
L 169.541272 299.188444 
L 172.032857 292.552774 
L 174.524442 286.680856 
L 175.770235 284.129682 
L 177.016027 282.336967 
L 178.26182 281.559395 
L 179.507613 280.007295 
L 180.753405 276.73636 
L 184.490783 266.059472 
L 185.736575 263.97137 
L 186.982368 262.596932 
L 188.22816 259.244444 
L 189.473953 253.648934 
L 190.719746 250.105523 
L 191.965538 249.788357 
L 193.211331 248.197544 
L 194.457123 244.666871 
L 195.702916 241.896775 
L 196.948708 237.75409 
L 199.440294 234.359892 
L 200.686086 230.963545 
L 201.931879 229.360539 
L 203.177671 228.025376 
L 204.423464 225.931552 
L 205.669256 224.475266 
L 206.915049 224.220936 
L 208.160841 222.989727 
L 210.652427 214.100229 
L 211.898219 213.134627 
L 213.144012 211.090571 
L 214.389804 211.263836 
L 215.635597 207.803447 
L 216.881389 201.368111 
L 218.127182 197.909507 
L 219.372975 194.822777 
L 220.618767 195.156823 
L 221.86456 193.141695 
L 223.110352 191.685568 
L 225.601937 186.577339 
L 226.84773 185.797239 
L 228.093523 183.337073 
L 229.339315 181.446848 
L 233.076693 172.648331 
L 235.568278 163.560158 
L 238.059863 157.120669 
L 239.305656 153.845371 
L 240.551448 151.575433 
L 241.797241 151.514584 
L 243.043033 153.53375 
L 244.288826 153.850327 
L 245.534618 152.238009 
L 246.780411 151.299936 
L 248.026204 147.189058 
L 249.271996 146.377814 
L 250.517789 147.383774 
L 251.763581 148.182914 
L 253.009374 147.151762 
L 254.255166 143.477606 
L 255.500959 142.237351 
L 257.992544 140.591627 
L 259.238337 138.584431 
L 260.484129 134.318101 
L 261.729922 130.630791 
L 262.975714 131.084469 
L 264.221507 133.664239 
L 265.467299 134.475953 
L 267.958885 134.626442 
L 269.204677 133.152231 
L 271.696262 129.499259 
L 272.942055 127.279866 
L 274.187847 127.585745 
L 275.43364 128.207009 
L 276.679432 127.682744 
L 277.925225 125.601848 
L 279.171018 121.997607 
L 280.41681 120.147663 
L 281.662603 119.090483 
L 282.908395 119.495031 
L 284.154188 120.750708 
L 286.645773 120.641545 
L 287.891566 119.570417 
L 289.137358 117.281156 
L 290.383151 115.651186 
L 291.628943 115.61676 
L 292.874736 115.985164 
L 294.120528 115.362332 
L 295.366321 114.885423 
L 296.612114 114.703114 
L 297.857906 113.995197 
L 299.103699 111.75451 
L 300.349491 110.051218 
L 301.595284 108.028929 
L 302.841076 109.153973 
L 304.086869 111.318135 
L 305.332661 109.143315 
L 306.578454 107.459327 
L 307.824247 107.059629 
L 309.070039 107.236939 
L 310.315832 108.133433 
L 311.561624 109.520879 
L 312.807417 109.042111 
L 314.053209 108.303152 
L 316.544795 106.361534 
L 317.790587 105.673545 
L 319.03638 104.801644 
L 321.527965 101.202459 
L 322.773757 101.5541 
L 324.01955 99.617046 
L 325.265342 96.592705 
L 326.511135 95.793893 
L 327.756928 98.046867 
L 330.248513 97.242238 
L 331.494305 98.620704 
L 332.740098 98.9644 
L 333.98589 97.801095 
L 335.231683 97.92504 
L 336.477476 96.867219 
L 337.723268 94.056227 
L 338.969061 90.697564 
L 340.214853 89.464295 
L 341.460646 90.094774 
L 342.706438 90.873183 
L 343.952231 91.465492 
L 345.198023 89.714455 
L 346.443816 87.490292 
L 347.689609 89.057227 
L 348.935401 92.175906 
L 350.181194 94.355829 
L 351.426986 93.486981 
L 352.672779 91.785638 
L 353.918571 89.165039 
L 355.164364 85.304007 
L 356.410157 84.371129 
L 357.655949 87.43367 
L 358.901742 87.303076 
L 360.147534 87.31532 
L 361.393327 86.498966 
L 362.639119 87.267843 
L 363.884912 88.540518 
L 366.376497 88.774838 
L 367.62229 88.300116 
L 368.868082 86.909991 
L 370.113875 85.165456 
L 371.359667 83.970054 
L 372.60546 83.935234 
L 373.851252 83.111226 
L 375.097045 80.474066 
L 376.342838 78.634661 
L 377.58863 78.118499 
L 378.834423 78.436482 
L 380.080215 80.037588 
L 381.326008 81.287096 
L 382.5718 80.698998 
L 383.817593 80.614492 
L 385.063386 79.951429 
L 386.309178 78.85495 
L 387.554971 77.248355 
L 388.800763 78.450753 
L 390.046556 82.328994 
L 391.292348 84.455739 
L 392.538141 84.284294 
L 393.783933 82.796257 
L 395.029726 81.915315 
L 397.521311 81.22406 
L 398.767104 80.424531 
L 400.012896 78.196806 
L 401.258689 75.703582 
L 402.504481 74.804305 
L 403.750274 75.041358 
L 404.996067 75.57933 
L 406.241859 75.943878 
L 407.487652 75.82124 
L 408.733444 75.173515 
L 411.225029 73.209638 
L 412.470822 73.688793 
L 413.716614 75.659769 
L 414.962407 74.487134 
L 416.2082 74.155118 
L 417.453992 75.1161 
L 418.699785 74.970165 
L 419.945577 73.805088 
L 421.19137 74.87071 
L 422.437162 76.358613 
L 423.682955 76.639278 
L 424.928748 76.245262 
L 427.420333 78.403445 
L 428.666125 76.909096 
L 429.911918 73.402154 
L 431.15771 71.19003 
L 432.403503 71.844569 
L 433.649295 72.962216 
L 434.895088 73.39338 
L 436.140881 71.31197 
L 437.386673 70.537789 
L 438.632466 74.17508 
L 439.878258 74.95527 
L 441.124051 74.413845 
L 442.369843 74.270367 
L 443.615636 75.951567 
L 444.861429 74.205956 
L 446.107221 71.602964 
L 447.353014 70.995716 
L 448.598806 73.982861 
L 449.844599 74.641542 
L 451.090391 72.008432 
L 452.336184 71.318824 
L 453.581977 71.221721 
L 454.827769 69.721881 
L 456.073562 68.612254 
L 457.319354 69.160414 
L 458.565147 69.442124 
L 459.810939 68.336511 
L 461.056732 68.708601 
L 463.548317 69.795071 
L 464.79411 70.061233 
L 466.039902 69.984502 
L 467.285695 70.037675 
L 468.531487 69.796366 
L 469.77728 71.08031 
L 471.023072 73.16183 
L 472.268865 70.892923 
L 473.514658 68.894411 
L 474.76045 67.956666 
L 476.006243 68.759582 
L 477.252035 70.133121 
L 478.497828 69.087649 
L 479.74362 67.069688 
L 480.989413 65.843756 
L 482.235205 65.371986 
L 483.480998 65.548828 
L 485.972583 66.435664 
L 487.218376 67.118814 
L 488.464168 66.955176 
L 489.709961 66.40777 
L 490.955753 65.446479 
L 494.693131 63.166868 
L 495.938924 64.963798 
L 497.184716 65.837273 
L 498.430509 66.853756 
L 499.676301 64.519469 
L 500.922094 62.651067 
L 502.167886 60.397268 
L 503.413679 58.62761 
L 504.659472 57.390516 
L 505.905264 57.332782 
L 507.151057 58.791424 
L 508.396849 60.550233 
L 509.642642 63.377603 
L 510.888434 65.374105 
L 512.134227 63.677495 
L 513.38002 60.535806 
L 514.625812 59.365578 
L 515.871605 59.582706 
L 517.117397 59.339309 
L 518.36319 58.622424 
L 519.608982 59.662097 
L 520.854775 61.535757 
L 522.100568 63.047228 
L 523.34636 61.49011 
L 524.592153 60.957398 
L 525.837945 59.838825 
L 527.083738 61.258297 
L 528.32953 61.233832 
L 529.575323 61.532624 
L 530.821115 63.03578 
L 532.066908 63.168321 
L 533.312701 62.214155 
L 534.558493 60.282245 
L 535.804286 60.545667 
L 537.050078 62.398818 
L 538.295871 62.60644 
L 539.541663 61.354836 
L 540.787456 60.748045 
L 542.033249 61.045619 
L 543.279041 61.146476 
L 544.524834 60.130098 
L 545.770626 58.802974 
L 547.016419 58.620879 
L 548.262211 59.756685 
L 549.508004 58.742924 
L 550.753796 58.295484 
L 551.999589 58.936533 
L 553.245382 57.403805 
L 554.491174 57.621415 
L 555.736967 58.48075 
L 556.982759 58.247719 
L 558.228552 58.605156 
L 559.474344 59.552701 
L 560.720137 62.019454 
L 564.457515 59.195888 
L 565.703307 56.561435 
L 566.9491 54.796238 
L 568.194892 55.853148 
L 569.440685 57.092342 
L 570.686477 57.095449 
L 571.93227 57.29796 
L 573.178063 57.236335 
L 574.423855 58.466519 
L 575.669648 58.03397 
L 576.91544 58.180953 
L 578.161233 57.011474 
L 579.407025 54.742024 
L 580.652818 55.479296 
L 581.898611 57.485275 
L 584.390196 55.824288 
L 585.635988 53.24866 
L 586.881781 54.353676 
L 588.127573 55.614801 
L 589.373366 56.06348 
L 590.619159 55.555933 
L 591.864951 56.100147 
L 593.110744 56.298679 
L 594.356536 55.877006 
L 596.848121 55.971867 
L 598.093914 56.110439 
L 599.339706 54.73095 
L 600.585499 52.939143 
L 601.831292 49.681189 
L 603.077084 49.318935 
L 604.322877 52.311782 
L 605.568669 53.357929 
L 606.814462 50.952492 
L 608.060254 52.088371 
L 609.306047 52.929422 
L 610.55184 53.589433 
L 611.797632 54.472875 
L 613.043425 54.110528 
L 614.289217 53.152408 
L 615.53501 53.8406 
L 616.780802 54.813088 
L 618.026595 54.995715 
L 619.272387 54.6592 
L 621.763973 54.381506 
L 623.009765 54.081352 
L 624.255558 54.323423 
L 625.50135 55.579139 
L 626.747143 57.040378 
L 627.992935 57.168625 
L 629.238728 56.228654 
L 630.484521 54.85988 
L 631.730313 52.841225 
L 632.976106 53.01539 
L 634.221898 53.914147 
L 635.467691 58.558347 
L 636.713483 57.837716 
L 639.205068 54.174977 
L 640.450861 53.031305 
L 641.696654 51.479868 
L 642.942446 50.518809 
L 644.188239 50.280169 
L 645.434031 51.92028 
L 646.679824 54.358124 
L 647.925616 55.414985 
L 649.171409 56.245866 
L 650.417202 56.742328 
L 651.662994 56.367153 
L 652.908787 56.356467 
L 655.400372 54.60026 
L 657.891957 51.496063 
L 659.13775 51.479797 
L 661.629335 52.01813 
L 662.875127 51.016835 
L 664.12092 53.189913 
L 665.366712 57.046645 
L 666.612505 59.287333 
L 667.858297 55.400486 
L 669.10409 51.983811 
L 670.349883 52.757206 
L 671.595675 53.255105 
L 672.841468 53.236052 
L 674.08726 53.032166 
L 676.578845 53.373354 
L 677.824638 52.735928 
L 679.070431 51.849045 
L 680.316223 51.227105 
L 682.807808 49.327904 
L 684.053601 49.162426 
L 685.299393 50.184163 
L 686.545186 50.777181 
L 687.790978 48.895499 
L 689.036771 50.217053 
L 690.282564 54.247154 
L 691.528356 55.154089 
L 692.774149 52.573294 
L 694.019941 50.888772 
L 695.265734 51.080431 
L 696.511526 52.573829 
L 699.003112 56.16331 
L 700.248904 57.456316 
L 701.494697 57.30735 
L 703.986282 53.215013 
L 705.232074 51.878325 
L 706.477867 51.075709 
L 707.723659 51.388878 
L 708.969452 50.772828 
L 710.215245 48.967596 
L 711.461037 48.34123 
L 712.70683 49.979718 
L 713.952622 48.984139 
L 715.198415 49.712041 
L 716.444207 50.716342 
L 717.69 55.015924 
L 717.69 55.015924 
" style="fill:none;stroke:#007aff;stroke-linecap:round;stroke-width:1.5;"/>
   </g>
   <g id="patch_3">
    <path d="M 49.26 415.5675 
L 49.26 25.44 
" style="fill:none;stroke:#cccccc;stroke-linecap:square;stroke-linejoin:miter;"/>
   </g>
   <g id="patch_4">
    <path d="M 749.52 415.5675 
L 749.52 25.44 
" style="fill:none;stroke:#cccccc;stroke-linecap:square;stroke-linejoin:miter;"/>
   </g>
   <g id="patch_5">
    <path d="M 49.26 415.5675 
L 749.52 415.5675 
" style="fill:none;stroke:#cccccc;stroke-linecap:square;stroke-linejoin:miter;"/>
   </g>
   <g id="patch_6">
    <path d="M 49.26 25.44 
L 749.52 25.44 
" style="fill:none;stroke:#cccccc;stroke-linecap:square;stroke-linejoin:miter;"/>
   </g>
   <g id="text_15">
    <!-- Ant-v2 -->
    <defs>
     <path d="M -0.140625 0 
L 27.34375 71.578125 
L 37.546875 71.578125 
L 66.84375 0 
L 56.0625 0 
L 47.703125 21.6875 
L 17.78125 21.6875 
L 9.90625 0 
z
M 20.515625 29.390625 
L 44.78125 29.390625 
L 37.3125 49.21875 
Q 33.890625 58.25 32.234375 64.0625 
Q 30.859375 57.171875 28.375 50.390625 
z
" id="ArialMT-65"/>
     <path d="M 6.59375 0 
L 6.59375 51.859375 
L 14.5 51.859375 
L 14.5 44.484375 
Q 20.21875 53.03125 31 53.03125 
Q 35.6875 53.03125 39.625 51.34375 
Q 43.5625 49.65625 45.515625 46.921875 
Q 47.46875 44.1875 48.25 40.4375 
Q 48.734375 37.984375 48.734375 31.890625 
L 48.734375 0 
L 39.9375 0 
L 39.9375 31.546875 
Q 39.9375 36.921875 38.90625 39.578125 
Q 37.890625 42.234375 35.28125 43.8125 
Q 32.671875 45.40625 29.15625 45.40625 
Q 23.53125 45.40625 19.453125 41.84375 
Q 15.375 38.28125 15.375 28.328125 
L 15.375 0 
z
" id="ArialMT-110"/>
     <path d="M 3.171875 21.484375 
L 3.171875 30.328125 
L 30.171875 30.328125 
L 30.171875 21.484375 
z
" id="ArialMT-45"/>
     <path d="M 21 0 
L 1.265625 51.859375 
L 10.546875 51.859375 
L 21.6875 20.796875 
Q 23.484375 15.765625 25 10.359375 
Q 26.171875 14.453125 28.265625 20.21875 
L 39.796875 51.859375 
L 48.828125 51.859375 
L 29.203125 0 
z
" id="ArialMT-118"/>
    </defs>
    <g style="fill:#262626;" transform="translate(382.05 19.44)scale(0.12 -0.12)">
     <use xlink:href="#ArialMT-65"/>
     <use x="66.699219" xlink:href="#ArialMT-110"/>
     <use x="122.314453" xlink:href="#ArialMT-116"/>
     <use x="150.097656" xlink:href="#ArialMT-45"/>
     <use x="183.398438" xlink:href="#ArialMT-118"/>
     <use x="233.398438" xlink:href="#ArialMT-50"/>
    </g>
   </g>
   <g id="legend_1">
    <g id="line2d_26">
     <path d="M 691.40125 38.097812 
L 711.40125 38.097812 
" style="fill:none;stroke:#007aff;stroke-linecap:round;stroke-width:1.5;"/>
    </g>
    <g id="line2d_27"/>
    <g id="text_16">
     <!-- PPO -->
     <defs>
      <path d="M 7.71875 0 
L 7.71875 71.578125 
L 34.71875 71.578125 
Q 41.84375 71.578125 45.609375 70.90625 
Q 50.875 70.015625 54.4375 67.546875 
Q 58.015625 65.09375 60.1875 60.640625 
Q 62.359375 56.203125 62.359375 50.875 
Q 62.359375 41.75 56.546875 35.421875 
Q 50.734375 29.109375 35.546875 29.109375 
L 17.1875 29.109375 
L 17.1875 0 
z
M 17.1875 37.546875 
L 35.6875 37.546875 
Q 44.875 37.546875 48.734375 40.96875 
Q 52.59375 44.390625 52.59375 50.59375 
Q 52.59375 55.078125 50.3125 58.265625 
Q 48.046875 61.46875 44.34375 62.5 
Q 41.9375 63.140625 35.5 63.140625 
L 17.1875 63.140625 
z
" id="ArialMT-80"/>
      <path d="M 4.828125 34.859375 
Q 4.828125 52.6875 14.390625 62.765625 
Q 23.96875 72.859375 39.109375 72.859375 
Q 49.03125 72.859375 56.984375 68.109375 
Q 64.9375 63.375 69.109375 54.90625 
Q 73.296875 46.4375 73.296875 35.6875 
Q 73.296875 24.8125 68.890625 16.21875 
Q 64.5 7.625 56.4375 3.203125 
Q 48.390625 -1.21875 39.0625 -1.21875 
Q 28.953125 -1.21875 20.984375 3.65625 
Q 13.03125 8.546875 8.921875 16.984375 
Q 4.828125 25.4375 4.828125 34.859375 
z
M 14.59375 34.71875 
Q 14.59375 21.78125 21.546875 14.328125 
Q 28.515625 6.890625 39.015625 6.890625 
Q 49.703125 6.890625 56.609375 14.40625 
Q 63.53125 21.921875 63.53125 35.75 
Q 63.53125 44.484375 60.578125 51 
Q 57.625 57.515625 51.921875 61.109375 
Q 46.234375 64.703125 39.15625 64.703125 
Q 29.109375 64.703125 21.84375 57.78125 
Q 14.59375 50.875 14.59375 34.71875 
z
" id="ArialMT-79"/>
     </defs>
     <g style="fill:#262626;" transform="translate(719.40125 41.597812)scale(0.1 -0.1)">
      <use xlink:href="#ArialMT-80"/>
      <use x="66.699219" xlink:href="#ArialMT-80"/>
      <use x="133.398438" xlink:href="#ArialMT-79"/>
     </g>
    </g>
   </g>
  </g>
 </g>
 <defs>
  <clipPath id="p6a87ddad6b">
   <rect height="390.1275" width="700.26" x="49.26" y="25.44"/>
  </clipPath>
 </defs>
</svg>
