<svg viewBox="0 0 1641 400" xmlns="http://www.w3.org/2000/svg"><g><g><g><g><g><line x1="70" y1="378" x2="65" y2="378" style="visibility: inherit;" fill="rgb(0, 0, 0)" stroke="rgb(204, 204, 204)" stroke-width="1px"></line><line x1="70" y1="346.5" x2="65" y2="346.5" style="visibility: inherit;" fill="rgb(0, 0, 0)" stroke="rgb(204, 204, 204)" stroke-width="1px"></line><line x1="70" y1="315" x2="65" y2="315" style="visibility: inherit;" fill="rgb(0, 0, 0)" stroke="rgb(204, 204, 204)" stroke-width="1px"></line><line x1="70" y1="283.5" x2="65" y2="283.5" style="visibility: inherit;" fill="rgb(0, 0, 0)" stroke="rgb(204, 204, 204)" stroke-width="1px"></line><line x1="70" y1="252" x2="65" y2="252" style="visibility: inherit;" fill="rgb(0, 0, 0)" stroke="rgb(204, 204, 204)" stroke-width="1px"></line><line x1="70" y1="220.5" x2="65" y2="220.5" style="visibility: inherit;" fill="rgb(0, 0, 0)" stroke="rgb(204, 204, 204)" stroke-width="1px"></line><line x1="70" y1="189" x2="65" y2="189" style="visibility: inherit;" fill="rgb(0, 0, 0)" stroke="rgb(204, 204, 204)" stroke-width="1px"></line><line x1="70" y1="157.5" x2="65" y2="157.5" style="visibility: inherit;" fill="rgb(0, 0, 0)" stroke="rgb(204, 204, 204)" stroke-width="1px"></line><line x1="70" y1="126" x2="65" y2="126" style="visibility: inherit;" fill="rgb(0, 0, 0)" stroke="rgb(204, 204, 204)" stroke-width="1px"></line><line x1="70" y1="94.5" x2="65" y2="94.5" style="visibility: inherit;" fill="rgb(0, 0, 0)" stroke="rgb(204, 204, 204)" stroke-width="1px"></line><line x1="70" y1="63" x2="65" y2="63" style="visibility: inherit;" fill="rgb(0, 0, 0)" stroke="rgb(204, 204, 204)" stroke-width="1px"></line><line x1="70" y1="31.5" x2="65" y2="31.5" style="visibility: inherit;" fill="rgb(0, 0, 0)" stroke="rgb(204, 204, 204)" stroke-width="1px"></line><line x1="70" y1="0" x2="65" y2="0" style="visibility: inherit;" fill="rgb(0, 0, 0)" stroke="rgb(204, 204, 204)" stroke-width="1px"></line></g><g transform="translate(60, 0)"><text x="0" y="378" dx="0em" dy="0.3em" style="text-anchor: end; visibility: hidden; font-family: &quot;Helvetica Neue&quot;, sans-serif; font-size: 12px; font-weight: 200;" fill="rgb(50, 49, 63)" stroke="none" stroke-width="1px">-100</text><text x="0" y="346.5" dx="0em" dy="0.3em" style="text-anchor: end; visibility: inherit; font-family: &quot;Helvetica Neue&quot;, sans-serif; font-size: 12px; font-weight: 200;" fill="rgb(50, 49, 63)" stroke="none" stroke-width="1px">0</text><text x="0" y="315" dx="0em" dy="0.3em" style="text-anchor: end; visibility: inherit; font-family: &quot;Helvetica Neue&quot;, sans-serif; font-size: 12px; font-weight: 200;" fill="rgb(50, 49, 63)" stroke="none" stroke-width="1px">100</text><text x="0" y="283.5" dx="0em" dy="0.3em" style="text-anchor: end; visibility: inherit; font-family: &quot;Helvetica Neue&quot;, sans-serif; font-size: 12px; font-weight: 200;" fill="rgb(50, 49, 63)" stroke="none" stroke-width="1px">200</text><text x="0" y="252" dx="0em" dy="0.3em" style="text-anchor: end; visibility: inherit; font-family: &quot;Helvetica Neue&quot;, sans-serif; font-size: 12px; font-weight: 200;" fill="rgb(50, 49, 63)" stroke="none" stroke-width="1px">300</text><text x="0" y="220.5" dx="0em" dy="0.3em" style="text-anchor: end; visibility: inherit; font-family: &quot;Helvetica Neue&quot;, sans-serif; font-size: 12px; font-weight: 200;" fill="rgb(50, 49, 63)" stroke="none" stroke-width="1px">400</text><text x="0" y="189" dx="0em" dy="0.3em" style="text-anchor: end; visibility: inherit; font-family: &quot;Helvetica Neue&quot;, sans-serif; font-size: 12px; font-weight: 200;" fill="rgb(50, 49, 63)" stroke="none" stroke-width="1px">500</text><text x="0" y="157.5" dx="0em" dy="0.3em" style="text-anchor: end; visibility: inherit; font-family: &quot;Helvetica Neue&quot;, sans-serif; font-size: 12px; font-weight: 200;" fill="rgb(50, 49, 63)" stroke="none" stroke-width="1px">600</text><text x="0" y="126" dx="0em" dy="0.3em" style="text-anchor: end; visibility: inherit; font-family: &quot;Helvetica Neue&quot;, sans-serif; font-size: 12px; font-weight: 200;" fill="rgb(50, 49, 63)" stroke="none" stroke-width="1px">700</text><text x="0" y="94.5" dx="0em" dy="0.3em" style="text-anchor: end; visibility: inherit; font-family: &quot;Helvetica Neue&quot;, sans-serif; font-size: 12px; font-weight: 200;" fill="rgb(50, 49, 63)" stroke="none" stroke-width="1px">800</text><text x="0" y="63" dx="0em" dy="0.3em" style="text-anchor: end; visibility: inherit; font-family: &quot;Helvetica Neue&quot;, sans-serif; font-size: 12px; font-weight: 200;" fill="rgb(50, 49, 63)" stroke="none" stroke-width="1px">900</text><text x="0" y="31.5" dx="0em" dy="0.3em" style="text-anchor: end; visibility: inherit; font-family: &quot;Helvetica Neue&quot;, sans-serif; font-size: 12px; font-weight: 200;" fill="rgb(50, 49, 63)" stroke="none" stroke-width="1px">1e+3</text><text x="0" y="0" dx="0em" dy="0.3em" style="text-anchor: end; visibility: hidden; font-family: &quot;Helvetica Neue&quot;, sans-serif; font-size: 12px; font-weight: 200;" fill="rgb(50, 49, 63)" stroke="none" stroke-width="1px">1.1e+3</text></g><line x1="70" y1="0" x2="70" y2="378" fill="rgb(0, 0, 0)" stroke="rgb(204, 204, 204)" stroke-width="1px"></line></g></g><g transform="translate(70, 0)" clip-path="url(#clip_0)"><clipPath id="clip_0"><rect width="1571" height="378"></rect></clipPath><g><g><g><line x1="0" y1="0" x2="0" y2="378" fill="rgb(0, 0, 0)" stroke="rgb(60, 60, 60)" stroke-width="1px" opacity="0.25"></line><line x1="157.10000000000002" y1="0" x2="157.10000000000002" y2="378" fill="rgb(0, 0, 0)" stroke="rgb(60, 60, 60)" stroke-width="1px" opacity="0.25"></line><line x1="314.20000000000005" y1="0" x2="314.20000000000005" y2="378" fill="rgb(0, 0, 0)" stroke="rgb(60, 60, 60)" stroke-width="1px" opacity="0.25"></line><line x1="471.29999999999995" y1="0" x2="471.29999999999995" y2="378" fill="rgb(0, 0, 0)" stroke="rgb(60, 60, 60)" stroke-width="1px" opacity="0.25"></line><line x1="628.4000000000001" y1="0" x2="628.4000000000001" y2="378" fill="rgb(0, 0, 0)" stroke="rgb(60, 60, 60)" stroke-width="1px" opacity="0.25"></line><line x1="785.5" y1="0" x2="785.5" y2="378" fill="rgb(0, 0, 0)" stroke="rgb(60, 60, 60)" stroke-width="1px" opacity="0.25"></line><line x1="942.5999999999999" y1="0" x2="942.5999999999999" y2="378" fill="rgb(0, 0, 0)" stroke="rgb(60, 60, 60)" stroke-width="1px" opacity="0.25"></line><line x1="1099.6999999999998" y1="0" x2="1099.6999999999998" y2="378" fill="rgb(0, 0, 0)" stroke="rgb(60, 60, 60)" stroke-width="1px" opacity="0.25"></line><line x1="1256.8000000000002" y1="0" x2="1256.8000000000002" y2="378" fill="rgb(0, 0, 0)" stroke="rgb(60, 60, 60)" stroke-width="1px" opacity="0.25"></line><line x1="1413.9" y1="0" x2="1413.9" y2="378" fill="rgb(0, 0, 0)" stroke="rgb(60, 60, 60)" stroke-width="1px" opacity="0.25"></line><line x1="1571" y1="0" x2="1571" y2="378" fill="rgb(0, 0, 0)" stroke="rgb(60, 60, 60)" stroke-width="1px" opacity="0.25"></line></g><g><line x1="0" y1="378" x2="1571" y2="378" fill="rgb(0, 0, 0)" stroke="rgb(60, 60, 60)" stroke-width="1px" opacity="0.25"></line><line x1="0" y1="346.5" x2="1571" y2="346.5" fill="rgb(0, 0, 0)" stroke="rgb(60, 60, 60)" stroke-width="1px" opacity="0.25"></line><line x1="0" y1="315" x2="1571" y2="315" fill="rgb(0, 0, 0)" stroke="rgb(60, 60, 60)" stroke-width="1px" opacity="0.25"></line><line x1="0" y1="283.5" x2="1571" y2="283.5" fill="rgb(0, 0, 0)" stroke="rgb(60, 60, 60)" stroke-width="1px" opacity="0.25"></line><line x1="0" y1="252" x2="1571" y2="252" fill="rgb(0, 0, 0)" stroke="rgb(60, 60, 60)" stroke-width="1px" opacity="0.25"></line><line x1="0" y1="220.5" x2="1571" y2="220.5" fill="rgb(0, 0, 0)" stroke="rgb(60, 60, 60)" stroke-width="1px" opacity="0.25"></line><line x1="0" y1="189" x2="1571" y2="189" fill="rgb(0, 0, 0)" stroke="rgb(60, 60, 60)" stroke-width="1px" opacity="0.25"></line><line x1="0" y1="157.5" x2="1571" y2="157.5" fill="rgb(0, 0, 0)" stroke="rgb(60, 60, 60)" stroke-width="1px" opacity="0.25"></line><line x1="0" y1="126" x2="1571" y2="126" fill="rgb(0, 0, 0)" stroke="rgb(60, 60, 60)" stroke-width="1px" opacity="0.25"></line><line x1="0" y1="94.5" x2="1571" y2="94.5" fill="rgb(0, 0, 0)" stroke="rgb(60, 60, 60)" stroke-width="1px" opacity="0.25"></line><line x1="0" y1="63" x2="1571" y2="63" fill="rgb(0, 0, 0)" stroke="rgb(60, 60, 60)" stroke-width="1px" opacity="0.25"></line><line x1="0" y1="31.5" x2="1571" y2="31.5" fill="rgb(0, 0, 0)" stroke="rgb(60, 60, 60)" stroke-width="1px" opacity="0.25"></line><line x1="0" y1="0" x2="1571" y2="0" fill="rgb(0, 0, 0)" stroke="rgb(60, 60, 60)" stroke-width="1px" opacity="0.25"></line></g></g></g><g><g><line x1="0" y1="346.5" x2="1571" y2="346.5" fill="rgb(0, 0, 0)" stroke="rgb(153, 153, 153)" stroke-width="1.5px"></line></g></g><g><g><line x1="157.10000000000002" y1="0" x2="157.10000000000002" y2="378" fill="rgb(0, 0, 0)" stroke="rgb(153, 153, 153)" stroke-width="1.5px"></line></g></g><g><g><g><g><g><path stroke="rgb(204, 51, 17)" stroke-width="2px" d="M157.75982,346.0463999819756L158.57674,345.9617437423021L159.72357,345.73734642173565L160.69759000000002,344.7553053382324L160.77614,344.18404170952556L161.38883,343.2981634512448L161.93868,341.9519117348286L161.9701,340.90597934506434L162.09578,339.9594791037953L164.54654,336.22919201575223L165.52056,333.26129768004586L166.19609,332.19460684652387L166.30606,330.9776144583595L167.06014000000002,328.1791555322621L167.26436999999999,326.85003815761206L168.31694,326.0025533868253L168.44262,325.14639738264907L169.79368,321.00677808693746L170.23355999999998,317.5832584289183L173.02994,312.41948641547333L173.84686,307.8244305863453L174.44384,302.5253777588237L175.6378,299.38379138381134L176.91031,297.7338472429352L177.77436,299.35083348122964L177.82149,300.5572726850327L178.04143,300.25864315156656L178.10426999999999,300.465656171874L178.85835,298.7471132237246L178.96831999999998,298.2817286772977L179.65956,298.1240875699899L181.48192,296.2358926993361L183.66561,292.35113620313984L184.34114,289.34996148208813L184.38827,287.8806373254199L186.06924,288.869513020686L186.58767,288.47247834828454L187.21607,287.3862761589902L189.08556,282.62380483883646L190.02815999999999,277.45989297330334L191.64629,273.22439662653215L192.63602,269.50310812793714L193.34297,265.0262753368954L194.63119,260.9308659704707L195.36956,257.7736912738488L196.13935,252.49061399493684L196.15506,249.3207676278005L196.34358,248.01421057665095L196.87771999999998,247.58748526932467L199.28134999999997,243.8009314691814L200.14540000000002,241.25179765102774L203.71157000000002,236.11934720632433L204.82698,230.43293663189016L206.75931,228.82352320960115L207.8433,227.54854300290833L208.09466,226.83269672459627L208.11037000000002,226.21670757333186L209.02155,224.22045362114727L213.93877999999998,221.3387124803053L213.97019999999998,219.61218641152294L214.7557,219.0777521545309L215.87111000000002,218.14977067748416L217.01794,216.496784098385L217.12790999999999,215.58563015141385L218.80888,214.8814377832311L219.24875999999998,212.8221835927902L220.50556000000003,209.77726907901396L221.47958,208.29871221645132L223.01916,207.13878702225364L223.58472,207.3267237514381L224.92006999999998,207.10810517371445L226.224,206.26755341184588L227.66932,206.11917389281064L227.93639,206.42704541234656L230.43428,205.35239893930245L230.55996,204.19856997881587L232.31948000000003,202.72444044920357L232.53942,201.77381350047918L235.19441,202.08921717743596L237.31526,203.13778030646154L237.75514,204.9607689529199L241.06995,199.3116702950918L241.28989,196.09735294609806L244.27479,194.75592299812757L246.31709,193.00606502934528L247.00833,191.78668009426733L248.34368,189.74527667228304L249.22344,190.2472667724128L249.33341,190.98693837155315L249.89897,190.47377117722877L251.20289999999997,190.77004255252865L254.502,186.1434286076891L254.80049,183.95840054840252L255.90019,184.26144340521336L257.26696,180.36212727359677L260.37754,175.09807482607218L260.83313000000004,171.62779643372923L262.34129,172.20548755262038L262.52981,173.24762468489251L264.77634,169.5164554261699L266.53586,166.2199814099988L268.86093999999997,165.16127253740552L269.50505000000004,163.62892013865425L273.07122,166.23373269842693L274.2966,165.61303808097023L274.34373,165.36032284858214L274.57937999999996,166.19779063297744L275.09781,165.2582080711927L279.44948,158.52864115130936L279.60658,154.37372192223094L280.15643,150.88915100001824L282.63860999999997,151.58364367618282L283.81685999999996,150.90413774379562L285.6078,148.38593418436332L286.25191,146.69546358678986L288.48273,145.04739753683953L288.56128,145.0413563687834L288.70266999999996,145.07931382127003L290.60358,144.73857706229325L290.76068,145.33045592975878L292.22171000000003,145.7183444807068L296.57338,146.2383536122522L297.35888,146.23221370543723L297.46885,145.50592160705142L298.38003,143.35087388708243L302.5746,137.41663248654632L305.84227999999996,136.48066979954496L307.19334,136.49365187972697L307.39757000000003,136.77927328115652L309.1728,137.75200427631106L309.45558,139.60572502672414L311.73353,138.72778193986264L312.73897,137.9175160877457L318.53596,137.5712224212021L318.64593,137.32249468319006L320.46829,134.83217588706245L321.72509,134.37433922364374L322.40062,135.23300661035807L323.73597,135.6618973500039L324.47434,135.67919810238516L326.09247,134.71748517002487L326.10818,134.14045741060866L326.4538,134.5200019854277L327.5535,140.26715780746756L328.37042,141.93696253116022L328.41755,142.91994997963363L329.01453000000004,142.6768766039911L329.37586000000005,143.44831627001184L329.50154000000003,143.43994130009307L330.2242,141.67784539529023L331.51242,134.90837508385383L331.81091000000004,130.60792812648418L336.49249,134.1046374911249L337.32511999999997,138.17456618608117L337.63932,138.93694124973462L338.12633,139.97396321175486L338.26772,139.40106823467005L338.80186,138.6969730941224L340.67134999999996,136.8047210879187L341.83389,133.32829542130594L345.13299,126.04304817563508L345.21154,121.76387736729515L347.78798,125.12152795846299L348.19644,128.6594540065231L350.17589999999996,129.61356424961699L356.16141,131.89143701168425L359.39767,130.48805251462775L360.37169,129.04941366209698L361.86413999999996,129.1337451210863L362.28831,130.20431799550332L362.61822,131.5528892592161L362.80674,131.8901626326781L363.04239,131.5620638882006L367.64542,130.63377556436566L369.24784,129.55390718432253L369.90766,128.35095246489036L370.70887000000005,128.14641486272328L371.0702,129.5508116861887L371.99709,130.29642731933038L374.0551,129.40630792968417L375.21764,126.33900106640425L378.29679999999996,122.61429248554569L380.51191,119.28074333800708L381.65873999999997,119.11895723327302L382.0672,117.79464680090132L382.34998,116.96163146432986L383.27687,116.85808703289479L384.06237,120.29561345020562L386.96872,119.74299868535775L387.06298,118.87340736551153L387.53428,118.29873472692407L387.67566999999997,117.29872960568571L387.83277,117.23674899388021L389.27809,115.7228366277734L389.41947999999996,115.42181013096092L389.74939,117.49848915474843L390.75483,124.40378380046624L391.05332,127.09040089551411L394.1639,123.54519207539443L395.5778,120.7634958604711L396.92886,121.9055378238998L397.84004000000004,125.95685638574614L400.18083,127.03503167812735L400.21225,127.70839962211076L400.71497000000005,129.11412192658676L404.3754,125.47573438642081L404.75244,124.39015694044625L408.35003,132.6911166252052L409.95245,127.35418120559189L410.28236,123.59321026144107L412.37179,119.59845984827086L413.50291,115.6971692927516L413.84853,113.31039849947905L414.83826000000005,114.34227279109365L416.39355,121.04341213657028L419.40986999999996,125.05276005049683L421.16938999999996,123.59709633791527L421.92346999999995,122.86418687989763L422.58329000000003,124.84994120508696L425.20686,125.46494226211468L425.69387,124.39124904867504L427.92469000000006,119.62620096729097L428.75732,115.02648181084334L429.15007,113.75848601033408L429.49569,112.11002068334892L431.14524,112.86352364047809L432.70053,112.38196110811498L432.92046999999997,113.04432974104083L433.37606,114.57889630653858L433.50174000000004,114.00212501536845L433.95732999999996,114.6747750092211L435.51262,116.86945838932172L439.14163,116.86767503359306L440.16278,115.29223563539017L440.90115000000003,113.36417353455437L444.02744,112.22308627405295L444.87577999999996,111.88997114919738L446.96520999999996,111.11176638092468L449.18032,110.3518919818751L453.15495,109.65404180533602L454.93018,109.11248477558445L457.41236,113.26181178820218L458.24499000000003,119.52384830339008L459.84741,126.34286867441682L463.93201000000005,122.37784058941571L465.6444,118.27514466126667L465.86434,115.86644495105685L467.07401000000004,113.82209450969663L468.88066,111.59504393726326L470.32597999999996,111.14144420903767L471.22145,110.41065021682886L471.84985,109.17962889962854L472.13263,107.90237072356621L472.27402,106.75863874273347L473.46797999999995,105.37183986185102L475.13324,106.17713760851689L475.18037000000004,107.05595041178981L475.25892,107.31485747851917L476.37433,106.4407838718771L478.2124,104.85793663172001L478.91935,104.0865232095008L479.76769,103.90465269523173L479.78340000000003,103.51392223237343L480.12902,104.67304364704125L480.38038,106.66190834154509L483.53809,105.45051438969261L483.58522,104.99584232522182L484.35500999999994,103.73393447228153L484.73204999999996,104.24498006813451L488.26680000000005,106.15433142466975L489.27224,109.97239731671596L490.29339,113.53079654432645L490.65472,113.77457485042396L491.97436,110.05705460263721L492.02149000000003,108.08673276158231L492.10004000000004,105.86125596554308L493.15261000000004,101.95368265647431L493.43539,98.67548205482211L495.22633,101.10595707957293L497.70851,102.59952578582971L499.49945,100.32865577911502L499.90791,99.17655162176584L500.23781999999994,98.79462128067672L500.33207999999996,98.60641461410916L502.81426,100.36900184463735L506.56895000000003,103.47909141439959L507.30732,102.8774323877023L507.9043,101.63632881738693L508.34418,101.68546513711186L510.13512000000003,102.69081631371245L511.26624000000004,100.70535917299304L514.73815,105.4726221200068L515.9164000000001,108.38527481008998L517.3303,105.93580673175711L520.59798,104.50329373143705L520.75508,104.43254716171379L521.28922,105.03081198843455L521.44632,105.12579688544355L521.85478,104.62523936173488L522.56173,105.16406146372066L522.92306,105.10242564776365L524.10131,104.37307477342381L525.1381700000001,103.63117701737463L526.9133999999999,103.4537883637451L528.9557,103.94017963445799L529.12851,104.33092870352635L529.4427099999999,103.67077353070954L533.16598,102.35425134987105L535.38109,101.82201357847731L535.99378,101.86995814708644L536.44937,101.90502335016589L537.81614,101.44348031869333L538.5702200000001,102.5481478835988L538.60164,103.48310503875308L539.19862,103.42668394610337L539.55995,104.21939098289641L542.8904699999999,100.77074274403469L543.8959100000001,98.61902779974116L545.43549,98.47459575699315L545.5611700000001,98.28210083798496L548.29471,100.57509265611128L548.81314,102.17831682413549L549.97568,104.60626255541882L550.58837,105.24906722563412L551.93943,105.00915664397422L553.47901,104.49540060259551L553.8246300000001,103.68756128440884L555.06572,102.48969338685623L555.99261,102.18677880066843L557.78355,102.02897035657293L558.0192000000001,102.23668067585783L560.62706,101.01941148168657L562.60652,97.110695350926L563.15637,94.60040598008686L564.31891,93.75699358805213L566.59686,96.57923338427662L566.98961,98.98195787724563L567.99505,100.2446747263474L568.2149900000001,100.94812575866001L570.3201300000001,100.4655173008992L571.89113,102.46284761198478L572.9437,103.3733391824253L578.08087,106.90205197136925L578.0965799999999,109.0192796447356L578.5521699999999,110.2707208630132L578.58359,111.29877944163604L580.13888,111.05944674213004L583.50082,106.18328743004366L583.5950799999999,103.06355461134649L583.68934,100.94222969063605L583.7521800000001,99.66943473820976L583.76789,98.905757766754L585.5745400000001,99.38562250673209L589.20355,97.58068319642206L590.74313,98.0645293026189L590.9002300000001,98.07826604348537L591.0101999999999,98.76438870323966L591.29298,99.70148014577194L592.87969,100.569291163635L594.23075,101.46167162200919L595.66036,102.31399174273673L596.1945000000001,102.08387258470452L596.4772800000001,102.53422662699461L600.92321,101.19667782189987L602.02291,100.57810361696806L603.86098,101.55012340064957L604.06521,102.8313725023038L605.51053,103.19566688517136L605.96612,103.66182920825128L606.57881,104.174631216357L612.2187,100.39549503840794L612.62716,98.07950979159949L613.27127,96.36357525972528L613.66402,96.01693238728052L613.91538,95.5386818933058L615.84771,95.8086494436007L616.82173,95.8565962823713L620.08941,94.34880115321187L620.34077,94.85091130716148L621.50331,96.18159524621092L622.28881,97.65158776296096L624.4253699999999,97.7712848110969L625.69788,97.38193873333785L625.71359,96.88184231715115L628.4000000000001,98.21474723599374L628.47855,98.73288203300251L628.88701,98.82577768171558L629.84532,98.30632476332624L631.1335399999999,96.25018670369889L632.21753,96.74585079175057L632.86164,95.92689109028476L633.5371700000001,95.3410152694052L635.61089,93.99031069972904L635.7837,93.59631703507182L638.01452,91.89894683725407L639.49126,91.33160687188371L639.7112,90.69573658406767L639.9939800000001,90.89255010473744L645.75955,92.25111221616277L650.48826,95.13957394590864L651.06953,94.9354009837561L655.04416,96.86607274357397L656.80368,97.89469210805845L657.82483,96.18149434198352L657.9348,95.41187414425264L658.06048,94.98160202561411L658.81456,93.88049844681376L658.95595,92.93948937570542L659.88284,92.46875331780609L660.0870699999999,92.25876322115238L662.55354,93.08406762507417L663.07197,93.4198584217242L666.65385,93.31515382256578L668.33482,93.75633106307072L670.14147,93.02059709975651L670.91126,92.69066795223671L671.79102,93.10255384751389L673.86474,93.3685807704224L673.99042,93.44377907748776L675.56142,93.34714806172707L676.06414,93.77300514562995L677.91792,94.93005308737804L678.34209,95.33133031434085L678.37351,95.57209665051857L679.78741,97.31045952839713L680.88711,97.43493233324921L681.42125,97.0049930913558L681.86113,97.20818616243065L683.99769,95.951031082224L685.44301,94.14778649601408L686.96688,90.68885097475686L687.10827,89.08535904676819L687.29679,88.12074911946712L687.59528,88.16316224023495L687.86235,87.70413611367218L688.71069,86.63176889964865L688.89921,86.22334503119544L689.29196,86.38652947965471L689.87323,87.79672738017564L691.50707,89.77117827380852L691.80556,91.74271819475382L693.45511,95.11552276255543L696.92702,94.5379330422989L697.25693,94.01875982537933L698.12098,92.92731558761045L699.48775,91.19704242873814L699.50346,90.15887853341474L700.1004399999999,89.52463681243165L700.65029,89.19890147222463L703.54093,88.0118408833348L708.75665,88.80719791378993L709.73067,88.07166213206301L710.94034,87.63096358783156L712.18143,88.95099599937862L712.51134,89.76947821486158L712.63702,90.77212723653412L712.87267,91.2199926505142L714.5065099999999,92.39339866648044L714.5379300000001,93.09744227606012L715.9518300000001,92.2201781341908L719.06241,91.8790359576629L719.17238,91.90114911366027L720.20924,93.47052162151647L720.28779,94.4121451262302L721.9216299999999,95.25809676812094L722.1887,95.906787138021L723.24127,96.83906105234388L726.5246599999999,97.38141417046882L726.77602,97.38489696419532L726.98025,97.13940094707186L727.5301000000001,97.86339056824318L727.9385599999999,98.52458280285998L731.59899,92.50159660554414L732.5415899999999,89.00373042426395L733.01289,86.08915610123813L733.31138,84.04368396836003L734.70957,82.78237822769569L735.52649,82.35193816708619L736.0135,81.77993536118919L736.90897,82.2450209090963L739.20263,83.04445285307497L741.02499,85.43552986614185L741.54342,88.85467607398198L745.51805,88.28473472153763L746.05219,88.33211329386012L750.37244,88.23075674584732L752.13196,87.93621527797711L757.09632,87.89305008963782L757.96037,88.42217697761083L758.19602,88.27786587894929L759.81415,89.003350142604L760.97669,88.96866316173424L761.2280499999999,88.90816066559523L761.40086,89.06337393841966L763.1918000000001,88.82008405543462L764.15011,87.72091981802635L764.16582,87.06142127558144L765.077,86.03509153488011L765.3912,85.93148399807654L767.2764,87.43298378263495L769.4915100000001,88.23056273051844L769.86855,88.89118102210017L772.0051100000001,90.86569738279132L773.5132699999999,92.28665719920605L774.44016,93.42273308905487L774.61297,94.33117708487828L779.07461,91.5025980966301L780.8184200000001,87.81465224176713L781.2583000000001,85.36437349838059L782.0595099999999,84.26275471426271L783.58338,84.02199621234672L784.07039,83.66144772740802L784.1489399999999,83.48040232785104L784.4160099999999,83.63763324241376L785.8141999999999,83.80882994544828L790.1501599999999,88.19680919773771L793.16648,89.84868244247076L793.355,90.57710131118563L795.66437,93.04779447811757L795.82147,93.98588945542525L795.91573,94.2539030580208L795.9785699999999,94.41660306528121L796.4655799999999,94.1828424544031L796.497,93.72947793357935L796.71694,92.96164952870231L796.8112,92.75609787151825L797.95803,91.19132656959061L801.8384,90.33247501890281L803.22088,91.36822378087294L803.62934,91.56694549899248L805.04324,90.90623822224705L805.46741,89.43818324096549L806.5671100000001,89.21948086743083L807.63539,87.06659159663036L808.9236099999999,86.82884680368136L809.67769,87.34328562127126L809.92905,86.83610198799715L814.89341,88.47597088518114L817.0142599999999,89.96263099302274L817.12423,91.55581736534492L819.0251400000001,91.59759857350383L819.40218,92.32701068218825L819.7792199999999,92.54667271790669L820.75324,94.11109701453307L822.2456900000001,93.63225159250896L823.9894999999999,89.97381372406005L824.27228,87.00637038775636L827.5713800000001,87.20284469359137L829.11096,89.60888589330324L832.06444,87.87164122836475L832.33151,87.84926842842509L832.9442,88.91440444084412L836.99738,90.00519112642058L840.07654,91.87115190729764L840.76778,92.75133299008172L841.3176299999999,93.5100161026428L842.1659700000001,95.69142750826535L842.6686900000001,96.27892742781074L843.79981,95.76580799477239L844.22398,95.28909295116034L844.28682,94.73027669354775L844.9309300000001,95.15350939991777L845.27655,95.40366533233345L847.9629600000001,95.63377012225163L848.0257999999999,95.55007176573378L848.23003,94.28143490514339L849.48683,93.376610943086L849.54967,92.83308595061726L850.11523,95.65760157037033L851.4820000000001,96.83256094222224L851.5919700000001,97.48713348916147L852.28321,98.65162701732504L853.1158399999999,98.15269251898872L857.5303499999999,91.70075735709639L858.47295,89.56398810566407L859.7925900000001,90.70868009484377L860.9394199999999,92.58745805690626L861.15936,92.941713603675L863.4844400000001,92.86068477841593L865.6838399999999,91.97101902134642L868.9201,90.76186141280789L869.0614899999999,90.32427346389568L869.8941199999999,90.03400438595463L872.01497,89.81322355442433L872.58053,90.64339690120926L874.38718,89.70383660263963L877.2306900000001,87.34775349966975L877.78054,86.23398425312217L880.27843,87.60629362804514L881.1738999999999,88.21484709967865L881.70804,88.98821795218998L882.41499,89.63305015607966L882.9805500000001,90.23225917079623L884.7557800000001,90.30639273392302L885.0071399999999,90.08879840890853L886.24823,88.85762596917323L887.59929,87.7094225053321L890.69416,87.08286981179299L898.58058,86.88712496324769L899.2561099999999,86.09557343986268L900.19871,85.89343744770667L900.51291,85.792312468624L900.92137,84.6763874811744L902.33527,84.25883248870463L903.15219,85.23176226177742L904.0947899999999,86.23887827991803L904.66035,87.22807696795081L905.49298,87.87577525791892L905.55582,88.26376361666541L905.76005,87.65991478621015L905.97999,87.34737794887457L906.3570300000001,86.22808338553568L906.5455499999999,85.84756633991515L907.15824,86.57244642016002L907.3781799999999,87.00926631401006L909.32622,88.8702985579373L909.4204799999999,90.00833575097334L910.06459,90.56453514199029L910.3473700000001,90.32117262328012L910.7087,90.52039388158522L912.3739600000001,92.38880725180269L914.0235100000001,93.44937773487067L914.27487,94.42780571807083L914.7461699999999,94.16058650701433L919.25494,91.57790036612272L919.3806199999999,89.64588206537672L921.3915000000001,89.32456647067136L924.4392399999999,87.66577357380908L926.60722,84.92287076049638L931.16312,85.25785307153217L932.01146,85.68501030483338L932.4042099999999,87.19626741336879L934.38367,88.11561860231814L935.65618,89.28903900807057L936.61449,90.02396063628765L936.9129800000001,91.24989884271014L942.6942600000001,90.06773776754017L943.4797599999999,87.93275081482096L944.94079,86.12004233459572L945.1921500000001,84.83459632360899L945.66345,83.76344810178261L946.81028,84.48408009153832L948.60122,85.85893682445425L949.9837,87.20360086420379L951.0519800000001,86.85561205660821L952.48159,86.87046415779304L952.51301,86.8730769565899L952.60727,86.5955589425086L955.46649,90.16683536550516L957.9800900000001,90.0749930650062L958.5456499999999,87.53642491615216L960.41514,85.65544833348036L961.87617,84.78326900008824L962.74022,84.07222263052165L963.68282,83.59897542401609L965.17527,84.07480310108934L970.0925000000001,82.87979970733329L970.7837400000001,82.61261859393124L970.8465799999999,82.49200023350721L970.9722600000001,82.28354706393242L973.29734,81.95940069929702L974.0357099999999,81.30753226528128L975.07257,80.72173566776257L975.10399,80.37025770925135L977.7432699999999,83.50782247223049L978.6073200000001,86.20306286810387L979.0472,88.23286018179982L979.56563,89.34426457099397L980.09977,90.41871535880733L982.0321,93.79758736958127L982.3148799999999,95.75687334460036L984.09011,95.6932321610571L984.73422,95.06473775854835L986.61942,93.22918957895712L988.25326,89.28152497784305L988.77169,86.69872467908857L989.7771299999999,86.31328326936728L989.93423,86.14438780830005L991.17532,85.62472960880814L991.41097,85.27009899575364L991.99224,85.2897869365147L996.0297099999999,84.65711093144006L996.15539,84.74559871218435L997.0822800000001,84.7476576892247L997.30222,83.56638184498013L999.9100800000001,86.52295972222248L1000.8212599999999,90.04200337239598L1000.9312299999999,92.29014233105477L1000.9940700000001,93.64154816718758L1001.0569100000001,94.45553705460941L1003.27202,90.5578706946797L1003.7904500000001,88.02208057110471L1003.96326,86.71228557410814L1006.57112,85.9175876530586L1006.80677,85.11191074613208L1007.13668,84.39414644767925L1007.3723299999999,83.42798786860754L1009.2261100000001,82.19624425925048L1011.2212800000001,82.21949655555022L1012.76086,83.75993670286141L1015.25875,85.01432017601377L1015.60437,85.85641302845983L1016.29561,87.05403812469302L1016.73549,87.48785195196427L1018.11797,86.31111424735047L1020.16027,88.41360885602745L1020.86722,88.93296377553054L1024.18203,87.38103949578709L1025.84729,84.45908646602692L1025.89442,82.70276157199896L1026.30288,81.51225386702754L1026.78989,81.22131508877118L1029.60198,83.60769566947363L1029.6805299999999,85.0439383245357L1029.80621,85.72865022616679L1032.35123,85.32740644429379L1033.18386,84.1202423284904L1033.6394500000001,83.82245508947705L1034.8176999999998,85.64403274606906L1036.27873,85.67669210857895L1036.3258600000001,85.47452649561609L1038.28961,83.97919343643218L1041.63584,83.09522883041399L1042.15427,83.3158051449281L1042.81409,83.24088616312878L1043.64672,82.70831538928348L1044.8249700000001,80.76463107927322L1045.0449099999998,80.02618526377489L1045.15488,79.85591269635086L1046.41168,80.74914454163866L1049.2237699999998,80.2884270326004L1049.7422000000001,80.66089960334932L1050.3077600000001,81.27624130009553L1052.55429,82.74920754861199L1053.13556,82.6621551444016L1056.2932700000001,83.12400585519566L1056.67031,82.01700043694552L1057.26729,81.70874872408137L1057.36155,81.45639108015189L1059.9379900000001,81.19787187953648L1060.17364,81.47935374295628L1060.70778,83.48091070768783L1064.5095999999999,84.00585611699552L1066.2377,85.2809427473457L1069.6939,85.8097447255559L1072.91445,85.0396452972476L1073.7156599999998,83.89466779358293L1075.1924,83.57938282947003L1077.01476,82.60145062053357L1077.87881,82.92315406372637L1078.3501099999999,83.97297459155612L1078.41295,84.4075684463399L1079.57549,85.69081352874144L1079.99966,86.04747688677611L1080.26673,86.2293442863625L1080.65948,85.8313193403722L1081.97912,83.6294222194577L1084.20994,82.11109363929177L1084.4613,81.0381898749813L1084.55556,80.63258177166847L1088.13744,83.55875060108701L1088.87581,85.28106005303505L1090.77672,84.22599418611793L1093.03896,81.6097158964364L1093.79304,80.7883892302446L1094.0444,80.07446261529515L1094.5157,79.92646126058338L1095.56827,80.5722349106469L1095.78821,81.16255725498183L1097.95619,80.2214746606063L1099.8256800000001,79.84456387351224L1101.05106,80.19549955457609L1102.51209,80.08097880989413L1102.60635,80.01226636308485L1102.9519699999998,80.24571797214782L1104.36587,82.3904532442262L1105.9525800000001,86.15886533032477L1107.16225,86.54061766010892L1107.60213,86.94796397985442L1109.0631600000002,85.47183808029547L1109.72298,83.90639007962261L1110.2414099999999,83.94740497062514L1111.26256,84.35378990620319L1113.38341,84.71669179040163L1115.75562,84.71456353615508L1117.32662,84.50539119786487L1118.6305499999999,83.26415256539866L1119.74596,81.81948030877044L1121.26983,81.00181880049666L1121.4583499999999,81.18405758889179L1121.89823,81.49311363048349L1122.29098,81.91731971637603L1123.7991399999999,83.79786936888814L1126.0928,86.24100885277818L1127.1453700000002,87.177698695456L1133.30369,87.02151106297669L1133.71215,86.51262294637974L1134.56049,85.16149161450761L1137.15264,82.6844658915561L1139.22636,80.5002132263399L1139.71337,79.50528455201487L1139.83905,79.14899165406047L1144.8505400000001,78.8785143772019L1145.77743,78.22167954917273L1146.21731,78.20431742188646L1147.20704,77.87449352930378L1150.2862,78.51134919375414L1152.45418,80.5850110543384L1153.5538800000002,81.8814954021343L1153.56959,82.65938601081177L1154.88923,82.30648976078396L1156.47594,81.80117754787665L1157.32428,82.62757591349163L1157.37141,82.64398585571217L1159.09951,85.69232059057572L1159.91643,86.67271327719698L1160.41915,87.28678104249008L1162.35148,85.65937831787687L1163.81251,84.01828360693708L1164.0795799999999,83.0424477032247L1164.56659,82.95527831431764L1165.25783,83.13040575812187L1165.6662900000001,83.07924345487311L1166.07475,82.92191545768947L1170.56781,81.78108958223089L1170.7249100000001,81.09407159601818L1170.75633,80.68186080429064L1173.33277,80.13717617495718L1176.5061899999998,81.29716385927122L1178.07719,80.7205595460315L1178.25,80.2706454200017L1178.68988,80.43980509868072L1179.09834,80.40018152112248L1182.0989499999998,82.89766860505625L1182.5545399999999,84.22354147065096L1182.83732,84.85652795856242L1183.7485,84.00151369896554L1184.1412500000001,82.65187098793405L1185.3194999999998,81.61654043944014L1185.80651,81.02369672460156L1186.13642,81.38366957284688L1186.52917,82.32036959038783L1187.6917099999998,83.49916206184986L1188.3515300000001,84.70540031328176L1189.38839,84.78213203367216L1190.75516,84.57427922020338L1192.49897,83.32628030067667L1193.14308,82.67386510423415L1194.5883999999999,83.03904660160299L1194.72979,82.98726011428215L1198.64158,83.64729637618643L1202.34914,84.79553444192283L1204.12437,83.48548851183341L1206.3237700000002,82.04363649088913L1208.85308,82.20101404785379L1209.29296,81.74607473730606L1209.4186399999999,81.43342853378988L1209.99991,82.09129588980517L1213.89599,81.01307599579718L1216.5824,82.99198744318142L1217.11654,83.48884908211977L1217.72923,83.88714160259218L1220.83981,83.60951250061777L1226.55825,81.47670750037065L1229.5117300000002,79.65774080881619L1229.52744,78.56636079388346L1229.79451,77.3640664763301L1230.7214,76.98982050103245L1231.3183800000002,77.25667599202569L1232.11959,77.7072183637701L1233.42352,77.16673409443393L1234.6489000000001,76.9211935328322L1236.23561,77.31188396637901L1238.1679399999998,78.24497376361649L1239.97459,78.79096179723246L1240.90148,78.13890923165974L1243.77641,78.47532307805841L1243.79212,78.67717138589751L1243.9963500000001,78.52549313915574L1246.21146,79.02101219208714L1246.99696,79.04112977618979L1248.23805,78.54604725047949L1248.56796,78.51044927313927L1250.84591,79.87761294767267L1251.49002,81.17544838383799L1251.91419,81.6278062617481L1252.38549,81.26544498751758L1253.62658,80.69144606965904L1255.0719000000001,79.80083395038918L1255.4646500000001,79.06613098546791L1258.81088,78.85399951413228L1263.52388,78.11436247703409L1263.99518,77.41038994715797L1264.05802,76.97792427591196L1264.43506,77.23378825695346L1264.54503,77.84342603034395L1265.11059,78.01705561820637L1265.9117999999999,77.84403183283786L1266.6501700000001,77.70052725399961L1267.1057600000001,76.88173419907946L1268.2683,76.44023082706491L1271.1746500000002,76.72594818862171L1272.44716,77.78190106649339L1276.78312,78.71976002466164L1277.44294,79.50423663003136L1279.23388,78.79367259325318L1279.67376,78.34465509403788L1279.84657,78.34929305642271L1281.21334,79.02554214244736L1281.6218,79.70408651593715L1283.44416,79.44908252479667L1284.5909900000001,79.86748674632338L1285.8635,79.83062266302841L1286.74326,79.73542205973109L1287.05746,79.42126446630743L1287.54447,78.53598621884697L1287.89009,78.00544988560506L1288.40852,77.88117300753493L1288.8012700000002,77.19676349690377L1288.8484,76.78611779052511L1291.31487,76.91899159716661L1292.54025,77.23622711162034L1292.87016,77.73589288318311L1292.88587,78.03569234612087L1292.91729,78.2155720238834L1294.51971,79.63516413718162L1294.56684,80.48691940516056L1295.19524,80.74218887454163L1296.9861799999999,80.23070517042811L1297.09615,79.92318433272561L1299.57833,79.27876875393224L1301.93483,78.22684340567969L1303.11308,77.52071419770465L1304.07139,77.13609636530248L1306.74209,76.78625474300964L1308.92578,76.70487223057143L1314.43999,77.38180395357716L1315.68108,77.30601144929477L1316.1680900000001,76.74393902289711L1316.32519,76.40669556705859L1316.40374,76.20434949355547L1317.14211,75.82149031136765L1317.95903,75.65729726299247L1318.08471,75.55878143396734L1318.44604,75.42973516897416L1318.91734,75.36931864044698L1319.8128100000001,75.27196056903387L1320.33124,75.16692634142032L1321.72943,75.28030888102404L1322.4363799999999,75.5751368667004L1322.57777,75.75707088955147L1322.68774,75.86623130326211L1325.98684,76.31917908957445L1332.12945,77.19133960706495L1333.2291500000001,77.78267314900461L1333.7947100000001,77.81050696557463L1335.35,78.0659720260245L1336.7639,78.29422506131777L1337.5494,78.53575134538443L1338.03641,79.18152173008224L1342.30953,78.0122564218384L1342.7179899999999,77.40267477595461L1343.00077,77.46784363510403L1344.25757,77.33306433535932L1345.23159,77.37442075453589L1346.29987,76.74970091463558L1349.55184,76.2784771649923L1349.9288800000002,76.61881383805786L1349.9603,76.82301584189725L1350.55728,76.97703704420087L1351.93976,76.73114007320021L1352.25396,76.58360189059977L1352.61529,76.11834021150833L1354.48478,76.20899289643626L1357.83101,76.48577635309607L1358.63222,76.84777550424047L1360.89446,77.13616530254427L1361.5385700000002,77.41062825867499L1361.63283,77.76682849329092L1362.13555,77.7543807873808L1363.4709,78.13813970289726L1365.2932600000001,77.75666751314458L1365.40323,77.52778419929297L1365.57604,77.64307713578677L1367.9168300000001,77.8666075119408L1369.88058,77.41671450716444L1371.1059599999999,77.49768532050967L1371.86004,77.42657396086048L1373.08542,77.36185099272723L1373.9966000000002,77.81064428704258L1374.37364,78.29600595699117L1374.76639,78.58596172849155L1375.0963,78.29751734471216L1376.8715300000001,77.81322671542108L1379.36942,76.93045849019012L1380.04495,76.58412201794226L1380.92471,76.18354413361692L1383.94103,75.99485401923266L1384.08242,75.87912518009426L1384.42804,75.54067664614246" style="fill: none;" fill="none"></path></g></g></g></g><g opacity="0.2"><g><g><g><path stroke="rgb(204, 51, 17)" stroke-width="2px" d="M157.75982,346.0463999819756L158.57674,345.910949998498L159.72357,345.52192499399183L160.69759000000002,343.6004250240326L160.77614,343.43819991588595L161.38883,342.07267490386965L161.93868,340.0267502403259L161.9701,339.380999879837L162.09578,338.56357509613036L164.54654,330.6901504325867L165.52056,328.8363747596741L166.19609,330.60037548065185L166.30606,329.1560995674133L167.06014000000002,323.9869496154785L167.26436999999999,324.85792442321775L168.31694,324.7319239425659L168.44262,323.8625256729126L169.79368,314.7984001922607L170.23355999999998,312.44850048065183L173.02994,304.6743003845215L173.84686,300.93209884643557L174.44384,294.57697288513185L175.6378,294.67147384643556L176.91031,295.25895057678224L177.77436,301.7763013458252L177.82149,302.3669263458252L178.04143,299.81069961547854L178.10426999999999,300.7761753845215L178.85835,296.1693003845215L178.96831999999998,297.5836521148682L179.65956,297.8876259613037L181.48192,293.40360076904295L183.66561,286.52400192260745L184.34114,284.8481996154785L184.38827,285.6766511535645L186.06924,290.35282653808594L186.58767,287.8769263458252L187.21607,285.75697288513186L189.08556,275.48009788513184L190.02815999999999,269.71402519226075L191.64629,266.87115211486815L192.63602,263.92117538452146L193.34297,258.31102615356446L194.63119,254.7877519226074L195.36956,253.03792922973633L196.13935,244.56599807739258L196.15506,244.56599807739258L196.34358,246.054375L196.87771999999998,246.94739730834962L199.28134999999997,238.12110076904295L200.14540000000002,237.42809692382812L203.71157000000002,228.42067153930662L204.82698,221.90332077026366L206.75931,226.40940307617188L207.8433,225.6360726928711L208.09466,225.7589273071289L208.11037000000002,225.29272384643556L209.02155,221.2260726928711L213.93877999999998,217.01610076904296L213.97019999999998,217.0223973083496L214.7557,218.27610076904296L215.87111000000002,216.75779846191406L217.01794,214.01730422973634L217.12790999999999,214.21889923095705L218.80888,213.82514923095704L219.24875999999998,209.73330230712892L220.50556000000003,205.2098973083496L221.47958,206.08087692260742L223.01916,205.39889923095703L223.58472,207.60862884521484L224.92006999999998,206.78017730712892L226.224,205.00672576904296L227.66932,205.8966046142578L227.93639,206.88885269165038L230.43428,203.74042922973635L230.55996,202.46782653808592L232.31948000000003,200.51324615478515L232.53942,200.34787307739256L235.19441,202.5623226928711L237.31526,204.710625L237.75514,207.6952519226074L241.06995,190.83802230834962L241.28989,191.2758769226074L244.27479,192.74377807617188L246.31709,190.38127807617187L247.00833,189.9576026916504L248.34368,186.68317153930667L249.22344,191.00025192260742L249.33341,192.09644577026367L249.89897,189.70402038574218L251.20289999999997,191.21444961547851L254.502,179.2035076904297L254.80049,180.68085845947263L255.90019,184.7160076904297L257.26696,174.51315307617188L260.37754,167.20199615478518L260.83313000000004,166.42237884521484L262.34129,173.07202423095706L262.52981,174.8108303833008L264.77634,163.91970153808595L266.53586,161.27527038574217L268.86093999999997,163.57320922851562L269.50505000000004,161.33039154052736L273.07122,170.14095153808594L274.2966,164.68199615478514L274.34373,164.98125L274.57937999999996,167.45399230957028L275.09781,163.84883422851564L279.44948,148.43429077148437L279.60658,148.1413430786133L280.15643,145.66229461669923L282.63860999999997,152.6253826904297L283.81685999999996,149.88487884521484L285.6078,144.60862884521487L286.25191,144.1597576904297L288.48273,142.5752984619141L288.56128,145.0322946166992L288.70266999999996,145.13625L290.60358,144.22747192382812L290.76068,146.21827423095704L292.22171000000003,146.3001773071289L296.57338,147.01836730957032L297.35888,146.22300384521486L297.46885,144.4164834594727L298.38003,140.1183023071289L302.5746,128.51527038574218L305.84227999999996,135.07672576904298L307.19334,136.51312500000003L307.39757000000003,137.2077053833008L309.1728,139.21110076904296L309.45558,142.38630615234374L311.73353,137.4108673095703L312.73897,136.7021173095703L318.53596,137.05178192138675L318.64593,136.9494030761719L320.46829,131.09669769287112L321.72509,133.68758422851562L322.40062,136.52100769042968L323.73597,136.30523345947267L324.47434,135.70514923095703L326.09247,133.27491577148436L326.10818,133.27491577148436L326.4538,135.08931884765624L327.5535,148.88789154052733L328.37042,144.44166961669922L328.41755,144.39443115234377L329.01453000000004,142.31226654052733L329.37586000000005,144.60547576904295L329.50154000000003,143.42737884521483L330.2242,139.03470153808593L331.51242,124.75416961669924L331.81091000000004,124.15725769042967L336.49249,139.34970153808592L337.32511999999997,144.27945922851563L337.63932,140.08050384521485L338.12633,141.52949615478514L338.26772,138.54172576904298L338.80186,137.64083038330077L340.67134999999996,133.96634307861328L341.83389,128.11365692138673L345.13299,115.11517730712887L345.21154,115.34512115478515L347.78798,130.15800384521486L348.19644,133.96634307861328L350.17589999999996,131.04472961425782L356.16141,135.30824615478517L359.39767,128.38297576904296L360.37169,126.89145538330078L361.86413999999996,129.26024230957032L362.28831,131.8101773071289L362.61822,133.57574615478515L362.80674,132.39607269287112L363.04239,131.06991577148438L367.64542,129.2413430786133L369.24784,127.93410461425782L369.90766,126.54652038574221L370.70887000000005,127.83960845947266L371.0702,131.65740692138672L371.99709,131.41485076904297L374.0551,128.07112884521484L375.21764,121.73804077148435L378.29679999999996,117.0272296142578L380.51191,114.28041961669925L381.65873999999997,118.8762780761719L382.0672,115.80818115234376L382.34998,115.71210845947263L383.27687,116.70277038574216L384.06237,125.45190307617185L386.96872,118.91407653808591L387.06298,117.56902038574219L387.53428,117.43672576904294L387.67566999999997,115.79872192382811L387.83277,117.14377807617188L389.27809,113.45196807861328L389.41947999999996,114.9702703857422L389.74939,120.61350769042969L390.75483,134.76172576904298L391.05332,131.12032653808595L394.1639,118.22737884521484L395.5778,116.59095153808596L396.92886,123.61860076904296L397.84004000000004,132.03383422851562L400.18083,128.6522946166992L400.21225,128.71845153808593L400.71497000000005,131.2227053833008L404.3754,120.01815307617187L404.75244,122.76179077148439L408.35003,145.14255615234376L409.95245,119.34877807617187L410.28236,117.95175384521485L412.37179,113.6063342285156L413.50291,109.84523345947264L413.84853,109.73024230957031L414.83826000000005,115.8900842285156L416.39355,131.09512115478515L419.40986999999996,131.06678192138673L421.16938999999996,121.41360076904294L421.92346999999995,121.76482269287106L422.58329000000003,127.82857269287109L425.20686,126.38744384765627L425.69387,122.78070922851563L427.92469000000006,112.47862884521481L428.75732,108.12690307617186L429.15007,111.85649230957034L429.49569,109.63732269287112L431.14524,113.99377807617185L432.70053,111.65961730957031L432.92046999999997,114.03788269042968L433.37606,116.88074615478513L433.50174000000004,113.13696807861328L433.95732999999996,115.68374999999997L435.51262,120.16148345947266L439.14163,116.86500000000001L440.16278,112.92907653808595L440.90115000000003,110.47208038330075L444.02744,110.51145538330076L444.87577999999996,111.39029846191409L446.96520999999996,109.94445922851565L449.18032,109.21208038330076L453.15495,108.60726654052735L454.93018,108.30014923095706L457.41236,119.48580230712889L458.24499000000003,128.9169030761719L459.84741,136.57139923095704L463.93201000000005,116.43029846191405L465.6444,112.12110076904298L465.86434,112.25339538574218L467.07401000000004,110.75556884765626L468.88066,108.25446807861329L470.32597999999996,110.46104461669921L471.22145,109.3144592285156L471.84985,107.33309692382812L472.13263,105.98648345947265L472.27402,105.04304077148441L473.46797999999995,103.29164154052734L475.13324,107.38508422851561L475.18037000000004,108.37416961669925L475.25892,107.7032180786133L476.37433,105.12967346191408L478.2124,102.48366577148437L478.91935,102.92940307617187L479.76769,103.6318469238281L479.78340000000003,102.92782653808592L480.12902,106.41172576904296L480.38038,109.64520538330078L483.53809,103.6334234619141L483.58522,104.31383422851565L484.35500999999994,101.84107269287114L484.73204999999996,105.01154846191406L488.26680000000005,109.01835845947267L489.27224,115.69949615478515L490.29339,118.86839538574219L490.65472,114.14024230957028L491.97436,104.48077423095702L492.02149000000003,105.13124999999997L492.10004000000004,102.52304077148438L493.15261000000004,96.09232269287111L493.43539,93.75818115234375L495.22633,104.75166961669919L497.70851,104.83987884521486L499.49945,96.92235076904296L499.90791,97.44839538574217L500.23781999999994,98.22172576904296L500.33207999999996,98.3241046142578L502.81426,103.0128826904297L506.56895000000003,108.14422576904298L507.30732,101.97494384765628L507.9043,99.77467346191406L508.34418,101.75916961669918L510.13512000000003,104.19884307861327L511.26624000000004,97.7271734619141L514.73815,112.62351654052736L515.9164000000001,112.7542538452148L517.3303,102.2616046142578L520.59798,102.35452423095705L520.75508,104.32642730712888L521.28922,105.92820922851564L521.44632,105.26827423095705L521.85478,103.87440307617186L522.56173,105.97229461669923L522.92306,105.00997192382812L524.10131,103.27904846191404L525.1381700000001,102.51833038330079L526.9133999999999,103.18770538330074L528.9557,104.66976654052735L529.12851,104.91705230712887L529.4427099999999,102.68054077148435L533.16598,100.37946807861329L535.38109,101.0236569213867L535.99378,101.94187499999998L536.44937,101.95762115478516L537.81614,100.75116577148441L538.5702200000001,104.20514923095703L538.60164,104.88554077148439L539.19862,103.34205230712888L539.55995,105.40845153808596L542.8904699999999,95.5977703857422L543.8959100000001,95.39145538330075L545.43549,98.25794769287108L545.5611700000001,97.99335845947263L548.29471,104.01458038330077L548.81314,104.58315307617187L549.97568,108.24818115234376L550.58837,106.21327423095704L551.93943,104.64929077148435L553.47901,103.72476654052736L553.8246300000001,102.4758023071289L555.06572,100.69289154052734L555.99261,101.73240692138671L557.78355,101.79225769042972L558.0192000000001,102.54824615478515L560.62706,99.19350769042967L562.60652,91.24762115478518L563.15637,90.8349719238281L564.31891,92.491875L566.59686,100.81259307861325L566.98961,102.58604461669921L567.99505,102.13875000000002L568.2149900000001,102.00330230712888L570.3201300000001,99.74160461425782L571.89113,105.45884307861326L572.9437,104.73907653808595L578.08087,112.19512115478517L578.0965799999999,112.19512115478517L578.5521699999999,112.1478826904297L578.58359,112.84086730957034L580.13888,110.70044769287114L583.50082,98.86904846191402L583.5950799999999,98.38395538330076L583.68934,97.76024230957029L583.7521800000001,97.76024230957029L583.76789,97.76024230957029L585.5745400000001,100.10541961669918L589.20355,94.87327423095701L590.74313,98.79029846191406L590.9002300000001,98.09887115478517L591.0101999999999,99.79357269287107L591.29298,101.10711730957036L592.87969,101.87100769042968L594.23075,102.80024230957031L595.66036,103.5924719238281L596.1945000000001,101.7386938476563L596.4772800000001,103.20975769042968L600.92321,99.19035461425784L602.02291,99.65024230957033L603.86098,103.00815307617188L604.06521,104.75324615478513L605.51053,103.74210845947266L605.96612,104.36107269287106L606.57881,104.94383422851564L612.2187,94.72679077148439L612.62716,94.60553192138673L613.27127,93.78967346191405L613.66402,95.49696807861329L613.91538,94.82130615234377L615.84771,96.21360076904296L616.82173,95.92851654052731L620.08941,92.08710845947263L620.34077,95.6040765380859L621.50331,98.17762115478519L622.28881,99.8565765380859L624.4253699999999,97.9508303833008L625.69788,96.79791961669923L625.71359,96.13169769287111L628.4000000000001,100.21410461425785L628.47855,99.51008422851561L628.88701,98.96512115478515L629.84532,97.52714538574219L631.1335399999999,93.16597961425782L632.21753,97.48934692382812L632.86164,94.69845153808598L633.5371700000001,94.46220153808594L635.61089,91.96425384521484L635.7837,93.00532653808597L638.01452,89.35289154052737L639.49126,90.4805969238281L639.7112,89.74193115234374L639.9939800000001,91.18777038574217L645.75955,94.28895538330079L650.48826,99.47226654052736L651.06953,94.62914154052731L655.04416,99.76208038330077L656.80368,99.43762115478512L657.82483,93.61169769287108L657.9348,94.25744384765625L658.06048,94.33619384765626L658.81456,92.22884307861324L658.95595,91.527975769043L659.88284,91.76264923095704L660.0870699999999,91.94377807617184L662.55354,94.32202423095703L663.07197,93.92354461669919L666.65385,93.15809692382811L668.33482,94.41809692382816L670.14147,91.91699615478512L670.91126,92.19577423095706L671.79102,93.72038269042969L673.86474,93.76762115478516L673.99042,93.55657653808595L675.56142,93.20220153808594L676.06414,94.41179077148439L677.91792,96.66562499999998L678.34209,95.93324615478514L678.37351,95.93324615478514L679.78741,99.91800384521486L680.88711,97.62164154052732L681.42125,96.36008422851563L681.86113,97.51297576904295L683.99769,94.06529846191404L685.44301,91.44291961669921L686.96688,85.50044769287109L687.10827,86.68012115478518L687.29679,86.6738342285156L687.59528,88.2267819213867L687.86235,87.01559692382813L688.71069,85.0232180786133L688.89921,85.61070922851559L689.29196,86.63130615234377L689.87323,89.912024230957L691.50707,92.7328546142578L691.80556,94.70002807617186L693.45511,100.17472961425784L696.92702,93.67154846191409L697.25693,93.24000000000001L698.12098,91.29014923095701L699.48775,88.60163269042971L699.50346,88.60163269042971L700.1004399999999,88.573274230957L700.65029,88.71029846191408L703.54093,86.23124999999999L708.75665,90.00023345947267L709.73067,86.96835845947265L710.94034,86.96991577148435L712.18143,90.93104461669924L712.51134,90.9972015380859L712.63702,92.27610076904296L712.87267,91.89179077148441L714.5065099999999,94.1535076904297L714.5379300000001,94.1535076904297L715.9518300000001,90.90428192138671L719.06241,91.36732269287108L719.17238,91.93431884765624L720.20924,95.82458038330077L720.28779,95.82458038330077L721.9216299999999,96.52702423095707L722.1887,96.87982269287107L723.24127,98.23747192382808L726.5246599999999,98.19494384765625L726.77602,97.39012115478516L726.98025,96.77115692138676L727.5301000000001,98.94937499999997L727.9385599999999,99.51637115478513L731.59899,83.46711730957031L732.5415899999999,83.75693115234372L733.01289,81.71729461669923L733.31138,80.97547576904299L734.70957,80.8904196166992L735.52649,81.70627807617188L736.0135,80.92193115234375L736.90897,82.94264923095699L739.20263,84.24360076904298L741.02499,89.02214538574219L741.54342,93.9833953857422L745.51805,87.42982269287108L746.05219,88.40318115234373L750.37244,88.07872192382814L752.13196,87.49440307617186L757.09632,87.82830230712892L757.96037,89.21586730957034L758.19602,88.06139923095702L759.81415,90.09157653808597L760.97669,88.91663269042971L761.2280499999999,88.81740692138669L761.40086,89.29619384765624L763.1918000000001,88.45514923095703L764.15011,86.07217346191408L764.16582,86.07217346191408L765.077,84.49559692382815L765.3912,85.77607269287108L767.2764,89.68523345947261L769.4915100000001,89.42693115234374L769.86855,89.88210845947265L772.0051100000001,93.82747192382811L773.5132699999999,94.41809692382816L774.44016,95.12684692382811L774.61297,95.69384307861327L779.07461,87.25972961425782L780.8184200000001,82.28273345947264L781.2583000000001,81.68895538330077L782.0595099999999,82.61032653808593L783.58338,83.66085845947265L784.07039,83.12062499999996L784.1489399999999,83.20883422851563L784.4160099999999,83.8734796142578L785.8141999999999,84.06562500000001L790.1501599999999,94.77877807617188L793.16648,92.32649230957031L793.355,91.66972961425785L795.66437,96.75383422851564L795.82147,95.39303192138675L795.91573,94.65592346191409L795.9785699999999,94.66065307617185L796.4655799999999,93.83220153808594L796.497,93.04943115234374L796.71694,91.8099069213867L796.8112,92.44777038574222L797.95803,88.84416961669922L801.8384,89.04419769287108L803.22088,92.92184692382813L803.62934,91.86502807617188L805.04324,89.91517730712889L805.46741,87.23610076904299L806.5671100000001,88.89142730712894L807.63539,83.83725769042968L808.9236099999999,86.4722296142578L809.67769,88.1149438476562L809.92905,86.07532653808596L814.89341,90.93577423095707L817.0142599999999,92.19262115478517L817.12423,93.94559692382813L819.0251400000001,91.6602703857422L819.40218,93.42112884521481L819.7792199999999,92.87616577148435L820.75324,96.45773345947265L822.2456900000001,92.91398345947266L823.9894999999999,84.48615692138668L824.27228,82.55520538330074L827.5713800000001,87.49755615234375L829.11096,93.21794769287112L832.06444,85.26577423095705L832.33151,87.81570922851563L832.9442,90.51210845947264L836.99738,91.64137115478513L840.07654,94.67009307861326L840.76778,94.07160461425781L841.3176299999999,94.64804077148438L842.1659700000001,98.96354461669921L842.6686900000001,97.16017730712889L843.79981,94.99612884521486L844.22398,94.57402038574219L844.28682,93.89205230712889L844.9309300000001,95.78835845947265L845.27655,95.77889923095705L847.9629600000001,95.97892730712891L848.0257999999999,95.42452423095705L848.23003,92.3784796142578L849.48683,92.01937499999997L849.54967,92.01779846191408L850.11523,99.89437500000003L851.4820000000001,98.59500000000003L851.5919700000001,98.4689923095703L852.28321,100.39836730957029L853.1158399999999,97.4042907714844L857.5303499999999,82.02285461425782L858.47295,86.3588342285156L859.7925900000001,92.42571807861327L860.9394199999999,95.40562500000004L861.15936,93.47309692382811L863.4844400000001,92.73914154052733L865.6838399999999,90.63652038574219L868.9201,88.948125L869.0614899999999,89.66789154052736L869.8941199999999,89.59860076904295L872.01497,89.48205230712892L872.58053,91.88865692138671L874.38718,88.29449615478518L877.2306900000001,83.81362884521485L877.78054,84.56333038330081L880.27843,89.66475769042972L881.1738999999999,89.12767730712892L881.70804,90.14827423095704L882.41499,90.60029846191406L882.9805500000001,91.1310726928711L884.7557800000001,90.41759307861327L885.0071399999999,89.76240692138674L886.24823,87.0108673095703L887.59929,85.9871173095703L890.69416,86.14304077148438L898.58058,86.5935076904297L899.2561099999999,84.90824615478516L900.19871,85.5902334594727L900.51291,85.640625L900.92137,83.0025L902.33527,83.6325L903.15219,86.69115692138672L904.0947899999999,87.74955230712891L904.66035,88.71187500000002L905.49298,88.8473226928711L905.55582,88.84574615478516L905.76005,86.75414154052731L905.97999,86.8785726928711L906.3570300000001,84.54914154052739L906.5455499999999,85.27679077148434L907.15824,87.65976654052736L907.3781799999999,87.66449615478513L909.32622,91.66184692382814L909.4204799999999,91.71539154052732L910.06459,91.39883422851562L910.3473700000001,89.95612884521483L910.7087,90.81922576904293L912.3739600000001,95.19142730712889L914.0235100000001,95.04023345947263L914.27487,95.89544769287113L914.7461699999999,93.7597576904297L919.25494,87.70387115478513L919.3806199999999,86.74785461425779L921.3915000000001,88.84259307861328L924.4392399999999,85.17758422851563L926.60722,80.80851654052736L931.16312,85.76032653808596L932.01146,86.32574615478518L932.4042099999999,89.46315307617186L934.38367,89.49464538574222L935.65618,91.0491696166992L936.61449,91.12634307861327L936.9129800000001,93.08880615234375L942.6942600000001,88.29449615478518L943.4797599999999,84.73027038574219L944.94079,83.40097961425778L945.1921500000001,82.90642730712892L945.66345,82.15672576904296L946.81028,85.56502807617187L948.60122,87.92122192382811L949.9837,89.22059692382811L951.0519800000001,86.33362884521483L952.48159,86.89274230957034L952.51301,86.87699615478516L952.60727,86.17928192138669L955.46649,95.52375L957.9800900000001,89.93722961425783L958.5456499999999,83.72857269287107L960.41514,82.83398345947268L961.87617,83.47500000000002L962.74022,83.00565307617188L963.68282,82.8891046142578L965.17527,84.7885446166992L970.0925000000001,81.08729461669918L970.7837400000001,82.21184692382815L970.8465799999999,82.31107269287105L970.9722600000001,81.97086730957034L973.29734,81.47318115234373L974.0357099999999,80.32972961425781L975.07257,79.84304077148437L975.10399,79.84304077148437L977.7432699999999,88.21416961669922L978.6073200000001,90.24592346191406L979.0472,91.27755615234372L979.56563,91.0113711547852L980.09977,92.03039154052738L982.0321,98.86589538574219L982.3148799999999,98.69580230712887L984.09011,95.5977703857422L984.73422,94.12199615478517L986.61942,90.47586730957028L988.25326,83.36002807617189L988.77169,82.82452423095702L989.7771299999999,85.73512115478513L989.93423,85.89104461669922L991.17532,84.84524230957032L991.41097,84.7381530761719L991.99224,85.31931884765623L996.0297099999999,83.70809692382812L996.15539,84.8783303833008L997.0822800000001,84.75074615478513L997.30222,81.79446807861325L999.9100800000001,90.95782653808595L1000.8212599999999,95.32056884765626L1000.9312299999999,95.66235076904297L1000.9940700000001,95.66865692138674L1001.0569100000001,95.67652038574221L1003.27202,84.71137115478513L1003.7904500000001,84.21839538574216L1003.96326,84.74759307861325L1006.57112,84.72554077148436L1006.80677,83.90339538574216L1007.13668,83.3175L1007.3723299999999,81.97874999999999L1009.2261100000001,80.34862884521482L1011.2212800000001,82.25437500000004L1012.76086,86.07059692382813L1015.25875,86.89589538574216L1015.60437,87.11955230712891L1016.29561,88.85047576904299L1016.73549,88.1385726928711L1018.11797,84.54600769042969L1020.16027,91.567350769043L1020.86722,89.71199615478514L1024.18203,85.0531530761719L1025.84729,80.07615692138671L1025.89442,80.068274230957L1026.30288,79.72649230957029L1026.78989,80.78490692138672L1029.60198,87.18726654052733L1029.6805299999999,87.19830230712887L1029.80621,86.75571807861331L1032.35123,84.72554077148436L1033.18386,82.30949615478517L1033.6394500000001,83.37577423095706L1034.8176999999998,88.37639923095702L1036.27873,85.72568115234372L1036.3258600000001,85.17127807617186L1038.28961,81.73619384765624L1041.63584,81.76928192138672L1042.15427,83.64666961669923L1042.81409,83.12850769042967L1043.64672,81.90945922851563L1044.8249700000001,77.84910461425778L1045.0449099999998,78.91851654052738L1045.15488,79.60050384521486L1046.41168,82.0889923095703L1049.2237699999998,79.59735076904298L1049.7422000000001,81.21960845947268L1050.3077600000001,82.19925384521486L1052.55429,84.95865692138676L1053.13556,82.53157653808591L1056.2932700000001,83.81678192138673L1056.67031,80.35649230957034L1057.26729,81.24637115478515L1057.36155,81.07785461425783L1059.9379900000001,80.8100930786133L1060.17364,81.90157653808592L1060.70778,86.48324615478515L1064.5095999999999,84.79327423095702L1066.2377,87.1935726928711L1069.6939,86.60294769287106L1072.91445,83.88449615478515L1073.7156599999998,82.17720153808591L1075.1924,83.10645538330078L1077.01476,81.1345523071289L1077.87881,83.4057092285156L1078.3501099999999,85.54770538330075L1078.41295,85.0594592285156L1079.57549,87.61568115234377L1079.99966,86.58247192382811L1080.26673,86.50214538574221L1080.65948,85.23428192138675L1081.97912,80.32657653808593L1084.20994,79.83360076904296L1084.4613,79.4288342285156L1084.55556,80.02416961669923L1088.13744,87.94800384521483L1088.87581,87.86452423095704L1090.77672,82.64339538574217L1093.03896,77.68529846191404L1093.79304,79.55639923095703L1094.0444,79.0035726928711L1094.5157,79.70445922851559L1095.56827,81.5408953857422L1095.78821,82.04804077148435L1097.95619,78.80985076904295L1099.8256800000001,79.2791976928711L1101.05106,80.72190307617188L1102.51209,79.90919769287109L1102.60635,79.90919769287109L1102.9519699999998,80.59589538574221L1104.36587,85.60755615234376L1105.9525800000001,91.81148345947264L1107.16225,87.11324615478514L1107.60213,87.55898345947264L1109.0631600000002,83.25764923095704L1109.72298,81.55821807861327L1110.2414099999999,84.00892730712889L1111.26256,84.96336730957034L1113.38341,85.26104461669922L1115.75562,84.71137115478513L1117.32662,84.19163269042969L1118.6305499999999,81.40229461669924L1119.74596,79.65247192382816L1121.26983,79.77532653808595L1121.4583499999999,81.45741577148436L1121.89823,81.9566976928711L1122.29098,82.55362884521486L1123.7991399999999,86.61869384765623L1126.0928,89.90571807861329L1127.1453700000002,88.58273345947265L1133.30369,86.7872296142578L1133.71215,85.74929077148437L1134.56049,83.13479461669925L1137.15264,78.96892730712892L1139.22636,77.22383422851561L1139.71337,78.01289154052733L1139.83905,78.61455230712892L1144.8505400000001,78.47279846191407L1145.77743,77.2364273071289L1146.21731,78.17827423095702L1147.20704,77.3797576904297L1150.2862,79.46663269042972L1152.45418,83.69550384521489L1153.5538800000002,83.82622192382814L1153.56959,83.82622192382814L1154.88923,81.77714538574219L1156.47594,81.0432092285156L1157.32428,83.86717346191404L1157.37141,82.668600769043L1159.09951,90.26482269287112L1159.91643,88.14330230712892L1160.41915,88.2078826904297L1162.35148,83.21827423095704L1163.81251,81.55664154052738L1164.0795799999999,81.57869384765627L1164.56659,82.82452423095702L1165.25783,83.39309692382812L1165.6662900000001,83.0025L1166.07475,82.68592346191406L1170.56781,80.06985076904294L1170.7249100000001,80.06354461669923L1170.75633,80.06354461669923L1173.33277,79.32014923095704L1176.5061899999998,83.03714538574218L1178.07719,79.85565307617185L1178.25,79.59577423095703L1178.68988,80.69354461669923L1179.09834,80.34074615478517L1182.0989499999998,86.64389923095706L1182.5545399999999,86.21235076904298L1182.83732,85.80600769042968L1183.7485,82.7189923095703L1184.1412500000001,80.62740692138675L1185.3194999999998,80.06354461669923L1185.80651,80.13443115234378L1186.13642,81.92362884521481L1186.52917,83.72541961669918L1187.6917099999998,85.26735076904299L1188.3515300000001,86.51475769042969L1189.38839,84.89722961425781L1190.75516,84.26249999999999L1192.49897,81.45428192138672L1193.14308,81.69524230957029L1194.5883999999999,83.58681884765622L1194.72979,82.9095803833008L1198.64158,84.63735076904294L1202.34914,86.51789154052733L1204.12437,81.52041961669926L1206.3237700000002,79.88085845947268L1208.85308,82.43708038330078L1209.29296,81.06366577148435L1209.4186399999999,80.96445922851564L1209.99991,83.07809692382813L1213.89599,79.39574615478517L1216.5824,85.96035461425782L1217.11654,84.23414154052733L1217.72923,84.4845803833008L1220.83981,83.19306884765626L1226.55825,78.27749999999997L1229.5117300000002,76.92929077148438L1229.52744,76.92929077148438L1229.79451,75.56062500000002L1230.7214,76.42845153808594L1231.3183800000002,77.65695922851563L1232.11959,78.3830319213867L1233.42352,76.35600769042969L1234.6489000000001,76.55288269042973L1236.23561,77.8979196166992L1238.1679399999998,79.64460845947269L1239.97459,79.60994384765627L1240.90148,77.16083038330078L1243.77641,78.97994384765622L1243.79212,78.97994384765622L1243.9963500000001,78.29797576904298L1246.21146,79.76429077148441L1246.99696,79.07130615234377L1248.23805,77.80342346191406L1248.56796,78.45705230712889L1250.84591,81.92835845947263L1251.49002,83.12220153808596L1251.91419,82.30634307861328L1252.38549,80.72190307617188L1253.62658,79.83044769287113L1255.0719000000001,78.46491577148441L1255.4646500000001,77.96407653808592L1258.81088,78.5358023071289L1263.52388,77.00490692138669L1263.99518,76.35443115234375L1264.05802,76.32922576904298L1264.43506,77.61758422851562L1264.54503,78.75788269042965L1265.11059,78.27749999999997L1265.9117999999999,77.5844961547852L1266.6501700000001,77.48527038574218L1267.1057600000001,75.65354461669921L1268.2683,75.77797576904294L1271.1746500000002,77.15452423095701L1272.44716,79.36583038330076L1276.78312,80.12654846191407L1277.44294,80.68095153808594L1279.23388,77.72782653808594L1279.67376,77.67112884521487L1279.84657,78.35624999999999L1281.21334,80.0399157714844L1281.6218,80.72190307617188L1283.44416,79.06657653808594L1284.5909900000001,80.49509307861325L1285.8635,79.77532653808595L1286.74326,79.59262115478515L1287.05746,78.95002807617192L1287.54447,77.20806884765625L1287.89009,77.20964538574219L1288.40852,77.6947576904297L1288.8012700000002,76.17014923095707L1288.8484,76.17014923095707L1291.31487,77.11830230712894L1292.54025,77.71208038330076L1292.87016,78.48539154052736L1292.88587,78.48539154052736L1292.91729,78.48539154052736L1294.51971,81.7645523071289L1294.56684,81.7645523071289L1295.19524,81.1250930786133L1296.9861799999999,79.46347961425784L1297.09615,79.4619030761719L1299.57833,78.31214538574216L1301.93483,76.64895538330074L1303.11308,76.46152038574218L1304.07139,76.5591696166992L1306.74209,76.26149230957031L1308.92578,76.58279846191402L1314.43999,78.39720153808594L1315.68108,77.19232269287107L1316.1680900000001,75.90083038330079L1316.32519,75.90083038330079L1316.40374,75.90083038330079L1317.14211,75.24720153808596L1317.95903,75.4110076904297L1318.08471,75.4110076904297L1318.44604,75.23616577148437L1318.91734,75.27869384765626L1319.8128100000001,75.12592346191406L1320.33124,75.00937500000003L1321.72943,75.4503826904297L1322.4363799999999,76.01737884521481L1322.57777,76.0299719238281L1322.68774,76.0299719238281L1325.98684,76.99860076904298L1332.12945,78.49958038330078L1333.2291500000001,78.6696734619141L1333.7947100000001,77.85225769042972L1335.35,78.44916961669924L1336.7639,78.6366046142578L1337.5494,78.89804077148438L1338.03641,80.1501773071289L1342.30953,76.25835845947262L1342.7179899999999,76.48830230712889L1343.00077,77.56559692382808L1344.25757,77.13089538574218L1345.23159,77.43645538330077L1346.29987,75.81262115478512L1349.55184,75.57164154052737L1349.9288800000002,77.12931884765624L1349.9603,77.12931884765624L1350.55728,77.20806884765625L1351.93976,76.36229461669922L1352.25396,76.36229461669922L1352.61529,75.42044769287111L1354.48478,76.34497192382815L1357.83101,76.90095153808596L1358.63222,77.39077423095705L1360.89446,77.56875000000002L1361.5385700000002,77.82232269287107L1361.63283,78.30112884521486L1362.13555,77.73570922851565L1363.4709,78.71377807617188L1365.2932600000001,77.18445922851566L1365.40323,77.18445922851566L1365.57604,77.81601654052736L1367.9168300000001,78.20190307617185L1369.88058,76.741875L1371.1059599999999,77.61914154052732L1371.86004,77.31990692138669L1373.08542,77.26476654052738L1373.9966000000002,78.48383422851566L1374.37364,79.02404846191405L1374.76639,79.02089538574222L1375.0963,77.86485076904296L1376.8715300000001,77.0867907714844L1379.36942,75.60630615234373L1380.04495,76.06461730957034L1380.92471,75.5826773071289L1383.94103,75.71181884765628L1384.08242,75.7055319213867L1384.42804,75.03300384521486" style="fill: none;" fill="none"></path></g></g></g></g></g></g><g transform="translate(70, 378)" clip-path="url(#clip_1)"><clipPath id="clip_1"><rect width="1571" height="22"></rect></clipPath><g><g><line x1="0" y1="0" x2="0" y2="5" style="visibility: inherit;" fill="rgb(0, 0, 0)" stroke="rgb(204, 204, 204)" stroke-width="1px"></line><line x1="157.10000000000002" y1="0" x2="157.10000000000002" y2="5" style="visibility: inherit;" fill="rgb(0, 0, 0)" stroke="rgb(204, 204, 204)" stroke-width="1px"></line><line x1="314.20000000000005" y1="0" x2="314.20000000000005" y2="5" style="visibility: inherit;" fill="rgb(0, 0, 0)" stroke="rgb(204, 204, 204)" stroke-width="1px"></line><line x1="471.29999999999995" y1="0" x2="471.29999999999995" y2="5" style="visibility: inherit;" fill="rgb(0, 0, 0)" stroke="rgb(204, 204, 204)" stroke-width="1px"></line><line x1="628.4000000000001" y1="0" x2="628.4000000000001" y2="5" style="visibility: inherit;" fill="rgb(0, 0, 0)" stroke="rgb(204, 204, 204)" stroke-width="1px"></line><line x1="785.5" y1="0" x2="785.5" y2="5" style="visibility: inherit;" fill="rgb(0, 0, 0)" stroke="rgb(204, 204, 204)" stroke-width="1px"></line><line x1="942.5999999999999" y1="0" x2="942.5999999999999" y2="5" style="visibility: inherit;" fill="rgb(0, 0, 0)" stroke="rgb(204, 204, 204)" stroke-width="1px"></line><line x1="1099.6999999999998" y1="0" x2="1099.6999999999998" y2="5" style="visibility: inherit;" fill="rgb(0, 0, 0)" stroke="rgb(204, 204, 204)" stroke-width="1px"></line><line x1="1256.8000000000002" y1="0" x2="1256.8000000000002" y2="5" style="visibility: inherit;" fill="rgb(0, 0, 0)" stroke="rgb(204, 204, 204)" stroke-width="1px"></line><line x1="1413.9" y1="0" x2="1413.9" y2="5" style="visibility: inherit;" fill="rgb(0, 0, 0)" stroke="rgb(204, 204, 204)" stroke-width="1px"></line><line x1="1571" y1="0" x2="1571" y2="5" style="visibility: inherit;" fill="rgb(0, 0, 0)" stroke="rgb(204, 204, 204)" stroke-width="1px"></line></g><g transform="translate(0, 8)"><text x="0" y="0" dx="0em" dy="0.95em" style="text-anchor: middle; visibility: hidden; font-family: &quot;Helvetica Neue&quot;, sans-serif; font-size: 12px; font-weight: 200;" fill="rgb(50, 49, 63)" stroke="none" stroke-width="1px">-10k</text><text x="157.10000000000002" y="0" dx="0em" dy="0.95em" style="text-anchor: middle; visibility: inherit; font-family: &quot;Helvetica Neue&quot;, sans-serif; font-size: 12px; font-weight: 200;" fill="rgb(50, 49, 63)" stroke="none" stroke-width="1px">0</text><text x="314.20000000000005" y="0" dx="0em" dy="0.95em" style="text-anchor: middle; visibility: inherit; font-family: &quot;Helvetica Neue&quot;, sans-serif; font-size: 12px; font-weight: 200;" fill="rgb(50, 49, 63)" stroke="none" stroke-width="1px">10k</text><text x="471.29999999999995" y="0" dx="0em" dy="0.95em" style="text-anchor: middle; visibility: inherit; font-family: &quot;Helvetica Neue&quot;, sans-serif; font-size: 12px; font-weight: 200;" fill="rgb(50, 49, 63)" stroke="none" stroke-width="1px">20k</text><text x="628.4000000000001" y="0" dx="0em" dy="0.95em" style="text-anchor: middle; visibility: inherit; font-family: &quot;Helvetica Neue&quot;, sans-serif; font-size: 12px; font-weight: 200;" fill="rgb(50, 49, 63)" stroke="none" stroke-width="1px">30k</text><text x="785.5" y="0" dx="0em" dy="0.95em" style="text-anchor: middle; visibility: inherit; font-family: &quot;Helvetica Neue&quot;, sans-serif; font-size: 12px; font-weight: 200;" fill="rgb(50, 49, 63)" stroke="none" stroke-width="1px">40k</text><text x="942.5999999999999" y="0" dx="0em" dy="0.95em" style="text-anchor: middle; visibility: inherit; font-family: &quot;Helvetica Neue&quot;, sans-serif; font-size: 12px; font-weight: 200;" fill="rgb(50, 49, 63)" stroke="none" stroke-width="1px">50k</text><text x="1099.6999999999998" y="0" dx="0em" dy="0.95em" style="text-anchor: middle; visibility: inherit; font-family: &quot;Helvetica Neue&quot;, sans-serif; font-size: 12px; font-weight: 200;" fill="rgb(50, 49, 63)" stroke="none" stroke-width="1px">60k</text><text x="1256.8000000000002" y="0" dx="0em" dy="0.95em" style="text-anchor: middle; visibility: inherit; font-family: &quot;Helvetica Neue&quot;, sans-serif; font-size: 12px; font-weight: 200;" fill="rgb(50, 49, 63)" stroke="none" stroke-width="1px">70k</text><text x="1413.9" y="0" dx="0em" dy="0.95em" style="text-anchor: middle; visibility: inherit; font-family: &quot;Helvetica Neue&quot;, sans-serif; font-size: 12px; font-weight: 200;" fill="rgb(50, 49, 63)" stroke="none" stroke-width="1px">80k</text><text x="1571" y="0" dx="0em" dy="0.95em" style="text-anchor: middle; visibility: hidden; font-family: &quot;Helvetica Neue&quot;, sans-serif; font-size: 12px; font-weight: 200;" fill="rgb(50, 49, 63)" stroke="none" stroke-width="1px">90k</text></g><line x1="0" y1="0" x2="1571" y2="0" fill="rgb(0, 0, 0)" stroke="rgb(204, 204, 204)" stroke-width="1px"></line></g></g></g></g></svg>