<svg viewBox="0 0 1624.2000732421875 400" xmlns="http://www.w3.org/2000/svg"><g><g><g><g><g><line x1="60" y1="378" x2="55" y2="378" style="visibility: inherit;" fill="rgb(0, 0, 0)" stroke="rgb(204, 204, 204)" stroke-width="1px"></line><line x1="60" y1="336" x2="55" y2="336" style="visibility: inherit;" fill="rgb(0, 0, 0)" stroke="rgb(204, 204, 204)" stroke-width="1px"></line><line x1="60" y1="294" x2="55" y2="294" style="visibility: inherit;" fill="rgb(0, 0, 0)" stroke="rgb(204, 204, 204)" stroke-width="1px"></line><line x1="60" y1="252" x2="55" y2="252" style="visibility: inherit;" fill="rgb(0, 0, 0)" stroke="rgb(204, 204, 204)" stroke-width="1px"></line><line x1="60" y1="210" x2="55" y2="210" style="visibility: inherit;" fill="rgb(0, 0, 0)" stroke="rgb(204, 204, 204)" stroke-width="1px"></line><line x1="60" y1="168" x2="55" y2="168" style="visibility: inherit;" fill="rgb(0, 0, 0)" stroke="rgb(204, 204, 204)" stroke-width="1px"></line><line x1="60" y1="126" x2="55" y2="126" style="visibility: inherit;" fill="rgb(0, 0, 0)" stroke="rgb(204, 204, 204)" stroke-width="1px"></line><line x1="60" y1="84" x2="55" y2="84" style="visibility: inherit;" fill="rgb(0, 0, 0)" stroke="rgb(204, 204, 204)" stroke-width="1px"></line><line x1="60" y1="42" x2="55" y2="42" style="visibility: inherit;" fill="rgb(0, 0, 0)" stroke="rgb(204, 204, 204)" stroke-width="1px"></line><line x1="60" y1="0" x2="55" y2="0" style="visibility: inherit;" fill="rgb(0, 0, 0)" stroke="rgb(204, 204, 204)" stroke-width="1px"></line></g><g transform="translate(50, 0)"><text x="0" y="378" dx="0em" dy="0.3em" style="text-anchor: end; visibility: hidden; font-family: &quot;Helvetica Neue&quot;, sans-serif; font-size: 12px; font-weight: 200;" fill="rgb(50, 49, 63)" stroke="none" stroke-width="1px">-2e+3</text><text x="0" y="336" dx="0em" dy="0.3em" style="text-anchor: end; visibility: inherit; font-family: &quot;Helvetica Neue&quot;, sans-serif; font-size: 12px; font-weight: 200;" fill="rgb(50, 49, 63)" stroke="none" stroke-width="1px">-1e+3</text><text x="0" y="294" dx="0em" dy="0.3em" style="text-anchor: end; visibility: inherit; font-family: &quot;Helvetica Neue&quot;, sans-serif; font-size: 12px; font-weight: 200;" fill="rgb(50, 49, 63)" stroke="none" stroke-width="1px">0</text><text x="0" y="252" dx="0em" dy="0.3em" style="text-anchor: end; visibility: inherit; font-family: &quot;Helvetica Neue&quot;, sans-serif; font-size: 12px; font-weight: 200;" fill="rgb(50, 49, 63)" stroke="none" stroke-width="1px">1e+3</text><text x="0" y="210" dx="0em" dy="0.3em" style="text-anchor: end; visibility: inherit; font-family: &quot;Helvetica Neue&quot;, sans-serif; font-size: 12px; font-weight: 200;" fill="rgb(50, 49, 63)" stroke="none" stroke-width="1px">2e+3</text><text x="0" y="168" dx="0em" dy="0.3em" style="text-anchor: end; visibility: inherit; font-family: &quot;Helvetica Neue&quot;, sans-serif; font-size: 12px; font-weight: 200;" fill="rgb(50, 49, 63)" stroke="none" stroke-width="1px">3e+3</text><text x="0" y="126" dx="0em" dy="0.3em" style="text-anchor: end; visibility: inherit; font-family: &quot;Helvetica Neue&quot;, sans-serif; font-size: 12px; font-weight: 200;" fill="rgb(50, 49, 63)" stroke="none" stroke-width="1px">4e+3</text><text x="0" y="84" dx="0em" dy="0.3em" style="text-anchor: end; visibility: inherit; font-family: &quot;Helvetica Neue&quot;, sans-serif; font-size: 12px; font-weight: 200;" fill="rgb(50, 49, 63)" stroke="none" stroke-width="1px">5e+3</text><text x="0" y="42" dx="0em" dy="0.3em" style="text-anchor: end; visibility: inherit; font-family: &quot;Helvetica Neue&quot;, sans-serif; font-size: 12px; font-weight: 200;" fill="rgb(50, 49, 63)" stroke="none" stroke-width="1px">6e+3</text><text x="0" y="0" dx="0em" dy="0.3em" style="text-anchor: end; visibility: hidden; font-family: &quot;Helvetica Neue&quot;, sans-serif; font-size: 12px; font-weight: 200;" fill="rgb(50, 49, 63)" stroke="none" stroke-width="1px">7e+3</text></g><line x1="60" y1="0" x2="60" y2="378" fill="rgb(0, 0, 0)" stroke="rgb(204, 204, 204)" stroke-width="1px"></line></g></g><g transform="translate(60, 0)" clip-path="url(#clip_0)"><clipPath id="clip_0"><rect width="1564" height="378"></rect></clipPath><g><g><g><line x1="0" y1="0" x2="0" y2="378" fill="rgb(0, 0, 0)" stroke="rgb(60, 60, 60)" stroke-width="1px" opacity="0.25"></line><line x1="130.35" y1="0" x2="130.35" y2="378" fill="rgb(0, 0, 0)" stroke="rgb(60, 60, 60)" stroke-width="1px" opacity="0.25"></line><line x1="260.7" y1="0" x2="260.7" y2="378" fill="rgb(0, 0, 0)" stroke="rgb(60, 60, 60)" stroke-width="1px" opacity="0.25"></line><line x1="391.05" y1="0" x2="391.05" y2="378" fill="rgb(0, 0, 0)" stroke="rgb(60, 60, 60)" stroke-width="1px" opacity="0.25"></line><line x1="521.4" y1="0" x2="521.4" y2="378" fill="rgb(0, 0, 0)" stroke="rgb(60, 60, 60)" stroke-width="1px" opacity="0.25"></line><line x1="651.75" y1="0" x2="651.75" y2="378" fill="rgb(0, 0, 0)" stroke="rgb(60, 60, 60)" stroke-width="1px" opacity="0.25"></line><line x1="782.1" y1="0" x2="782.1" y2="378" fill="rgb(0, 0, 0)" stroke="rgb(60, 60, 60)" stroke-width="1px" opacity="0.25"></line><line x1="912.45" y1="0" x2="912.45" y2="378" fill="rgb(0, 0, 0)" stroke="rgb(60, 60, 60)" stroke-width="1px" opacity="0.25"></line><line x1="1042.8" y1="0" x2="1042.8" y2="378" fill="rgb(0, 0, 0)" stroke="rgb(60, 60, 60)" stroke-width="1px" opacity="0.25"></line><line x1="1173.15" y1="0" x2="1173.15" y2="378" fill="rgb(0, 0, 0)" stroke="rgb(60, 60, 60)" stroke-width="1px" opacity="0.25"></line><line x1="1303.5" y1="0" x2="1303.5" y2="378" fill="rgb(0, 0, 0)" stroke="rgb(60, 60, 60)" stroke-width="1px" opacity="0.25"></line><line x1="1433.85" y1="0" x2="1433.85" y2="378" fill="rgb(0, 0, 0)" stroke="rgb(60, 60, 60)" stroke-width="1px" opacity="0.25"></line><line x1="1564.2" y1="0" x2="1564.2" y2="378" fill="rgb(0, 0, 0)" stroke="rgb(60, 60, 60)" stroke-width="1px" opacity="0.25"></line></g><g><line x1="0" y1="378" x2="1564.2" y2="378" fill="rgb(0, 0, 0)" stroke="rgb(60, 60, 60)" stroke-width="1px" opacity="0.25"></line><line x1="0" y1="336" x2="1564.2" y2="336" fill="rgb(0, 0, 0)" stroke="rgb(60, 60, 60)" stroke-width="1px" opacity="0.25"></line><line x1="0" y1="294" x2="1564.2" y2="294" fill="rgb(0, 0, 0)" stroke="rgb(60, 60, 60)" stroke-width="1px" opacity="0.25"></line><line x1="0" y1="252" x2="1564.2" y2="252" fill="rgb(0, 0, 0)" stroke="rgb(60, 60, 60)" stroke-width="1px" opacity="0.25"></line><line x1="0" y1="210" x2="1564.2" y2="210" fill="rgb(0, 0, 0)" stroke="rgb(60, 60, 60)" stroke-width="1px" opacity="0.25"></line><line x1="0" y1="168" x2="1564.2" y2="168" fill="rgb(0, 0, 0)" stroke="rgb(60, 60, 60)" stroke-width="1px" opacity="0.25"></line><line x1="0" y1="126" x2="1564.2" y2="126" fill="rgb(0, 0, 0)" stroke="rgb(60, 60, 60)" stroke-width="1px" opacity="0.25"></line><line x1="0" y1="84" x2="1564.2" y2="84" fill="rgb(0, 0, 0)" stroke="rgb(60, 60, 60)" stroke-width="1px" opacity="0.25"></line><line x1="0" y1="42" x2="1564.2" y2="42" fill="rgb(0, 0, 0)" stroke="rgb(60, 60, 60)" stroke-width="1px" opacity="0.25"></line><line x1="0" y1="0" x2="1564.2" y2="0" fill="rgb(0, 0, 0)" stroke="rgb(60, 60, 60)" stroke-width="1px" opacity="0.25"></line></g></g></g><g><g><line x1="0" y1="294" x2="1564.2" y2="294" fill="rgb(0, 0, 0)" stroke="rgb(153, 153, 153)" stroke-width="1.5px"></line></g></g><g><g><line x1="130.35" y1="0" x2="130.35" y2="378" fill="rgb(0, 0, 0)" stroke="rgb(153, 153, 153)" stroke-width="1.5px"></line></g></g><g><g><g><g><g><path stroke="rgb(0, 119, 187)" stroke-width="2px" d="M132.95700000000002,298.10673303222654L135.56400000000002,298.3134531841278L138.171,301.5095155923026L140.778,301.47693225843767L143.385,302.243368589159L145.99200000000002,301.68998427884384L148.59900000000002,300.99102983372967L151.206,300.5457459452944L153.813,300.50926110968066L156.42000000000002,299.4659594746628L159.02700000000002,298.45208296637725L161.63400000000001,298.28124965972825L164.24099999999999,298.32751279438514L166.848,297.84093046591573L169.455,297.8331221008492L172.062,296.8360035346685L174.669,296.84276715725804L177.27599999999998,296.71305502179695L179.883,296.14935911904155L182.49,296.0800567700187L185.097,296.25958322427323L187.704,295.87227927589026L190.311,295.40433772412325L192.918,295.4943797304388L195.525,295.1361826472302L198.13200000000003,295.1229309539778L200.739,295.0415687979512L203.346,295.06365300497896L205.95299999999997,294.79708609182353L208.56,294.6440196823208L211.16700000000003,294.5772713784806L213.774,294.50117357390064L216.381,294.51972594851L218.98800000000003,294.439522935201L221.595,294.7670606249666L224.20200000000003,294.7252649718084L226.809,294.5290598893872L229.416,294.5786105523466L232.02300000000002,294.41070231793424L234.63,294.32227425357263L237.23700000000002,294.2682778127509L239.844,294.41327385629944L242.451,294.27933778214003L245.05800000000002,294.3256045018726L247.665,294.27637460869596L250.27200000000002,294.1527918841407L252.879,294.1864348427049L255.486,294.18732865426495L258.093,294.15361832426476L260.7,294.1233036543754L263.307,294.00065021249156L265.91400000000004,293.90856102974686L268.521,293.8670722436873L271.12800000000004,293.900043559454L273.735,293.88697910579566L276.342,293.78888864298176L278.949,293.6414480333537L281.556,293.56557216397584L284.163,293.4555273819426L286.77,293.3367441650664L289.377,293.3022280160687L291.98400000000004,293.2280479867042L294.591,293.1702355577696L297.19800000000004,293.0427961991637L299.805,293.0390195133215L302.412,292.84914021446264L305.019,292.8312811303255L307.626,292.6978957320283L310.233,292.68500896173896L312.84000000000003,292.49682022994864L315.447,292.35236443716354L318.05400000000003,292.3325234871272L320.661,292.29821720812106L323.26800000000003,291.92449749711386L325.875,291.7058202115251L328.48199999999997,291.55397868697366L331.089,291.4623719717057L333.696,291.1127160602207L336.303,291.04306546987266L338.91,290.9468123898337L341.517,290.2826035105604L344.124,290.55226898499836L346.73100000000005,290.20643300354783L349.338,290.2810832823533L351.945,290.4708165160429L354.55199999999996,290.18737167842454L357.159,289.43683793625394L359.766,289.4683784819672L362.373,289.3773777300495L364.98,289.31757072982657L367.587,288.6231873353569L370.194,288.7525772937922L372.80100000000004,288.23109629082614L375.408,287.69672510848005L378.015,287.6031797672365L380.622,286.82903303124033L383.229,286.9796870794864L385.836,285.91395209144184L388.443,285.4845844140448L391.05,284.3147829726456L393.657,283.3732734456967L396.26400000000007,281.79077878909777L398.87100000000004,282.3121546025602L401.478,282.4912773562627L404.08500000000004,281.6186985426639L406.692,280.6525506197389L409.299,278.07664267653087L411.90599999999995,277.19050560103574L414.51300000000003,276.39869457155896L417.12,274.5932989694978L419.727,272.8471127313081L422.33400000000006,270.222069250113L424.94100000000003,269.77938715553654L427.548,267.3627113948844L430.15500000000003,265.49404304786816L432.762,267.9051814927834L435.36899999999997,266.059610067545L437.97600000000006,262.95499597216764L440.583,261.104374292285L443.19,261.76284010271473L445.79699999999997,259.16216910069136L448.40400000000005,258.3578208451804L451.011,255.84871701882702L453.618,253.0342964222337L456.225,249.43391193537147L458.832,252.44115370419166L461.43899999999996,247.0732686873587L464.04600000000005,244.64364500147775L466.653,240.96028709854286L469.26,237.70663182943824L471.8670000000001,235.89953964453792L474.47400000000005,233.51440816172277L477.081,229.82806872515866L479.688,228.20548732884518L482.295,223.2667283348071L484.902,220.8056272352593L487.50899999999996,218.80516013021807L490.11600000000004,216.8539719570371L492.723,212.59622829140974L495.33,211.80220445531458L497.93700000000007,210.05588282943876L500.54400000000004,206.20545118203827L503.151,205.40117109984794L505.758,200.83487824584626L508.365,198.32911308032024L510.972,196.83571101225465L513.579,193.5503045370403L516.186,187.6445301831617L518.793,183.0728202583345L521.4,178.9789036784382L524.0070000000001,175.1427183789379L526.614,173.02379333205027L529.221,171.94010939766764L531.8280000000001,168.94200470110061L534.4350000000001,166.55688504722286L537.042,165.33628083302125L539.649,163.4379343201252L542.2560000000001,161.26181352176263L544.863,159.6891662380576L547.47,158.47355403970954L550.077,157.99321308788822L552.684,154.88964679804542L555.2909999999999,151.44118671163974L557.898,150.32025655823387L560.505,148.6543082318153L563.112,145.35105974377666L565.719,142.56101260407848L568.326,144.3930696718221L570.933,147.32607559215575L573.54,144.25608012091845L576.147,144.3291392834886L578.754,144.23489978103066L581.361,142.66047854049341L583.9680000000001,140.40148419460854L586.575,137.66274950114013L589.182,135.76201669287158L591.7890000000001,136.12063657822296L594.3960000000001,133.86733643912123L597.003,132.62113975409775L599.61,131.61991236808365L602.217,131.0667745692877L604.824,131.9935547806351L607.4309999999999,133.27840904025604L610.038,133.00809483821612L612.645,133.33435729355466L615.252,129.7465464073828L617.859,129.4883962038047L620.466,130.41731526134532L623.073,130.02293193024468L625.6800000000001,127.41053337689681L628.287,127.3031602605131L630.894,126.47789244537037L633.5010000000001,127.8552755062847L636.1080000000001,127.36559186627082L638.715,123.12502035413749L641.322,121.25746807185749L643.9290000000001,119.50745349936449L646.5360000000001,120.53281897461869L649.143,120.8510441191462L651.75,120.99101319023771L654.357,119.69613955476763L656.9639999999999,119.79567826411056L659.571,119.28174875534131L662.178,117.75384886257979L664.785,117.8712850987979L667.392,115.26836480927875L669.999,116.85874544806722L672.606,119.61336699540283L675.213,120.0280873847417L677.82,120.26863446209501L680.427,117.11887481788199L683.034,115.20650965635423L685.6410000000001,115.12410227818754L688.248,114.42408441378751L690.855,114.15277994514753L693.4620000000001,112.1726523420885L696.0690000000001,111.75219960837808L698.676,113.20765453065184L701.283,112.37030521839108L703.89,109.91245930290967L706.497,108.6569392536208L709.1039999999999,106.51221316154744L711.711,107.20742477192852L714.318,106.33077126940708L716.925,104.35327721476926L719.532,104.18149093823655L722.139,102.88284651606693L724.746,106.71013290964015L727.3530000000001,107.05931255828409L729.96,107.56181136309544L732.567,105.38921533348224L735.174,103.14141240321436L737.7810000000001,101.25312908255364L740.388,101.55053799640717L742.995,103.34051186034435L745.6020000000001,102.77157430370659L748.2090000000001,103.01574262909895L750.816,103.10772565558437L753.423,102.64242719022565L756.03,100.47923639226036L758.6370000000001,99.13073324160621L761.244,101.78879697621369L763.851,103.13702467010324L766.458,101.01687964581191L769.0649999999999,100.60186333436218L771.672,97.92613128186736L774.279,96.51025806599546L776.886,96.29452398022227L779.493,96.36539563813335L782.1,95.07412332038001L784.7070000000001,96.05331110160301L787.314,95.87689134846181L789.921,96.43237543407707L792.5280000000001,97.70338971357126L795.135,97.26926898439274L797.7420000000001,101.29689810938567L800.349,103.81503847500636L802.956,99.81608871000384L805.563,97.5094141635023L808.1700000000001,97.18768951372635L810.777,95.8821961301108L813.384,94.94482900619153L815.991,93.42118295058992L818.598,93.87572773910392L821.205,94.67187140908737L823.8119999999999,94.14165604857743L826.419,95.02074831664646L829.0260000000001,95.13586539623788L831.6329999999999,96.07322822211773L834.24,94.46937287077066L836.8470000000001,94.78910965996238L839.454,95.42138571785244L842.061,96.35131229008647L844.6680000000001,97.76168776467688L847.275,97.18972398693109L849.8820000000001,97.82378400153362L852.489,98.73679149467023L855.096,97.54454091242712L857.7030000000001,96.48018860995626L860.3100000000001,93.22612566597377L862.917,92.62375821208428L865.524,94.26444984912558L868.1310000000001,93.01990350322535L870.7379999999999,91.86516046131021L873.345,91.64175487053615L875.9520000000001,89.95787050044669L878.559,89.92574612839297L881.166,89.30690509891076L883.7729999999999,87.34852548122143L886.38,89.63429771060788L888.9870000000001,91.51742276698974L891.5939999999999,93.48228569144385L894.201,90.49078391486631L896.8080000000001,89.65841292704482L899.415,89.27534345935186L902.022,88.84116193498613L904.6290000000001,92.05183817661668L907.236,92.11646267159506L909.8430000000001,88.79830533733207L912.45,88.4645406242742L915.057,87.50213765581458L917.664,86.95727868723873L920.2710000000001,87.38453400921827L922.8779999999999,89.48593407740594L925.485,90.51200888394362L928.0920000000001,89.00603033036612L930.699,88.7655756200947L933.306,89.1442766220568L935.9130000000001,90.51943433260908L938.52,90.05590005269045L941.1270000000001,90.53828300036429L943.7340000000002,89.45366472209355L946.341,88.39111328638114L948.9480000000001,86.31032461245371L951.555,84.7367123455972L954.162,86.54700670423335L956.7690000000001,90.19341964754L959.376,87.96100530414901L961.9830000000001,87.4104676356144L964.59,88.89890909699363L967.197,86.24550053632117L969.804,86.07440891554268L972.4110000000001,87.48340120870063L975.0179999999999,86.24763916272042L977.625,86.27600420075726L980.2320000000001,88.48635017670438L982.8389999999999,88.86793510602263L985.446,88.14672629798855L988.0530000000001,89.50970609129314L990.66,87.93237834227585L993.267,85.93536645849053L995.8740000000001,82.86304057821934L998.481,82.39033801880657L1001.0880000000001,82.56580437378392L1003.6950000000002,84.61582363989538L1006.302,83.13357035581225L1008.9090000000001,83.36773479161235L1011.516,85.68133149996743L1014.123,87.53842116560548L1016.73,89.3454370743633L1019.337,86.90225365086798L1021.944,86.75465961239576L1024.5510000000002,88.2579688143125L1027.158,86.54334613233749L1029.765,83.41401471065251L1032.372,80.94653734201654L1034.979,80.20729349895993L1037.586,80.501905396251L1040.193,79.77924089400062L1042.8,77.83319102077536L1045.407,77.72364937809022L1048.0140000000001,78.72814509560413L1050.6209999999999,77.8729421354875L1053.228,81.15089457816748L1055.835,83.33664846565051L1058.442,83.75893947001526L1061.049,83.86769297888418L1063.6560000000002,82.59779625608053L1066.263,80.64555197239832L1068.8700000000001,78.67658274593896L1071.477,77.23311956943837L1074.084,77.32999830416298L1076.691,77.88992710749778L1079.298,76.40558634262368L1081.905,80.04888188369921L1084.5120000000002,80.50227717709453L1087.119,77.84136904063172L1089.726,78.27743548687903L1092.333,80.62314488587742L1094.94,80.35954474402644L1097.547,81.44341161204085L1100.154,81.34250595159949L1102.761,81.72568599283471L1105.368,81.92338854882581L1107.9750000000001,82.01073976992046L1110.5819999999999,79.52688370570229L1113.189,77.92550795779641L1115.796,77.12687469655282L1118.403,75.86897208355668L1121.01,76.96160707825908L1123.6170000000002,79.61373846570541L1126.224,79.62515284504826L1128.8310000000001,79.42692334765394L1131.438,79.12330049296736L1134.045,77.8641302957804L1136.652,77.10741411496821L1139.259,77.20040979710598L1141.866,78.63969705013864L1144.473,77.61477057383314L1147.08,76.87930257867487L1149.6870000000001,77.94608428157994L1152.294,80.305479084573L1154.901,80.53772495074384L1157.508,79.04689825169629L1160.115,78.85276863851777L1162.722,80.83514243311066L1165.329,78.74447335049143L1167.9360000000001,77.54932307279483L1170.543,76.32947157805188L1173.15,77.24848060308113L1175.757,78.32409851809871L1178.364,79.73513254835922L1180.971,78.22260804464054L1183.5780000000002,76.30581365490934L1186.185,78.40163155232057L1188.7920000000001,82.58758869701734L1191.3990000000001,80.48342860883542L1194.006,78.16347591530126L1196.613,75.68164531480573L1199.22,77.99768132950845L1201.827,79.49030137583009L1204.434,79.98474879424805L1207.041,79.97882857342387L1209.648,79.58303581592929L1212.255,80.56172266143261L1214.8619999999999,78.25605351873457L1217.469,77.00535398624072L1220.076,75.89049403236947L1222.683,75.13233626317162L1225.29,73.85997558602799L1227.8970000000002,74.3015080078668L1230.504,74.7187102734701L1233.111,74.95772772658205L1235.718,76.4963831203242L1238.325,75.32382557531952L1240.932,73.56933128269168L1243.539,75.52171830086502L1246.146,75.24292004301896L1248.7530000000002,73.38176960393639L1251.3600000000001,71.97931527798681L1253.967,73.09906221366708L1256.574,72.08739123445025L1259.181,72.63378903754517L1261.788,73.21047771940209L1264.395,72.45070147539127L1267.0020000000002,73.46294901023475L1269.609,74.70815612489088L1272.2160000000001,76.02894133118451L1274.8229999999999,77.6038511268357L1277.43,76.19452473860139L1280.037,75.13996249941084L1282.644,75.65298843714652L1285.251,75.0674344685379L1287.8580000000002,74.98962708737275L1290.465,76.40414890867368L1293.0720000000001,75.12458582957919L1295.679,73.02715423212248L1298.286,73.70288550802354L1300.893,75.17994771106407L1303.5,75.25079440788846L1306.107,74.62839812910806L1308.714,73.22382754933983L1311.3210000000001,73.3364703577289L1313.9279999999999,73.03601463651233L1316.535,71.7564076100324L1319.142,71.05337425351945L1321.749,72.52175931773667L1324.356,72.93905949689201L1326.9630000000002,71.6067942918852L1329.57,70.72095782513111L1332.1770000000001,70.30112508570369L1334.784,73.21671450454721L1337.391,74.5458794839783L1339.998,72.61944058101199L1342.605,72.2096596611072L1345.212,72.1286821247893L1347.8190000000002,72.94771552487356L1350.426,72.76223829929916L1353.0330000000001,71.9839640733295L1355.64,72.4634843033727L1358.247,73.08176597264861L1360.854,71.82227364608917L1363.461,72.11830090640353L1366.068,71.62939695009214L1368.675,73.59327567005528L1371.2820000000002,74.35569626140818L1373.889,73.59734705371989L1376.496,73.89841135723196L1379.103,72.75795306433918L1381.71,71.21392496360352L1384.317,72.72165419691208L1386.9240000000002,72.71995306502225L1389.531,71.83195308901333L1392.1380000000001,71.367887087783L1394.7450000000001,71.09170334641976L1397.352,72.31814544535189L1399.959,71.79415836096109L1402.566,70.60018603220163" style="fill: none;" fill="none"></path></g></g></g></g><g opacity="0.2"><g><g><g><path stroke="rgb(0, 119, 187)" stroke-width="2px" d="M132.95700000000002,298.10673303222654L135.56400000000002,298.43748527526856L138.171,304.5777355041504L140.778,301.4386142578125L143.385,303.2440278625488L145.99200000000002,300.9244545593262L148.59900000000002,299.99151379394533L151.206,299.8965177612305L153.813,300.45545306396485L156.42000000000002,297.916778137207L159.02700000000002,296.9404639892578L161.63400000000001,298.02592936706543L164.24099999999999,298.39675643920896L166.848,297.1120102386475L169.455,297.82141873168945L172.062,295.34102893066404L174.669,296.8529097290039L177.27599999999998,296.51851975250247L179.883,295.30390113830566L182.49,295.97610958099364L185.097,296.52886305999755L187.704,295.2913360977173L190.311,294.7024346351624L192.918,295.6294416732788L195.525,294.59888956832884L198.13200000000003,295.1030534706116L200.739,294.91952577209474L203.346,295.0967792816162L205.95299999999997,294.3972359676361L208.56,294.4144201526642L211.16700000000003,294.4771489448548L213.774,294.38702688217165L216.381,294.54755450820926L218.98800000000003,294.31921842098234L221.595,295.25836714553833L224.20200000000003,294.6625714931488L226.809,294.2347522687912L229.416,294.6529365463257L232.02300000000002,294.15883996725086L234.63,294.1896321573257L237.23700000000002,294.1872831516266L239.844,294.6307679214477L242.451,294.0784336709976L245.05800000000002,294.3950045814514L247.665,294.2025297689438L250.27200000000002,293.967417797327L252.879,294.2368992805481L255.486,294.18866937160493L258.093,294.1030528292656L260.7,294.07783164954185L263.307,293.8166700496673L265.91400000000004,293.77042725563047L268.521,293.80483906459807L271.12800000000004,293.94950053310396L273.735,293.8673824253082L276.342,293.641752948761L278.949,293.42028711891174L281.556,293.45175835990904L284.163,293.2904602088928L286.77,293.1585693397522L289.377,293.250453792572L291.98400000000004,293.11677794265745L294.591,293.0835169143677L297.19800000000004,292.85163716125487L299.805,293.0333544845581L302.412,292.5643212661743L305.019,292.8044925041199L307.626,292.49781763458253L310.233,292.6656788063049L312.84000000000003,292.2145371322632L315.447,292.1356807479858L318.05400000000003,292.30276206207276L320.661,292.2467577896118L323.26800000000003,291.363917930603L325.875,291.3778042831421L328.48199999999997,291.32621640014645L331.089,291.32496189880374L333.696,290.5882321929932L336.303,290.9385895843506L338.91,290.8024327697754L341.517,289.2862901916504L344.124,290.9567671966553L346.73100000000005,289.68767903137206L349.338,290.39305870056154L351.945,290.75541636657715L354.55199999999996,289.76220442199707L357.159,288.31103732299806L359.766,289.51568930053713L362.373,289.2408766021729L364.98,289.2278602294922L367.587,287.58161224365233L370.194,288.9466622314453L372.80100000000004,287.44887478637696L375.408,286.89516833496094L378.015,287.4628617553711L380.622,285.6678129272461L383.229,287.20566815185543L385.836,284.315349609375L388.443,284.84053289794923L391.05,282.5600808105469L393.657,281.9610091552735L396.26400000000007,279.4170368041992L398.87100000000004,283.09421832275393L401.478,282.7599614868164L404.08500000000004,280.3098303222656L406.692,279.20332873535153L409.299,274.21278076171876L411.90599999999995,275.86129998779296L414.51300000000003,275.21097802734374L417.12,271.8852055664062L419.727,270.2278333740234L422.33400000000006,266.2845040283203L424.94100000000003,269.11536401367186L427.548,263.7376977539063L430.15500000000003,262.6910405273437L432.762,271.52188916015626L435.36899999999997,263.2912529296875L437.97600000000006,258.29807482910155L440.583,258.3284417724609L443.19,262.75053881835936L445.79699999999997,255.26116259765624L448.40400000000005,257.15129846191405L451.011,252.08506127929687L453.618,248.81266552734374L456.225,244.03333520507815L458.832,256.9520163574219L461.43899999999996,239.02144116210937L464.04600000000005,240.99920947265625L466.653,235.43525024414063L469.26,232.82614892578127L471.8670000000001,233.1889013671875L474.47400000000005,229.9367109375L477.081,224.2985595703125L479.688,225.77161523437502L482.295,215.85858984375L484.902,217.1139755859375L487.50899999999996,215.80445947265625L490.11600000000004,213.92718969726562L492.723,206.20961279296876L495.33,210.61116870117186L497.93700000000007,207.436400390625L500.54400000000004,200.4298037109375L503.151,204.19475097656252L505.758,193.98543896484375L508.365,194.57046533203126L510.972,194.59560791015625L513.579,188.62219482421872L516.186,178.78586865234374L518.793,176.21525537109375L521.4,172.83802880859375L524.0070000000001,169.38844042968748L526.614,169.84540576171875L529.221,170.31458349609375L531.8280000000001,164.44484765625L534.4350000000001,162.97920556640625L537.042,163.50537451171874L539.649,160.59041455078125L542.2560000000001,157.99763232421876L544.863,157.33019531250002L547.47,156.6501357421875L550.077,157.27270166015626L552.684,150.23429736328126L555.2909999999999,146.26849658203125L557.898,148.63886132812502L560.505,146.1553857421875L563.112,140.39618701171872L565.719,138.37594189453125L568.326,147.1411552734375L570.933,151.72558447265624L573.54,139.65108691406252L576.147,144.43872802734376L578.754,144.09354052734375L581.361,140.29884667968753L583.9680000000001,137.01299267578128L586.575,133.55464746093747L589.182,132.91091748046875L591.7890000000001,136.65856640624997L594.3960000000001,130.48738623046873L597.003,130.7518447265625L599.61,130.11807128906247L602.217,130.23706787109376L604.824,133.38372509765625L607.4309999999999,135.20569042968748L610.038,132.60262353515625L612.645,133.8237509765625L615.252,124.36483007812501L617.859,129.10117089843752L620.466,131.81069384765624L623.073,129.43135693359372L625.6800000000001,123.491935546875L628.287,127.14210058593753L630.894,125.23999072265624L633.5010000000001,129.92135009765624L636.1080000000001,126.63106640625L638.715,116.76416308593747L641.322,118.4561396484375L643.9290000000001,116.88243164062499L646.5360000000001,122.0708671875L649.143,121.32838183593748L651.75,121.20096679687498L654.357,117.75382910156253L656.9639999999999,119.94498632812503L659.571,118.51085449218749L662.178,115.4619990234375L664.785,118.04743945312498L667.392,111.36398437500003L669.999,119.24431640625L672.606,123.74529931640623L675.213,120.65016796875L677.82,120.62945507812503L680.427,112.39423535156249L683.034,112.33796191406253L685.6410000000001,115.00049121093753L688.248,113.37405761718747L690.855,113.7458232421875L693.4620000000001,109.2024609375L696.0690000000001,111.12152050781253L698.676,115.3908369140625L701.283,111.11428125000003L703.89,106.22569042968746L706.497,106.77365917968751L709.1039999999999,103.2951240234375L711.711,108.25024218749996L714.318,105.01579101562504L716.925,101.38703613281251L719.532,103.92381152343751L722.139,100.93487988281248L724.746,112.45106249999998L727.3530000000001,107.58308203125L729.96,108.31555957031247L732.567,102.13032128906246L735.174,99.76970800781248L737.7810000000001,98.42070410156248L740.388,101.9966513671875L742.995,106.02547265625003L745.6020000000001,101.91816796875003L748.2090000000001,103.3819951171875L750.816,103.24570019531251L753.423,101.9444794921875L756.03,97.23445019531249L758.6370000000001,97.107978515625L761.244,105.77589257812502L763.851,105.15936621093749L766.458,97.83666210937497L769.0649999999999,99.9793388671875L771.672,93.91253320312501L774.279,94.3864482421875L776.886,95.97092285156248L779.493,96.47170312499998L782.1,93.13721484374997L784.7070000000001,97.52209277343746L787.314,95.61226171875L789.921,97.26560156249997L792.5280000000001,99.6099111328125L795.135,96.61808789062496L797.7420000000001,107.338341796875L800.349,107.59224902343749L802.956,93.8176640625L805.563,94.04940234374999L808.1700000000001,96.70510253906252L810.777,93.9239560546875L813.384,93.53877832031253L815.991,91.13571386718752L818.598,94.55754492187498L821.205,95.86608691406252L823.8119999999999,93.34633300781252L826.419,96.33938671875L829.0260000000001,95.308541015625L831.6329999999999,97.47927246093752L834.24,92.06358984374998L836.8470000000001,95.26871484374999L839.454,96.36979980468749L842.061,97.74620214843753L844.6680000000001,99.8772509765625L847.275,96.33177832031248L849.8820000000001,98.77487402343752L852.489,100.10630273437499L855.096,95.75616503906247L857.7030000000001,94.88366015625002L860.3100000000001,88.34503124999998L862.917,91.72020703124997L865.524,96.72548730468748L868.1310000000001,91.15308398437497L870.7379999999999,90.1330458984375L873.345,91.306646484375L875.9520000000001,87.4320439453125L878.559,89.87755957031248L881.166,88.37864355468753L883.7729999999999,84.41095605468746L886.38,93.0629560546875L888.9870000000001,94.3421103515625L891.5939999999999,96.42958007812496L894.201,86.00353125000004L896.8080000000001,88.40985644531253L899.415,88.70073925781253L902.022,88.18988964843749L904.6290000000001,96.86785253906248L907.236,92.21339941406251L909.8430000000001,83.82106933593752L912.45,87.9638935546875L915.057,86.05853320312502L917.664,86.13999023437498L920.2710000000001,88.0254169921875L922.8779999999999,92.63803417968751L925.485,92.05112109375L928.0920000000001,86.74706250000003L930.699,88.40489355468748L933.306,89.712328125L935.9130000000001,92.58217089843748L938.52,89.36059863281253L941.1270000000001,91.26185742187499L943.7340000000002,87.82673730468747L946.341,86.79728613281253L948.9480000000001,83.18914160156248L951.555,82.37629394531251L954.162,89.26244824218753L956.7690000000001,95.66303906249999L959.376,84.6123837890625L961.9830000000001,86.58466113281253L964.59,91.13157128906249L967.197,82.26538769531248L969.804,85.81777148437499L972.4110000000001,89.59688964843747L975.0179999999999,84.39399609374999L977.625,86.31855175781249L980.2320000000001,91.801869140625L982.8389999999999,89.4403125L985.446,87.06491308593746L988.0530000000001,91.55417578125002L990.66,85.56638671874998L993.267,82.93984863281247L995.8740000000001,78.25455175781252L998.481,81.68128417968751L1001.0880000000001,82.82900390625002L1003.6950000000002,87.69085253906252L1006.302,80.91019042968747L1008.9090000000001,83.71898144531252L1011.516,89.15172656250002L1014.123,90.32405566406248L1016.73,92.0559609375L1019.337,83.23747851562501L1021.944,86.53326855468754L1024.5510000000002,90.51293261718752L1027.158,83.97141210937502L1029.765,78.72001757812501L1032.372,77.24532128906247L1034.979,79.09842773437498L1037.586,80.94382324218748L1040.193,78.695244140625L1042.8,74.9141162109375L1045.407,77.5593369140625L1048.0140000000001,80.23488867187501L1050.6209999999999,76.59013769531248L1053.228,86.0678232421875L1055.835,86.61527929687503L1058.442,84.3923759765625L1061.049,84.03082324218747L1063.6560000000002,80.692951171875L1066.263,77.71718554687499L1068.8700000000001,75.72312890625L1071.477,75.0679248046875L1074.084,77.47531640624999L1076.691,78.72982031250001L1079.298,74.17907519531252L1081.905,85.5138251953125L1084.5120000000002,81.18237011718747L1087.119,73.8500068359375L1089.726,78.93153515624999L1092.333,84.14170898437499L1094.94,79.96414453124999L1097.547,83.06921191406252L1100.154,81.19114746093749L1102.761,82.30045605468752L1105.368,82.21994238281246L1107.9750000000001,82.1417666015625L1110.5819999999999,75.801099609375L1113.189,75.52344433593748L1115.796,75.92892480468748L1118.403,73.98211816406246L1121.01,78.6005595703125L1123.6170000000002,83.59193554687499L1126.224,79.64227441406251L1128.8310000000001,79.12957910156251L1131.438,78.66786621093746L1134.045,75.97537499999999L1136.652,75.97233984374998L1139.259,77.33990332031249L1141.866,80.79862792968748L1144.473,76.07738085937501L1147.08,75.77610058593751L1149.6870000000001,79.54625683593753L1152.294,83.84457128906251L1154.901,80.88609374999999L1157.508,76.810658203125L1160.115,78.56157421875002L1162.722,83.80870312500002L1165.329,75.60846972656253L1167.9360000000001,75.75659765625L1170.543,74.49969433593748L1173.15,78.62699414062502L1175.757,79.93752539062501L1178.364,81.85168359375001L1180.971,75.95382128906249L1183.5780000000002,73.4306220703125L1186.185,81.54535839843749L1188.7920000000001,88.8665244140625L1191.3990000000001,77.32718847656247L1194.006,74.68354687499999L1196.613,71.9588994140625L1199.22,81.47173535156253L1201.827,81.72923144531251L1204.434,80.72641992187499L1207.041,79.96994824218746L1209.648,78.98934667968746L1212.255,82.0297529296875L1214.8619999999999,74.79754980468749L1217.469,75.1293046875L1220.076,74.21820410156249L1222.683,73.99509960937496L1225.29,71.95143457031247L1227.8970000000002,74.96380664062497L1230.504,75.344513671875L1233.111,75.31625390624998L1235.718,78.80436621093747L1238.325,73.5649892578125L1240.932,70.93758984375L1243.539,78.45029882812503L1246.146,74.82472265625L1248.7530000000002,70.59004394531252L1251.3600000000001,69.87563378906248L1253.967,74.77868261718748L1256.574,70.56988476562503L1259.181,73.45338574218749L1261.788,74.07551074218748L1264.395,71.31103710937498L1267.0020000000002,74.98132031250003L1269.609,76.57596679687498L1272.2160000000001,78.01011914062497L1274.8229999999999,79.96621582031247L1277.43,74.08053515625L1280.037,73.55811914062497L1282.644,76.42252734375L1285.251,74.18910351562499L1287.8580000000002,74.87291601562498L1290.465,78.525931640625L1293.0720000000001,73.20524121093752L1295.679,69.88100683593751L1298.286,74.71648242187501L1300.893,77.39554101562499L1303.5,75.35706445312496L1306.107,73.69480371093749L1308.714,71.11697167968748L1311.3210000000001,73.5054345703125L1313.9279999999999,72.58533105468746L1316.535,69.83699707031252L1319.142,69.99882421875003L1321.749,74.72433691406246L1324.356,73.565009765625L1326.9630000000002,69.60839648437502L1329.57,69.39220312500004L1332.1770000000001,69.6713759765625L1334.784,77.5900986328125L1337.391,76.53962695312498L1339.998,69.72978222656252L1342.605,71.59498828124998L1345.212,72.00721582031252L1347.8190000000002,74.17626562499998L1350.426,72.48402246093752L1353.0330000000001,70.81655273437502L1355.64,73.18276464843751L1358.247,74.00918847656249L1360.854,69.93303515624996L1363.461,72.56234179687499L1366.068,70.89604101562503L1368.675,76.53909375L1371.2820000000002,75.49932714843749L1373.889,72.4598232421875L1376.496,74.3500078125L1379.103,71.04726562500002L1381.71,68.89788281250003L1384.317,74.98324804687502L1386.9240000000002,72.7174013671875L1389.531,70.49995312499999L1392.1380000000001,70.67178808593746L1394.7450000000001,70.67742773437499L1397.352,74.15780859375002L1399.959,71.00817773437501L1402.566,68.80922753906248" style="fill: none;" fill="none"></path></g></g></g></g></g></g><g transform="translate(60, 378)" clip-path="url(#clip_1)"><clipPath id="clip_1"><rect width="1564" height="22"></rect></clipPath><g><g><line x1="0" y1="0" x2="0" y2="5" style="visibility: inherit;" fill="rgb(0, 0, 0)" stroke="rgb(204, 204, 204)" stroke-width="1px"></line><line x1="130.35" y1="0" x2="130.35" y2="5" style="visibility: inherit;" fill="rgb(0, 0, 0)" stroke="rgb(204, 204, 204)" stroke-width="1px"></line><line x1="260.7" y1="0" x2="260.7" y2="5" style="visibility: inherit;" fill="rgb(0, 0, 0)" stroke="rgb(204, 204, 204)" stroke-width="1px"></line><line x1="391.05" y1="0" x2="391.05" y2="5" style="visibility: inherit;" fill="rgb(0, 0, 0)" stroke="rgb(204, 204, 204)" stroke-width="1px"></line><line x1="521.4" y1="0" x2="521.4" y2="5" style="visibility: inherit;" fill="rgb(0, 0, 0)" stroke="rgb(204, 204, 204)" stroke-width="1px"></line><line x1="651.75" y1="0" x2="651.75" y2="5" style="visibility: inherit;" fill="rgb(0, 0, 0)" stroke="rgb(204, 204, 204)" stroke-width="1px"></line><line x1="782.1" y1="0" x2="782.1" y2="5" style="visibility: inherit;" fill="rgb(0, 0, 0)" stroke="rgb(204, 204, 204)" stroke-width="1px"></line><line x1="912.45" y1="0" x2="912.45" y2="5" style="visibility: inherit;" fill="rgb(0, 0, 0)" stroke="rgb(204, 204, 204)" stroke-width="1px"></line><line x1="1042.8" y1="0" x2="1042.8" y2="5" style="visibility: inherit;" fill="rgb(0, 0, 0)" stroke="rgb(204, 204, 204)" stroke-width="1px"></line><line x1="1173.15" y1="0" x2="1173.15" y2="5" style="visibility: inherit;" fill="rgb(0, 0, 0)" stroke="rgb(204, 204, 204)" stroke-width="1px"></line><line x1="1303.5" y1="0" x2="1303.5" y2="5" style="visibility: inherit;" fill="rgb(0, 0, 0)" stroke="rgb(204, 204, 204)" stroke-width="1px"></line><line x1="1433.85" y1="0" x2="1433.85" y2="5" style="visibility: inherit;" fill="rgb(0, 0, 0)" stroke="rgb(204, 204, 204)" stroke-width="1px"></line><line x1="1564.2" y1="0" x2="1564.2" y2="5" style="visibility: inherit;" fill="rgb(0, 0, 0)" stroke="rgb(204, 204, 204)" stroke-width="1px"></line></g><g transform="translate(0, 8)"><text x="0" y="0" dx="0em" dy="0.95em" style="text-anchor: middle; visibility: hidden; font-family: &quot;Helvetica Neue&quot;, sans-serif; font-size: 12px; font-weight: 200;" fill="rgb(50, 49, 63)" stroke="none" stroke-width="1px">-50</text><text x="130.35" y="0" dx="0em" dy="0.95em" style="text-anchor: middle; visibility: inherit; font-family: &quot;Helvetica Neue&quot;, sans-serif; font-size: 12px; font-weight: 200;" fill="rgb(50, 49, 63)" stroke="none" stroke-width="1px">0</text><text x="260.7" y="0" dx="0em" dy="0.95em" style="text-anchor: middle; visibility: inherit; font-family: &quot;Helvetica Neue&quot;, sans-serif; font-size: 12px; font-weight: 200;" fill="rgb(50, 49, 63)" stroke="none" stroke-width="1px">50</text><text x="391.05" y="0" dx="0em" dy="0.95em" style="text-anchor: middle; visibility: inherit; font-family: &quot;Helvetica Neue&quot;, sans-serif; font-size: 12px; font-weight: 200;" fill="rgb(50, 49, 63)" stroke="none" stroke-width="1px">100</text><text x="521.4" y="0" dx="0em" dy="0.95em" style="text-anchor: middle; visibility: inherit; font-family: &quot;Helvetica Neue&quot;, sans-serif; font-size: 12px; font-weight: 200;" fill="rgb(50, 49, 63)" stroke="none" stroke-width="1px">150</text><text x="651.75" y="0" dx="0em" dy="0.95em" style="text-anchor: middle; visibility: inherit; font-family: &quot;Helvetica Neue&quot;, sans-serif; font-size: 12px; font-weight: 200;" fill="rgb(50, 49, 63)" stroke="none" stroke-width="1px">200</text><text x="782.1" y="0" dx="0em" dy="0.95em" style="text-anchor: middle; visibility: inherit; font-family: &quot;Helvetica Neue&quot;, sans-serif; font-size: 12px; font-weight: 200;" fill="rgb(50, 49, 63)" stroke="none" stroke-width="1px">250</text><text x="912.45" y="0" dx="0em" dy="0.95em" style="text-anchor: middle; visibility: inherit; font-family: &quot;Helvetica Neue&quot;, sans-serif; font-size: 12px; font-weight: 200;" fill="rgb(50, 49, 63)" stroke="none" stroke-width="1px">300</text><text x="1042.8" y="0" dx="0em" dy="0.95em" style="text-anchor: middle; visibility: inherit; font-family: &quot;Helvetica Neue&quot;, sans-serif; font-size: 12px; font-weight: 200;" fill="rgb(50, 49, 63)" stroke="none" stroke-width="1px">350</text><text x="1173.15" y="0" dx="0em" dy="0.95em" style="text-anchor: middle; visibility: inherit; font-family: &quot;Helvetica Neue&quot;, sans-serif; font-size: 12px; font-weight: 200;" fill="rgb(50, 49, 63)" stroke="none" stroke-width="1px">400</text><text x="1303.5" y="0" dx="0em" dy="0.95em" style="text-anchor: middle; visibility: inherit; font-family: &quot;Helvetica Neue&quot;, sans-serif; font-size: 12px; font-weight: 200;" fill="rgb(50, 49, 63)" stroke="none" stroke-width="1px">450</text><text x="1433.85" y="0" dx="0em" dy="0.95em" style="text-anchor: middle; visibility: inherit; font-family: &quot;Helvetica Neue&quot;, sans-serif; font-size: 12px; font-weight: 200;" fill="rgb(50, 49, 63)" stroke="none" stroke-width="1px">500</text><text x="1564.2" y="0" dx="0em" dy="0.95em" style="text-anchor: middle; visibility: hidden; font-family: &quot;Helvetica Neue&quot;, sans-serif; font-size: 12px; font-weight: 200;" fill="rgb(50, 49, 63)" stroke="none" stroke-width="1px">550</text></g><line x1="0" y1="0" x2="1564.2" y2="0" fill="rgb(0, 0, 0)" stroke="rgb(204, 204, 204)" stroke-width="1px"></line></g></g></g></g></svg>